<?xml version="1.0" standalone="no"?>
<!DOCTYPE svg PUBLIC "-//W3C//DTD SVG 1.1//EN" "http://www.w3.org/Graphics/SVG/1.1/DTD/svg11.dtd" >
<svg xmlns="http://www.w3.org/2000/svg">
	<metadata>
	Copyright   : Copyright 1994-2010 Lucas de Groot, All rights reserved
	Designer    : Lucas de Groot
	Foundry     : LucasFonts
	Foundry URL : http://www.lucasfonts.com
	</metadata>
<defs>
<font id="TheSerif_D4_5_" horiz-adv-x="1126" >
<font-face units-per-em="2048" ascent="1516" descent="-532" />
<missing-glyph horiz-adv-x="446" />
<glyph unicode=" "  horiz-adv-x="446" />
<glyph unicode="&#x09;" horiz-adv-x="446" />
<glyph unicode="&#xa0;" horiz-adv-x="446" />
<glyph unicode="!" horiz-adv-x="655" d="M424 344h-154l-32 1096h217zM469 102q0 -25 -9 -47t-26 -38.5t-39.5 -25.5t-48.5 -9t-49 9t-40 25.5t-26.5 38.5t-9.5 47t9.5 47t26.5 39t40 26t49 9t48.5 -9t39.5 -26t26 -39t9 -47z" />
<glyph unicode="&#x22;" horiz-adv-x="750" d="M613 961h-135l-29 471h194zM271 961h-136l-28 471h194z" />
<glyph unicode="#" horiz-adv-x="1397" d="M971 391l-41 -391h-158l41 391h-299l-41 -391h-158l41 391h-297v131h312l41 379h-295v133h309l37 348h155l-34 -348h297l37 348h157l-37 -348h295v-133h-307l-41 -379h293v-131h-307zM868 901h-299l-41 -379h299z" />
<glyph unicode="$" horiz-adv-x="1010" d="M156 387h120q8 -43 14 -85.5t11 -84.5q34 -8 71 -13t66 -5q58 0 106.5 11.5t84.5 36.5t56 63.5t20 90.5q0 49 -23.5 85.5t-63.5 62t-101 51t-116 48t-104 49.5t-89.5 66t-64.5 94.5t-24 129.5q0 66 23.5 124t67.5 103t105.5 75t135.5 42v230h137v-222q60 -1 117.5 -8.5 t113.5 -19.5v-303h-121q-9 45 -15 87.5t-9 80.5q-32 5 -60 8.5t-55 3.5q-67 0 -116 -14.5t-79.5 -39.5t-44.5 -57t-14 -67q0 -48 24 -83t64 -61t101.5 -52t117 -49.5t105.5 -51t91 -66.5t65 -94t24 -127q0 -69 -23.5 -131t-68.5 -111.5t-109.5 -83.5t-144.5 -49v-266h-137 v258q-73 0 -135 8t-123 25v311z" />
<glyph unicode="%" horiz-adv-x="1640" d="M737 1090q0 -82 -27 -149t-75 -113.5t-109 -70.5t-127 -24q-68 0 -124.5 19.5t-98.5 59.5t-65 102.5t-23 146.5q0 82 27 148.5t73.5 111.5t106.5 68.5t125 23.5q68 0 125.5 -18t100.5 -56.5t67 -100.5t24 -148zM573 1077q0 53 -10 91.5t-30 63t-50 36.5t-71 12 q-34 0 -63 -14.5t-51 -41.5t-34 -65t-12 -84q0 -53 9.5 -92t29 -65t49 -39t68.5 -13q37 0 67 14.5t52 42t34 67t12 87.5zM381 -47l-131 94l975 1383l131 -95zM1526 326q0 -82 -27 -149t-75 -113.5t-109 -70.5t-127 -24q-68 0 -124.5 19.5t-98.5 59.5t-65 102.5t-23 146.5 q0 82 26.5 148.5t73 111.5t106.5 68.5t125 23.5q68 0 125.5 -18t101 -56.5t67.5 -101t24 -147.5zM1362 313q0 53 -10 91.5t-30 63t-50.5 36.5t-71.5 12q-34 0 -63 -14.5t-51 -41.5t-34 -65t-12 -84q0 -53 9.5 -92t29 -65t49 -39t68.5 -13q37 0 67.5 14.5t52.5 42t34 67 t12 87.5z" />
<glyph unicode="&#x26;" horiz-adv-x="1675" d="M1337 0q-58 41 -117.5 86.5t-115.5 91.5q-51 -45 -110.5 -81t-127.5 -62.5t-144 -40.5t-159 -14q-108 0 -192.5 30t-141 85t-85.5 128t-29 158q0 68 20 127.5t57 112.5t88 102t119 102q-54 63 -90.5 113t-58 93t-31.5 83.5t-10 83.5q0 63 24 119t71 99t115 67t154 24 q78 0 139.5 -20t103.5 -57.5t63.5 -88t21.5 -110.5q0 -53 -14.5 -102.5t-45 -98t-79 -99t-117.5 -104.5q46 -47 100.5 -100t113.5 -108t120.5 -108t118.5 -99v-2q27 35 49 76.5t38.5 88.5t27 100.5t12.5 110.5q-39 4 -76.5 10t-71.5 13v113h498v-113q-36 -9 -79 -15.5 t-85 -9.5q-10 -135 -56 -256t-122 -219q53 -41 121.5 -91t113.5 -83q45 -6 76 -11t60 -13v-111h-267zM717 1212q0 32 -9.5 60t-29 49t-50 33t-71.5 12q-36 0 -66.5 -11.5t-52.5 -33t-34.5 -51t-12.5 -64.5q0 -26 8 -53.5t25.5 -60.5t46.5 -72t70 -86q45 37 77 70t54 66 t33.5 68.5t11.5 73.5zM975 279q-62 50 -127 107.5t-127.5 116t-117.5 113.5t-97 101q-54 -43 -92.5 -82.5t-63 -77.5t-36 -76t-11.5 -78q0 -54 20.5 -102t59 -85t93 -58t120.5 -21q59 0 113.5 11t102 30.5t88 45t75.5 55.5z" />
<glyph unicode="'" horiz-adv-x="408" d="M271 961h-136l-28 471h194z" />
<glyph unicode="(" horiz-adv-x="621" d="M442 -428q-90 143 -148 276.5t-91.5 258.5t-46 243.5t-12.5 231.5q0 112 14.5 233t49 249.5t92 263t144.5 272.5l133 -65q-125 -214 -189 -452.5t-64 -489.5q0 -132 15.5 -256.5t47.5 -243.5t80.5 -232t112.5 -222z" />
<glyph unicode=")" horiz-adv-x="621" d="M487 592q0 -119 -15 -240t-49 -249.5t-92.5 -262.5t-142.5 -268l-133 66q124 212 188 452t64 490q0 264 -63 500.5t-193 453.5l139 65q87 -138 145.5 -270.5t91.5 -257t46.5 -241.5t13.5 -238z" />
<glyph unicode="*" horiz-adv-x="766" d="M607 976l-186 135l24 -228h-138l24 228l-187 -134l-67 118l211 93l-211 94l69 119l186 -134l-24 228h138l-23 -228l185 134l68 -118l-211 -94l211 -93z" />
<glyph unicode="+" d="M651 532v-411h-176v411h-389v154h389v410h176v-410h389v-154h-389z" />
<glyph unicode="," horiz-adv-x="467" d="M230 233q37 0 66.5 -20.5t45 -57.5t14.5 -88t-24.5 -112t-72 -130t-127.5 -141l-80 71q50 53 76.5 97t35 80.5t1.5 65t-25 51.5q-14 18 -20 38.5t-4.5 41t10.5 39.5t23.5 33.5t35 23t45.5 8.5z" />
<glyph unicode="-" horiz-adv-x="676" d="M96 512v152h484v-152h-484z" />
<glyph unicode="&#xad;" horiz-adv-x="676" d="M96 512v152h484v-152h-484z" />
<glyph unicode="." horiz-adv-x="467" d="M361 109q0 -26 -10 -49t-27.5 -40.5t-40.5 -27.5t-49 -10t-49 10t-40.5 27.5t-27.5 40.5t-10 49t10 49t27.5 40.5t40.5 27.5t49 10t49 -10t40.5 -27.5t27.5 -40.5t10 -49z" />
<glyph unicode="/" horiz-adv-x="897" d="M182 -330h-176l717 1880h176z" />
<glyph unicode="0" horiz-adv-x="1199" d="M1101 704q0 -185 -41 -320.5t-111 -224.5t-164.5 -132.5t-200.5 -43.5q-74 0 -139 16.5t-118.5 51.5t-96 90.5t-72 133t-45 177.5t-15.5 226q0 185 41 320.5t111 225t164 133t201 43.5q74 0 139 -17t119 -52.5t96 -91t71.5 -132.5t45 -177.5t15.5 -225.5zM903 687 q0 144 -19 249.5t-57 174t-94.5 102t-131.5 33.5q-65 0 -120.5 -30t-96.5 -96t-64.5 -170.5t-23.5 -255.5q0 -143 19 -248.5t57 -173.5t94.5 -101t131.5 -33q65 0 120.5 29.5t96.5 95t64.5 170t23.5 254.5z" />
<glyph unicode="1" horiz-adv-x="797" d="M543 139q43 -3 92.5 -9.5t101.5 -16.5v-113h-618v113q53 10 112 16.5t121 9.5v1059l-260 -102l-31 168l340 118h142v-1243z" />
<glyph unicode="2" horiz-adv-x="1040" d="M124 0v152l258 298q89 102 148.5 180t95 143t50 122t14.5 117q0 47 -13.5 88.5t-42 71.5t-71.5 48t-102 18q-41 0 -81 -8t-76 -20q-4 -43 -9 -87.5t-13 -87.5h-126v308q34 13 73 23.5t81 18.5t86.5 12t89.5 4q102 0 178.5 -28.5t126.5 -78t75.5 -116.5t25.5 -144 q0 -76 -20 -147.5t-62.5 -147.5t-108.5 -162.5t-160 -192.5l-183 -214v-2q46 2 108.5 4t137 2.5t160 1t179.5 0.5v-176h-819z" />
<glyph unicode="3" horiz-adv-x="1013" d="M890 405q0 -91 -38.5 -168.5t-109.5 -133.5t-171.5 -88t-224.5 -32q-30 0 -61 2t-60.5 4.5t-56 6.5t-47.5 9l20 168q20 -8 45.5 -13.5t53.5 -9t57 -5.5t57 -2q82 0 144.5 18.5t105.5 52.5t64.5 80.5t21.5 101.5q0 66 -32 115.5t-94.5 79.5t-155.5 40t-215 -3v148 q119 -3 204.5 14t141 52.5t81 86.5t25.5 116q0 49 -15 87t-43.5 64t-69 39.5t-90.5 13.5q-36 0 -73.5 -8t-63.5 -17q-4 -43 -10 -86.5t-14 -89.5h-115v296q32 13 67.5 24t73 18t77 11t82.5 4q102 0 175.5 -27t120.5 -72.5t69 -105t22 -124.5q0 -58 -16 -110.5t-46.5 -96 t-74 -77t-97.5 -54.5v-4q63 -11 116 -39t90.5 -70t58.5 -97t21 -119z" />
<glyph unicode="4" horiz-adv-x="1117" d="M845 340v-206q45 -3 89.5 -10.5t82.5 -17.5v-106h-535v106q40 10 85.5 17.5t92.5 10.5v206h-604l-21 141l569 901h241v-877h231v-165h-231zM662 1203h-2l-441 -705q30 1 69 2t82 1.5t86.5 1t83 0.5h71h51.5v700z" />
<glyph unicode="5" horiz-adv-x="946" d="M872 457q0 -105 -40.5 -192.5t-115 -150.5t-176 -96.5t-221.5 -33.5q-26 0 -54 1.5t-55 4.5t-51 6.5t-44 7.5l20 168q19 -6 42.5 -11t50 -8.5t53.5 -5.5t53 -2q79 0 143 20.5t109 58.5t68.5 91.5t23.5 118.5q0 64 -23.5 111.5t-72.5 79.5t-124.5 48.5t-178.5 16.5 q-37 0 -65 -0.5t-52 -3.5v696h637v-176h-463v-364q135 1 236 -25t167.5 -76t99.5 -121.5t33 -162.5z" />
<glyph unicode="6" horiz-adv-x="1181" d="M1084 470q0 -109 -36 -199.5t-100.5 -155t-155.5 -100t-201 -35.5q-106 0 -190.5 37t-143 109.5t-90 179t-31.5 246.5q0 224 54.5 384.5t149 263t221.5 151.5t272 49q38 0 71 -1.5t53 -4.5v-166q-33 6 -64 9t-72 3q-100 0 -180 -29t-139.5 -85.5t-99.5 -139t-60 -187.5 q-3 -17 -7.5 -39.5t-10.5 -45.5l1 -5q51 76 135 119.5t199 43.5q97 0 175.5 -30.5t134 -84.5t85.5 -127.5t30 -159.5zM892 440q0 61 -18 112.5t-52.5 88t-85.5 57.5t-118 21q-63 0 -115 -21.5t-88 -60t-56 -90t-20 -111.5q0 -62 18 -116.5t52.5 -95.5t83 -64.5t110.5 -23.5 q69 0 123 22.5t90.5 62.5t56 96.5t19.5 122.5z" />
<glyph unicode="7" horiz-adv-x="938" d="M883 1226q-40 -87 -80 -184t-78 -200t-74.5 -210t-69.5 -214.5t-61 -213t-51 -204.5h-209q26 106 58 217.5t67.5 222t73 218.5t75.5 207.5t74.5 189.5t70.5 165h-467q-4 -39 -11.5 -85.5t-17.5 -107.5h-135v355h835v-156v0z" />
<glyph unicode="8" d="M1012 355q0 -90 -37 -160t-100.5 -117.5t-148.5 -72.5t-182 -25q-104 0 -184.5 25.5t-134.5 71.5t-82 109.5t-28 138.5q0 65 23.5 119t62.5 100t89.5 85t105.5 74q-62 35 -110 72t-80.5 78.5t-49.5 89t-17 102.5q0 82 32 149t90 115t140 74t181 26q93 0 167.5 -25 t126 -68.5t79.5 -104t28 -130.5q0 -60 -22 -110.5t-59 -93.5t-85 -80t-101 -71q65 -35 118.5 -74t93 -84t62 -97.5t22.5 -115.5zM791 1065q0 39 -14 74.5t-42.5 62t-71 42t-99.5 15.5q-55 0 -99 -14t-74.5 -39.5t-47 -61.5t-16.5 -80q0 -41 16.5 -75.5t47.5 -66t75.5 -60.5 t100.5 -60q59 37 101 69.5t70 64t40.5 62.5t12.5 67zM816 335q0 51 -22.5 93t-60.5 76t-87 63.5t-102 57.5q-47 -29 -89 -58.5t-74.5 -63.5t-51.5 -73t-19 -86q0 -48 17.5 -86.5t50 -66t80.5 -42.5t108 -15q51 0 97 13.5t80 38.5t53.5 62.5t19.5 86.5z" />
<glyph unicode="9" horiz-adv-x="1192" d="M1056 823q0 -152 -24.5 -273.5t-69 -214.5t-107.5 -160t-141 -110t-168 -63t-189 -20q-50 0 -93 3t-80 9v172q49 -14 97.5 -18.5t94.5 -4.5q189 0 303 100t149 300q7 29 11 57.5t8 44.5v3q-21 -31 -53.5 -57.5t-74 -47t-90.5 -32.5t-103 -12q-96 0 -172.5 29.5t-130 85 t-82.5 134t-29 177.5q0 101 34 189t97 152t151 100.5t197 36.5q101 0 186.5 -32.5t147 -103t96.5 -180t35 -264.5zM846 929q0 74 -19.5 133t-55.5 100t-85.5 63t-109.5 22t-110 -22.5t-86.5 -61.5t-57 -92.5t-20.5 -115.5q0 -69 18.5 -123.5t53 -92t83.5 -57t109 -19.5 q64 0 116.5 23t88.5 61t55.5 85.5t19.5 96.5z" />
<glyph unicode=":" horiz-adv-x="586" d="M451 709q0 -26 -10 -49.5t-27.5 -41t-40.5 -27t-49 -9.5t-49 9.5t-40.5 27t-27.5 41t-10 49.5q0 25 10 48.5t27.5 41t40.5 27.5t49 10q25 0 48.5 -10t41 -27.5t27.5 -41t10 -48.5zM451 109q0 -26 -10 -49t-27.5 -40.5t-41 -27.5t-48.5 -10q-26 0 -49 10t-40.5 27.5 t-27.5 40.5t-10 49q0 25 10 48.5t27.5 41t40.5 27.5t49 10q25 0 48.5 -10t41 -27.5t27.5 -41t10 -48.5z" />
<glyph unicode=";" horiz-adv-x="586" d="M451 708q0 -26 -10.5 -49t-27.5 -40.5t-40 -27.5t-50 -10q-26 0 -49 10t-40.5 27.5t-27.5 40.5t-10 49t10 49t27.5 40.5t40.5 27.5t49 10q27 0 50 -10t40 -27.5t27.5 -40.5t10.5 -49zM322 233q37 0 66.5 -20.5t45 -57.5t14.5 -88t-24 -112t-72 -130t-128 -141l-79 71 q49 53 75.5 97t35 80.5t2 65t-24.5 51.5q-15 18 -20.5 38.5t-4 41t10 39.5t23.5 33.5t35 23t45 8.5z" />
<glyph unicode="&#x3c;" d="M795 39l-648 579l648 582l118 -119l-530 -460l530 -455z" />
<glyph unicode="=" d="M114 708v151h899v-151h-899zM114 358v152h899v-152h-899z" />
<glyph unicode="&#x3e;" d="M332 1200l647 -579l-647 -582l-119 119l530 460l-530 455z" />
<glyph unicode="?" horiz-adv-x="911" d="M788 1057q0 -60 -16.5 -109t-44 -87.5t-69 -80t-74 -73.5t-59.5 -66t-44.5 -77t-18.5 -97.5t19 -122.5h-180q-24 73 -25.5 133.5t14 109t41.5 87.5t51 65.5t72.5 72.5t73 77.5t42 68.5t16.5 80q0 51 -29 94.5t-83 77t-131 53t-171 23.5l23 168q139 -4 250 -37.5 t187.5 -88.5t116 -124.5t39.5 -146.5zM516 102q0 -25 -9.5 -47t-26.5 -38.5t-40 -25.5t-49 -9q-25 0 -47.5 9t-39.5 25.5t-26.5 38.5t-9.5 47t9.5 47t26.5 39t39.5 26t47.5 9q26 0 49 -9t40 -26t26.5 -39t9.5 -47z" />
<glyph unicode="@" horiz-adv-x="2003" d="M1810 831q0 -131 -34 -237.5t-96 -180.5t-144.5 -112.5t-177.5 -38.5q-62 0 -107.5 18t-73.5 49t-40 71t-9 85h-4q-18 -43 -45.5 -82.5t-65 -71t-84.5 -50.5t-102 -19q-51 0 -92.5 18.5t-71 55t-45.5 90t-16 121.5q0 112 30 211t89.5 175t148.5 118.5t203 42.5 q146 0 270 -33l-77 -418q-23 -123 7 -181.5t109 -58.5q57 0 106.5 28t86.5 82.5t57.5 133t20.5 176.5q0 104 -33.5 200.5t-104.5 173.5t-184 122t-266 45q-151 0 -284.5 -57t-234 -161.5t-156.5 -247.5t-56 -308q0 -144 41 -260t122.5 -198.5t202.5 -126.5t277 -44 q166 0 352 51l21 -131q-189 -57 -394 -57q-183 0 -328.5 52t-246.5 150.5t-153 236.5t-52 308q0 134 32 256t91 225.5t141.5 186t183 141t214.5 89t235 30.5q180 0 319.5 -52.5t232.5 -145.5t139 -213.5t46 -256.5zM1159 944q-51 12 -121 12q-45 0 -83.5 -16.5t-69 -45.5 t-52.5 -66.5t-36.5 -80.5t-21.5 -87t-7 -85q0 -84 24.5 -125.5t77.5 -41.5q39 0 77.5 27t74 81.5t65.5 135.5t50 186z" />
<glyph unicode="A" horiz-adv-x="1415" d="M907 0v111q42 9 82.5 15t77.5 9l-80 227h-577l-80 -227q37 -3 78.5 -9t83.5 -15v-111h-480v111q30 8 64.5 14.5t60.5 7.5l455 1249h229l457 -1249q26 -1 60.5 -7.5t64.5 -14.5v-111h-496zM764 1001q-19 56 -34.5 104t-29.5 97h-4q-10 -43 -22 -81t-37 -117l-178 -492h481 z" />
<glyph unicode="B" horiz-adv-x="1227" d="M1124 413q0 -42 -9.5 -89t-33 -93t-63 -89t-98 -76t-140 -52t-189.5 -19q-29 0 -67.5 0.5t-83.5 1.5t-96.5 2t-107.5 1h-178v109q40 11 85.5 18t92.5 10v1108q-47 4 -92.5 11t-85.5 17v109h176q35 0 78.5 1t93 2t105.5 2t119 1q111 0 194 -22.5t137 -65.5t81.5 -104.5 t27.5 -138.5q0 -56 -14.5 -105.5t-43 -91.5t-70 -74t-98.5 -52v-3q73 -12 125 -43t87 -74t51.5 -95t16.5 -106zM875 1027q0 46 -13.5 84.5t-45 66.5t-86 43.5t-135.5 15.5q-24 0 -46.5 -0.5t-43.5 -1t-41.5 -1t-41.5 -1.5v-446q30 -2 58.5 -2h67.5q85 0 147.5 16t102 47.5 t58.5 76t19 102.5zM926 407q0 67 -28 112.5t-78 73t-119.5 39t-149.5 11.5h-25h-36t-37.5 -0.5t-30.5 -1.5v-484q27 -4 72 -6.5t106 -2.5q85 0 147 19.5t101.5 53.5t58.5 82t19 104z" />
<glyph unicode="C" horiz-adv-x="1212" d="M1130 61q-43 -17 -91.5 -31t-100 -25t-105 -17t-104.5 -6q-157 0 -277 46.5t-200.5 135.5t-121 215t-40.5 285t42 293t126.5 233.5t212 154t293.5 54.5q82 0 167 -11t169 -30v-338h-133q-5 24 -13.5 76.5t-13.5 109.5q-23 7 -79 17t-128 10q-109 0 -192 -41t-138 -114.5 t-82.5 -172t-27.5 -213.5q0 -127 28.5 -227t87 -170.5t147.5 -107.5t208 -37q42 0 85.5 5.5t86.5 15t83.5 22.5t78.5 28z" />
<glyph unicode="D" horiz-adv-x="1450" d="M1356 707q0 -178 -57 -311.5t-159 -223t-244 -134.5t-312 -45q-52 0 -102.5 1t-95.5 2.5t-83.5 2.5t-67.5 1h-178v109q40 11 85.5 18t92.5 10v1108q-47 4 -92.5 11t-85.5 17v109h176q40 0 88.5 1t102.5 2.5t111 3t113 1.5q166 0 297 -40.5t222.5 -123.5t140 -212 t48.5 -307zM1157 694q0 132 -32 233.5t-97 169t-164 102.5t-234 35q-27 0 -55.5 -0.5t-56 -1t-52 -1.5t-43.5 -2v-1066q19 -3 42 -5t47.5 -3.5t48.5 -2.5t45 -1q123 0 224 32t174 99t113 169t40 243z" />
<glyph unicode="E" horiz-adv-x="1087" d="M57 0v111q43 9 88.5 16t90.5 10v1108q-44 3 -89 10t-90 17v110h893v-313h-131q-4 21 -12.5 67.5t-13.5 98.5h-371v-455h295q6 49 15 87.5t13 54.5h115v-420h-115q-4 16 -13 54t-15 87h-295v-491h373q5 53 14 101t14 69h133v-322h-899z" />
<glyph unicode="F" horiz-adv-x="1028" d="M821 1065q-10 53 -17 92.5t-11 75.5h-371v-465h303q6 36 13.5 71t15.5 68h114v-424h-114q-8 30 -15.5 66t-13.5 74h-303v-486q44 -3 90.5 -10t87.5 -16v-111h-543v111q43 9 88.5 16t90.5 10v1108q-44 3 -89 10t-90 17v110h895v-317h-131z" />
<glyph unicode="G" horiz-adv-x="1423" d="M1366 592q-35 -8 -68.5 -14.5t-66.5 -10.5v-506q-51 -19 -107.5 -33.5t-115.5 -25t-118 -15.5t-116 -5q-156 0 -283 46t-217 134.5t-138 215.5t-48 286q0 160 49 295t144.5 234.5t233 153.5t310.5 54q94 0 188 -12.5t191 -36.5v-326h-135q-8 46 -14.5 89.5t-12.5 92.5 q-55 15 -115 23t-118 8q-111 0 -206 -34.5t-165.5 -104t-109.5 -174t-39 -240.5q0 -127 35.5 -228t103 -171t162 -106t211.5 -36q65 0 124.5 9.5t118.5 27.5v385q-43 3 -88.5 10t-87.5 17v111h498v-113z" />
<glyph unicode="H" horiz-adv-x="1550" d="M965 0v111q35 10 77 16.5t86 9.5v500h-706v-500q45 -3 87 -9.5t79 -16.5v-111h-531v111q43 9 88.5 16t90.5 10v1108q-44 3 -89 10t-90 17v110h531v-110q-36 -11 -78 -17.5t-88 -9.5v-448h706v448q-45 3 -86.5 9.5t-76.5 17.5v110h528v-110q-43 -10 -89 -17t-89 -10v-1108 q44 -3 90.5 -10t87.5 -16v-111h-528z" />
<glyph unicode="I" horiz-adv-x="657" d="M57 0v111q43 9 88.5 16t90.5 10v1108q-44 3 -89 10t-90 17v110h543v-110q-43 -10 -89 -17t-89 -10v-1108q44 -3 90.5 -10t87.5 -16v-111h-543z" />
<glyph unicode="J" horiz-adv-x="709" d="M651 1272q-62 -17 -141 -27v-885q0 -58 -8 -108t-25.5 -92t-45 -74.5t-65.5 -55t-88.5 -34.5t-113.5 -12q-19 0 -39.5 1.5t-40.5 3.5t-38.5 5t-35.5 6v162q32 -10 70 -16.5t72 -6.5q43 0 74.5 10.5t52.5 36.5t32 70.5t11 112.5v876q-44 3 -89 10t-90 17v110h508v-110z " />
<glyph unicode="K" horiz-adv-x="1364" d="M795 0v111q32 8 65 13.5t64 8.5l-502 561v-557q40 -3 80 -9.5t73 -16.5v-111h-518v111q43 9 88.5 16t90.5 10v1108q-44 3 -89 10t-90 17v110h518v-110q-32 -10 -72 -17t-81 -10v-526l493 528q-35 3 -72 9.5t-69 15.5v110h514v-110q-39 -9 -75 -15.5t-68 -9.5l-508 -530 l539 -582q33 -3 70 -9.5t73 -14.5v-111h-524z" />
<glyph unicode="L" horiz-adv-x="975" d="M57 0v111q43 9 88.5 16t90.5 10v1108q-44 3 -89 10t-90 17v110h543v-110q-43 -10 -89 -17t-89 -10v-1091h362q6 47 15 99.5t20 98.5h129v-352h-891z" />
<glyph unicode="M" horiz-adv-x="1923" d="M1413 0v111q39 8 81 14.5t81 9.5l-100 709q-17 122 -27 204t-14 142h-4q-16 -72 -30 -126.5t-34 -113.5l-328 -950h-174l-313 903q-24 70 -46.5 156t-33.5 131h-4q-1 -40 -4 -82.5t-7.5 -86.5t-9.5 -90t-12 -95l-84 -701q39 -3 79.5 -9t80.5 -15v-111h-481v111 q13 3 29.5 6.5t35 7t36.5 5.5t32 3l160 1112q-43 3 -86 10t-86 17v110h434l297 -841q10 -30 20.5 -65t20.5 -71.5t19.5 -72.5t16.5 -68h3q17 70 35 134t40 132l297 852h439v-110q-44 -10 -87 -17t-86 -10l166 -1112q27 -1 62 -7.5t69 -14.5v-111h-483z" />
<glyph unicode="N" horiz-adv-x="1546" d="M1489 1272q-35 -10 -70.5 -17.5t-70.5 -11.5v-1243h-254l-445 741q-32 53 -65 109.5t-66 113.5t-63 111t-54 99q5 -85 8.5 -195.5t5.5 -240t2.5 -273t0.5 -326.5q41 -3 84 -10.5t80 -17.5v-111h-525v111q47 11 91.5 18t87.5 10v1106q-44 3 -89 10t-90 17v110h435 l442 -735q32 -54 65.5 -110.5t66 -113.5t62.5 -111t54 -99q-5 87 -8.5 197.5t-5.5 239t-2.5 270t-0.5 323.5q-42 3 -83 10.5t-76 18.5v110h483v-110z" />
<glyph unicode="O" horiz-adv-x="1444" d="M1358 709q0 -174 -52.5 -309.5t-141.5 -228.5t-208.5 -142t-253.5 -49q-153 0 -268 49.5t-192.5 140.5t-116.5 219t-39 285q0 174 51.5 309.5t141 228.5t208.5 142t254 49q152 0 267.5 -50t193 -141t117 -218.5t39.5 -284.5zM1159 681q0 124 -27 226.5t-81.5 175.5 t-136.5 113.5t-192 40.5q-92 0 -172.5 -34.5t-139.5 -102.5t-93 -168t-34 -230q0 -125 27.5 -227t82 -175.5t136.5 -114t192 -40.5q92 0 172 35t139.5 103t93 168t33.5 230z" />
<glyph unicode="P" horiz-adv-x="1169" d="M1120 958q0 -104 -38.5 -193t-111.5 -154t-175.5 -100.5t-227.5 -35.5q-39 0 -76 2t-69 6v-346q44 -3 90.5 -10t87.5 -16v-111h-543v111q43 9 88.5 16t90.5 10v1108q-44 3 -89 10t-90 17v110h179q20 0 69 1.5t97 3.5t98 3t94 1q136 0 236.5 -33.5t164.5 -93t94.5 -137.5 t30.5 -169zM926 934q0 61 -18 114.5t-59.5 96.5t-110 67.5t-165.5 24.5q-54 0 -89 -0.5t-62 -3.5v-592q32 -5 73.5 -8.5t88.5 -3.5q84 0 149 23.5t107.5 65t64 97t21.5 119.5z" />
<glyph unicode="Q" horiz-adv-x="1442" d="M1442 -137q-81 -10 -145.5 -6.5t-113.5 16t-122.5 40t-100.5 37t-81.5 20t-122.5 10.5h-54q-150 0 -266 49t-194 140.5t-117 219t-39 285.5q0 169 50.5 305.5t140.5 231t209.5 143.5t254.5 49q150 0 266 -49t194 -140.5t117.5 -219.5t39.5 -285q0 -109 -22.5 -207 t-66.5 -180t-108 -142.5t-145 -95.5q29 0 57 -5t56.5 -13.5t67.5 -19t74.5 -16.5t78.5 -7.5t92 4.5v-164zM1159 680q0 125 -27.5 227.5t-82 176.5t-137 113.5t-189.5 39.5q-94 0 -174 -35t-140 -103.5t-93 -169t-33 -227.5q0 -125 27.5 -227.5t82.5 -176.5t137.5 -113.5 t190.5 -39.5q93 0 173 35t139.5 103.5t92.5 169t33 227.5z" />
<glyph unicode="R" horiz-adv-x="1241" d="M897 0l-369 616h-106v-479q41 -3 80.5 -9.5t72.5 -16.5v-111h-518v111q43 9 88.5 16t90.5 10v1108q-44 3 -89 10t-90 17v110h160q12 0 33 0.5t65.5 2t70.5 2.5t63 2t75.5 1.5t73.5 0.5q113 0 201.5 -20t152.5 -63.5t98.5 -114.5t34.5 -171q0 -79 -27 -143.5t-76.5 -112.5 t-116.5 -78t-148 -43q20 -24 40 -53t50 -74l235 -379q43 -6 81.5 -12t76.5 -14v-113h-303zM889 1004q0 64 -20 109.5t-59.5 73.5t-100 41t-144.5 13q-16 0 -34.5 -0.5t-38.5 -1t-38 -2t-32 -2.5v-477h158q75 0 133 17t97 49t59 77.5t20 102.5z" />
<glyph unicode="S" horiz-adv-x="1049" d="M946 379q0 -90 -33 -164t-96.5 -127t-154 -80.5t-199.5 -27.5q-82 0 -177 10t-165 26v330h135q10 -53 16.5 -98t10.5 -86q35 -10 90.5 -18.5t109.5 -8.5q61 0 109 13.5t84 42t55 71t19 98.5q0 60 -30.5 105t-78.5 76t-105 57t-114.5 51t-112.5 57t-101 76t-72.5 107 t-26.5 140q0 80 29.5 148.5t93 120.5t153.5 78.5t201 26.5q70 0 142.5 -8t139.5 -21v-317h-131q-10 51 -15.5 96.5t-8.5 83.5q-26 5 -71 9.5t-77 4.5q-64 0 -114.5 -14.5t-84.5 -43t-48.5 -64.5t-14.5 -81q0 -56 28 -98.5t71.5 -71.5t98.5 -54.5t115 -51.5t115.5 -56.5 t105 -75t79.5 -109.5t30 -152z" />
<glyph unicode="T" horiz-adv-x="1149" d="M981 1038q-10 60 -18 106t-11 85h-284v-1092q47 -3 92.5 -10t85.5 -18v-109h-544v109q41 11 86.5 18t92.5 10v1092h-284q-3 -39 -10.5 -85t-18.5 -106h-130v344h1073v-344h-130z" />
<glyph unicode="U" horiz-adv-x="1464" d="M1409 1272q-67 -18 -141 -27v-717q0 -133 -35 -235.5t-104.5 -172t-173 -105t-238.5 -35.5q-105 0 -186 18.5t-138.5 52.5t-95 79.5t-59 99.5t-30.5 113.5t-9 125.5v776q-81 10 -142 27v110h492v-110q-34 -10 -76 -17t-86 -10v-762q0 -78 15.5 -140.5t53 -109.5 t105 -73.5t168.5 -26.5q92 0 158 21t109.5 67t65 119t21.5 178v727q-45 3 -86.5 9.5t-76.5 17.5v110h489v-110z" />
<glyph unicode="V" horiz-adv-x="1386" d="M1372 1272q-26 -8 -61.5 -15t-61.5 -8l-456 -1249h-211l-445 1249q-27 1 -61.5 8t-63.5 15v110h496v-110q-45 -9 -86 -15.5t-78 -9.5l256 -753q23 -63 47.5 -139t44.5 -148h2q9 33 19.5 68.5t20.5 66t27 83.5t27 83l267 739q-38 3 -76.5 9t-85.5 16v110h479v-110z" />
<glyph unicode="W" horiz-adv-x="2001" d="M1987 1272q-27 -8 -61.5 -15t-61.5 -8l-301 -1249h-244l-268 899q-18 63 -32.5 123.5t-23.5 116.5h-2q-9 -62 -21.5 -123t-27.5 -119l-258 -897h-244l-305 1249q-26 1 -60 8t-63 15v110h482v-110q-49 -10 -87 -16t-75 -9l192 -784q8 -34 15.5 -68.5t14 -68t12.5 -67 t12 -71.5h2q7 40 13.5 72t13.5 65.5t15 66t17 61.5l272 929h183l288 -944q16 -53 30.5 -115.5t29.5 -134.5h2q8 62 17 119.5t20 112.5l192 827q-35 3 -71.5 9t-85.5 16v110h469v-110z" />
<glyph unicode="X" horiz-adv-x="1372" d="M821 0v111q34 9 72.5 15t75.5 9l-295 449l-289 -449q35 -3 74 -9t73 -15v-111h-509v111q34 8 71.5 14t73.5 8l401 569l-383 547q-38 3 -72 9t-67 14v110h528v-111q-34 -9 -72.5 -14.5t-78.5 -9.5l270 -411l269 411q-38 4 -76 9.5t-72 14.5v111h510v-110 q-34 -8 -72.5 -14.5t-74.5 -10.5l-377 -532l412 -582q39 -3 73.5 -8.5t65.5 -13.5v-111h-531z" />
<glyph unicode="Y" horiz-adv-x="1219" d="M1205 1271q-26 -7 -61 -13t-63 -10l-382 -759v-352q47 -3 92.5 -10t85.5 -18v-109h-544v109q41 11 86.5 18t91.5 10v351l-374 760q-27 4 -62.5 10t-61.5 13v111h484v-111q-35 -9 -73 -15t-77 -9l165 -362q13 -28 26 -57l26 -58t25.5 -58t23.5 -56h2q11 29 24 60t27.5 62 t28.5 61.5t27 58.5l163 349q-41 3 -79 9t-73 15v111h472v-111v0z" />
<glyph unicode="Z" horiz-adv-x="1110" d="M90 0v139l600 922q48 72 67 101t46 65q-58 -2 -127.5 -3t-151.5 -1h-256q-3 -34 -9.5 -76t-16.5 -100h-133v335h909v-143l-633 -958q-18 -28 -40 -61.5t-42 -59.5q15 1 44 2t67.5 1.5t82 0.5h115.5h254q5 44 12 89.5t17 92.5h129v-346h-934z" />
<glyph unicode="[" horiz-adv-x="659" d="M176 -407v1987h405v-143h-233v-1699h233v-145h-405z" />
<glyph unicode="\" horiz-adv-x="905" d="M739 -330l-716 1880h178l717 -1880h-179z" />
<glyph unicode="]" horiz-adv-x="659" d="M78 -407v145h233v1699h-233v143h405v-1987h-405z" />
<glyph unicode="^" d="M836 702l-295 543l-283 -543l-127 68l338 612h149l353 -610z" />
<glyph unicode="_" d="M0 -510v146h1126v-146h-1126z" />
<glyph unicode="`" horiz-adv-x="717" d="M457 1165l-287 262l113 111l264 -285z" />
<glyph unicode="a" horiz-adv-x="1094" d="M1055 14q-36 -5 -78 -8t-87.5 -5t-91.5 -3t-87 1q0 55 2 107.5t9 95.5l-3 1q-18 -46 -50.5 -87t-77.5 -71t-98.5 -46.5t-115.5 -16.5q-63 0 -117 18.5t-91.5 53.5t-58 86t-20.5 116q0 79 39 142.5t117.5 108t194.5 68t259 23.5v71q0 55 -10.5 97.5t-35.5 72t-66 44 t-101 14.5q-46 0 -96.5 -7.5t-93.5 -21.5q-3 -38 -10 -81t-15 -85h-114v279q76 25 167 40t183 15q110 0 183 -24t116.5 -70.5t61.5 -106.5t18 -145v-545q36 -6 82.5 -11.5t85.5 -8.5v-111zM700 471q-119 0 -202 -13.5t-134.5 -39.5t-72.5 -61.5t-21 -77.5q0 -33 9.5 -60.5 t30.5 -48.5t51.5 -32t65.5 -11q62 0 112 27.5t86 73t55.5 103.5t19.5 118v22z" />
<glyph unicode="b" horiz-adv-x="1145" d="M1057 557q0 -134 -37 -240t-105.5 -179.5t-167.5 -113t-222 -39.5q-53 0 -99 2.5t-88 7.5t-82 13t-80 19v1324q-37 6 -84 11.5t-92 8.5v109q39 5 83 8.5t90.5 5.5t94 2.5t91.5 -0.5v-495q0 -22 -1 -47t-3.5 -50.5t-5.5 -49.5t-7 -43l4 -2q20 53 53.5 95.5t77 71.5 t95.5 44.5t110 15.5q90 0 160 -31t117.5 -91.5t72.5 -150t25 -206.5zM864 540q0 82 -13.5 146.5t-41.5 108t-70.5 67t-100.5 23.5q-46 0 -84.5 -17t-69.5 -45.5t-54.5 -67t-39 -82t-23.5 -90t-8 -90.5v-337q40 -13 84 -18.5t98 -5.5q72 0 131.5 23t102 72t66 126t23.5 187z " />
<glyph unicode="c" horiz-adv-x="913" d="M858 41q-27 -11 -63.5 -22t-76.5 -18.5t-83 -12t-89 -4.5q-65 0 -123.5 10.5t-109.5 34t-93 61t-72 92t-47 127t-17 170.5q0 118 31 221t92.5 177t157.5 115.5t223 41.5q66 0 131 -10t117 -27v-301h-115q-10 43 -17 88t-10 82q-27 7 -61 12t-71 5q-69 0 -122 -27.5 t-89.5 -77t-55.5 -119t-19 -150.5t14.5 -147.5t48 -115t92.5 -77t149 -28.5q61 0 128.5 14t120.5 38l29 -152v0z" />
<glyph unicode="d" horiz-adv-x="1178" d="M1139 15q-37 -5 -80 -8.5t-89.5 -5.5t-93 -3t-88.5 1q0 22 1 49t3 55t5 55t8 49l-4 2q-21 -52 -54.5 -94t-77.5 -71.5t-97 -46t-113 -16.5q-94 0 -164.5 33t-117 95.5t-69.5 151.5t-23 199q0 134 36.5 240.5t105 180t166 112.5t218.5 39q42 0 83.5 -2.5t88.5 -7.5v329 q-37 6 -85 11.5t-93 8.5v109q38 5 83 8.5t92 5.5t95 2.5t92 -0.5v-1352q37 -6 83.5 -11.5t88.5 -8.5v-109zM783 864q-47 12 -92.5 17t-89.5 5q-72 0 -131.5 -23t-101.5 -72t-65.5 -126.5t-23.5 -186.5q0 -83 13.5 -147t41 -108t69.5 -67t101 -23q46 0 84.5 16.5t69.5 45.5 t54.5 68t39 82.5t23.5 90t8 91.5v337z" />
<glyph unicode="e" horiz-adv-x="1040" d="M946 616q0 -22 -1 -43t-2 -37.5t-2 -26t-1 -13.5h-666q-2 -94 17 -163t58 -114t98.5 -67.5t140.5 -22.5q75 0 150.5 13.5t150.5 41.5l24 -141q-84 -30 -172 -45.5t-176 -15.5q-118 0 -207.5 31.5t-150.5 95.5t-92 162.5t-31 232.5q0 114 31 211t90.5 169.5t145.5 112 t192 39.5q103 0 180 -32.5t126.5 -90t73 -133t23.5 -164.5zM758 625q1 65 -14 116t-44.5 86t-72.5 52.5t-97 17.5q-50 0 -93 -18t-76.5 -52.5t-55 -85.5t-29.5 -116h482z" />
<glyph unicode="f" horiz-adv-x="737" d="M793 1335q-37 12 -76 17.5t-78 5.5q-108 0 -159.5 -63.5t-51.5 -198.5v-78h285v-144h-285v-737q44 -3 90.5 -10t87.5 -16v-111h-540v111q42 9 87.5 16t90.5 10v737h-224v144h224v76q0 104 26 182t76 129t123.5 76.5t169.5 25.5q42 0 83.5 -4.5t86.5 -13.5z" />
<glyph unicode="g" horiz-adv-x="1094" d="M874 872q28 -40 41 -85t13 -95q0 -81 -26.5 -150t-79 -120t-130 -80t-180.5 -29q-29 0 -56.5 2t-52.5 7q-27 -19 -41 -40.5t-14 -41.5q0 -17 7.5 -30.5t26 -23t49 -15.5t75.5 -7l164 -6q184 -6 275 -84.5t91 -214.5q0 -83 -37 -153t-106 -121t-166.5 -80t-218.5 -29 q-101 0 -181 20t-136.5 58t-86.5 94.5t-30 128.5q0 44 13.5 84t37.5 75t55.5 64.5t67.5 52.5q-92 49 -92 148q0 51 29 94.5t83 77.5q-77 49 -113 124t-36 160q0 80 26.5 149t78.5 120t130 80.5t181 29.5q77 0 145 -18h344v-146h-150zM449 10h-27.5t-26.5 2 q-65 -42 -99 -94.5t-34 -107.5q0 -46 19.5 -81.5t55 -60t86.5 -37t114 -12.5q78 0 136.5 16t98 44.5t59 68t19.5 86.5q0 37 -12.5 67.5t-40 53t-71.5 35t-108 14.5zM750 674q0 49 -15 90.5t-44 71.5t-71 46.5t-96 16.5t-96 -16.5t-71 -46.5t-44.5 -71.5t-15.5 -90.5 t15.5 -90.5t44.5 -71.5t71 -46.5t96 -16.5q53 0 95 16.5t71 46.5t44.5 71.5t15.5 90.5z" />
<glyph unicode="h" horiz-adv-x="1251" d="M860 0v655q0 56 -9 98t-29 71.5t-53.5 45t-82.5 15.5q-62 0 -115.5 -30t-93 -84t-61 -127t-21.5 -157v-350q54 -4 98 -12.5t62 -13.5v-111h-514v111q40 9 84.5 16t87.5 10v1213q-37 6 -85 11.5t-91 8.5v111q38 5 82.5 8.5t92 5.5t94.5 2t89 -2v-483q0 -26 -1 -53 t-2.5 -54t-5 -51.5t-7.5 -44.5l4 -2q22 52 56.5 94.5t79.5 72.5t100 46t118 16q85 0 144.5 -24.5t94.5 -68.5t50.5 -102.5t15.5 -129.5v-574q43 -3 86 -9.5t84 -16.5v-111h-352z" />
<glyph unicode="i" horiz-adv-x="627" d="M447 1340q0 -25 -9.5 -46.5t-26 -38t-39 -26t-47.5 -9.5t-47.5 9.5t-39 25.5t-26.5 38t-10 47t10 47t26.5 38t39 25.5t47.5 9.5t47.5 -9t39 -25t26 -38t9.5 -48zM59 0v111q40 9 83.5 16t89.5 10v737q-37 6 -82.5 11.5t-90.5 8.5v109q39 5 81 8.5t89 5.5t95 2.5t92 -0.5 v-882q45 -3 89.5 -10t80.5 -16v-111h-527z" />
<glyph unicode="j" horiz-adv-x="567" d="M424 1339q0 -24 -9 -45.5t-26 -38t-39 -25.5t-47 -9t-47.5 9t-39.5 25t-26.5 37.5t-9.5 46.5t9.5 47t26.5 39t39.5 26t47.5 9t47 -9t39 -26t26 -39t9 -47zM393 -113q0 -105 -18.5 -180.5t-59.5 -126t-109 -75.5t-167 -25q-32 0 -70.5 4t-66.5 10l14 162q30 -9 64.5 -15 t62.5 -6q50 0 81.5 11.5t50.5 38t27.5 71.5t8.5 115v1001q-36 7 -83 12.5t-89 8.5v111q39 5 82.5 8.5t89.5 5.5t93 2t89 -2v-1131z" />
<glyph unicode="k" horiz-adv-x="1128" d="M788 0l-393 532v-395q44 -3 84 -9.5t72 -16.5v-111h-510v111q40 9 84.5 16t87.5 10v1213q-37 6 -85 11.5t-91 8.5v111q38 5 82.5 8.5t92 5.5t94.5 2t89 -2v-948l305 336q-41 5 -73 11.5t-54 14.5v109h484v-111q-29 -8 -65.5 -14.5t-80.5 -11.5l-307 -328l320 -414 q36 -3 79.5 -10t86.5 -16v-113h-302z" />
<glyph unicode="l" horiz-adv-x="606" d="M41 0v111q40 9 84.5 16t87.5 10v1213q-37 6 -85 11.5t-91 8.5v111q39 5 83.5 8.5t91.5 5.5t94 2t89 -2v-1358q44 -3 87.5 -9.5t84.5 -16.5v-111h-526z" />
<glyph unicode="m" horiz-adv-x="1890" d="M1501 0v655q0 55 -8 97t-26.5 71.5t-51 45.5t-80.5 16q-55 0 -106.5 -28t-91.5 -81.5t-63 -128t-23 -164.5v-346q54 -4 96.5 -12.5t60.5 -13.5v-111h-342v657q0 52 -6.5 92t-24 70.5t-51 48t-84.5 17.5q-58 0 -109.5 -29.5t-91 -84t-61.5 -128.5t-22 -160v-346 q55 -4 98 -12.5t61 -13.5v-111h-516v111q20 5 67.5 13.5t104.5 12.5v735q-37 7 -83 12.5t-89 8.5v111q40 5 84 8.5t90.5 5.5t92 2t86.5 -2q0 -24 -1 -52t-3 -57t-5 -56.5t-8 -49.5l4 -2q22 53 57.5 96.5t81 74.5t100 47.5t114.5 16.5q52 0 93.5 -11t72 -29.5t51.5 -42 t34.5 -49.5t20.5 -51t10 -48q17 40 46.5 79.5t73 74t102 56t128.5 21.5q74 0 130.5 -21t94 -62t56 -103t18.5 -143v-570q59 -4 105 -12.5t65 -13.5v-111h-352z" />
<glyph unicode="n" horiz-adv-x="1270" d="M879 0v655q0 56 -8.5 98t-28 71.5t-53 45t-82.5 15.5q-61 0 -114.5 -29.5t-93 -84t-61.5 -127.5t-22 -157v-350q55 -4 98 -12.5t61 -13.5v-111h-516v111q20 5 67.5 13.5t104.5 12.5v735q-37 7 -83 12.5t-89 8.5v111q40 5 84 8.5t90.5 5.5t92 2t86.5 -2q0 -24 -1 -52 t-3 -57t-5 -56.5t-8 -49.5l4 -2q23 53 57.5 96.5t80 74.5t101 47.5t118.5 16.5q85 0 145 -24.5t95.5 -69t51 -103.5t15.5 -132v-570q58 -4 103.5 -12.5t64.5 -13.5v-111h-352z" />
<glyph unicode="o" horiz-adv-x="1120" d="M1036 524q0 -115 -32 -214t-95 -172.5t-155.5 -114.5t-210.5 -41q-106 0 -190.5 31t-144.5 95t-92 160.5t-32 225.5q0 115 32 214t95 172.5t156 114.5t211 41q105 0 189.5 -31.5t144.5 -95t92 -160.5t32 -225zM846 510q0 88 -19.5 158t-56.5 118t-90 72.5t-119 24.5 q-65 0 -118 -24t-90.5 -71t-58 -118t-20.5 -162q0 -88 19.5 -157.5t56 -117t89 -72t118.5 -24.5q63 0 115.5 22.5t91.5 68.5t60.5 117t21.5 165z" />
<glyph unicode="p" horiz-adv-x="1182" d="M1093 558q0 -136 -35.5 -242.5t-103 -179t-165 -110.5t-221.5 -38q-23 0 -44.5 0.5t-42.5 1.5t-41.5 3t-43.5 6v-367q46 -3 92 -10t86 -17v-110h-534v110q40 10 82.5 17t89.5 10v1242q-37 6 -82.5 11.5t-89.5 8.5v109q37 5 81.5 8.5t90.5 5.5t92 2.5t87 -0.5 q0 -23 -1 -49.5t-3 -54.5t-5 -55t-7 -49l4 -2q21 53 54.5 95t77 71.5t96 45t112.5 15.5q90 0 159.5 -31t117.5 -91.5t72.5 -150t24.5 -205.5zM899 540q0 82 -13.5 146.5t-41 108.5t-70 67t-99.5 23q-46 0 -85 -16.5t-70 -45.5t-54.5 -68t-38.5 -82.5t-23 -90t-8 -91.5v-335 q41 -13 85 -18.5t96 -5.5q72 0 131.5 23t102 72t65.5 126t23 187z" />
<glyph unicode="q" horiz-adv-x="1143" d="M608 -506v111q43 9 88.5 16t89.5 10v392q0 21 0.5 42t2 45t4.5 48.5t8 46.5l-4 2q-21 -52 -54 -93.5t-76.5 -71t-94.5 -45t-107 -15.5q-90 0 -160 30t-118.5 89.5t-73.5 149.5t-25 208q0 133 36.5 240t106 182t169.5 114t225 39q45 0 89.5 -2t87.5 -6t84.5 -9t82.5 -11 v-1375q44 -3 89 -10t83 -16v-111h-533zM786 866q-45 11 -89.5 16t-92.5 5q-74 0 -132.5 -23.5t-101 -73t-65 -127.5t-22.5 -186q0 -83 13.5 -147t40.5 -108t69.5 -66.5t99.5 -22.5q45 0 83.5 16t70 45.5t55 67.5t39.5 82.5t24 91.5t8 92v338z" />
<glyph unicode="r" horiz-adv-x="803" d="M762 854q-95 15 -157 -7t-104 -78.5t-63.5 -147.5t-21.5 -211v-273q43 -3 90 -10t84 -16v-111h-531v111q41 9 85.5 16t86.5 10v735q-32 6 -79.5 12t-92.5 9v111q39 5 83.5 8.5t91.5 5.5t92 2t86 -2q0 -47 -6 -114t-17 -130l2 -2q16 55 45.5 110t73.5 93t109.5 53.5 t148.5 5.5z" />
<glyph unicode="s" horiz-adv-x="899" d="M803 279q0 -67 -26.5 -122t-79 -94t-128.5 -60t-174 -21q-54 0 -105 3.5t-89.5 8.5t-60 8.5t-29.5 5.5v289h112q5 -18 13.5 -61.5t13.5 -96.5q18 -4 62 -11t100 -7q48 0 85.5 9t63.5 27t39.5 45t13.5 62q0 40 -21 69.5t-55.5 50.5t-86 42t-101.5 41t-93.5 43.5t-79 57 t-56.5 81t-21 109.5q0 63 26.5 114.5t78.5 88t127.5 56t171.5 19.5q76 0 143.5 -9t97.5 -15v-281h-112q-4 19 -12 62.5t-13 97.5q-14 3 -48 7.5t-75 4.5q-95 0 -146.5 -33.5t-51.5 -97.5q0 -39 21 -68t55.5 -50t85.5 -41.5t102 -40.5t94.5 -43.5t79.5 -57.5t57 -81.5 t21 -110.5z" />
<glyph unicode="t" horiz-adv-x="760" d="M692 6q-43 -10 -98.5 -16t-106.5 -6q-79 0 -131 17t-83 53t-44.5 93.5t-13.5 141.5v585h-209v144h209v330l184 51v-381h285v-144h-285v-520q0 -64 7 -105t23.5 -64.5t44 -33.5t71.5 -10q35 0 68 4.5t61 12.5z" />
<glyph unicode="u" horiz-adv-x="1251" d="M1212 14q-37 -5 -80 -8.5t-89.5 -5.5t-93 -2t-87.5 2q0 23 1 50.5t3.5 57t5.5 57t7 50.5h-5q-22 -53 -56.5 -95.5t-80.5 -73.5t-102 -47.5t-121 -16.5q-84 0 -143 24.5t-94.5 68.5t-51.5 102.5t-16 129.5v565q-37 7 -82.5 12.5t-87.5 8.5v111q38 5 81 8.5t89.5 5.5 t93.5 2t90 -2v-656q0 -56 8.5 -98t28.5 -71t53.5 -44.5t83.5 -15.5q62 0 115 30t92 84t60.5 127t21.5 156v344q-38 6 -80.5 11t-81.5 8v111q38 5 81 8.5t88 5.5t90.5 2t86.5 -2v-873q38 -6 85 -11.5t87 -8.5v-111z" />
<glyph unicode="v" horiz-adv-x="1151" d="M1139 907q-28 -7 -62 -13t-71 -11l-314 -883h-235l-312 883q-37 5 -71.5 11t-61.5 13v111h477v-111q-31 -9 -68.5 -15t-76.5 -9l162 -469q21 -63 41 -127.5t35 -118.5h2q22 76 39 133t36 113l154 469q-38 3 -75 9t-68 15v111h469v-111z" />
<glyph unicode="w" horiz-adv-x="1755" d="M1743 907q-30 -9 -63.5 -15t-67.5 -9l-279 -883h-211l-200 600q-16 45 -30 94.5t-28 108.5h-2q-15 -60 -31.5 -116.5t-42.5 -139.5l-170 -547h-212l-263 883q-34 3 -67.5 9t-63.5 15v111h469v-111q-32 -9 -67.5 -15t-73.5 -9l125 -455q10 -38 32 -117t31 -114h2 q14 63 31.5 126t38.5 123l182 572h191l184 -572q15 -50 25.5 -83.5t18.5 -61.5t15 -53t13 -51h2q6 25 13 49.5t16 55t17.5 60.5t16.5 58l133 463q-37 3 -73.5 9t-67.5 15v111h457v-111z" />
<glyph unicode="x" horiz-adv-x="1112" d="M772 0l-225 383l-223 -383h-306v113q61 12 99.5 18.5t75.5 9.5l249 369l-235 367q-37 3 -77.5 10t-94.5 18v113h311l215 -373l221 373h297v-113q-59 -12 -98 -18.5t-76 -9.5l-229 -359l246 -377q36 -3 71.5 -9t100.5 -19v-113h-322z" />
<glyph unicode="y" horiz-adv-x="1149" d="M1135 907q-29 -9 -62 -15t-67 -9l-361 -992q-42 -119 -84.5 -197.5t-93 -126t-114 -68.5t-150.5 -21q-15 0 -32.5 1t-36.5 2.5t-37 3.5t-34 5l15 166q39 -11 70.5 -17t64.5 -6q43 0 76 12t62 40.5t55.5 77t54.5 122.5l43 115h-47l-314 883q-35 3 -69 9t-62 15v111h467 v-111q-29 -9 -62.5 -15t-70.5 -9l154 -441q37 -116 50 -157.5t28 -96.5h4q6 25 15.5 58.5t21.5 72t25 77t32 96.5l137 391q-37 3 -70.5 9t-62.5 15v111h455v-111z" />
<glyph unicode="z" horiz-adv-x="924" d="M88 0v134l523 742q-23 -1 -51.5 -1.5t-62 -1t-69 -1t-70.5 -0.5h-119q-4 -38 -10 -74t-15 -76h-114v296h715v-133l-516 -735q21 1 51 1.5t64.5 1t70.5 1t67 0.5h134q5 36 10.5 75t15.5 80h114v-309h-738z" />
<glyph unicode="{" horiz-adv-x="698" d="M596 -408q-87 0 -148 25t-99 74.5t-55.5 124t-17.5 176.5v358q0 61 -12 102.5t-37.5 67.5t-66 39t-101.5 16v146q63 3 103.5 15t65.5 36.5t36.5 65.5t11.5 104v240q0 92 16.5 164t54 124.5t99 80.5t150.5 28h37v-141q-54 0 -89.5 -12.5t-57 -40.5t-31 -76t-9.5 -121v-238 q0 -68 -12 -120t-36 -89t-59.5 -59t-82.5 -31v-4q46 -7 81.5 -29.5t59.5 -61t36.5 -92t12.5 -120.5v-356q0 -74 9.5 -121.5t31 -75.5t57 -40.5t89.5 -12.5v-146h-37z" />
<glyph unicode="|" horiz-adv-x="584" d="M217 -506v2048h145v-2048h-145z" />
<glyph unicode="}" horiz-adv-x="692" d="M651 575q-60 -3 -101 -16t-66.5 -39t-37.5 -67.5t-12 -102.5v-358q0 -102 -17.5 -176.5t-55 -124t-98.5 -74.5t-148 -25h-37v146q54 0 89.5 12t56.5 40.5t30.5 76t9.5 121.5v356q0 67 12.5 120.5t37 92t60 61t81.5 29.5v4q-47 6 -83 28t-60 58.5t-36 88t-12 116.5v246 q0 73 -9.5 121t-30.5 76t-56.5 40.5t-89.5 12.5v141h37q88 0 150 -28t99 -80.5t53.5 -124.5t16.5 -164v-232q0 -66 11.5 -108.5t36 -68t65.5 -37.5t104 -15v-146z" />
<glyph unicode="~" d="M1018 1156q0 -67 -19 -122.5t-54.5 -94.5t-86 -61t-113.5 -22q-57 0 -96.5 16.5t-69 41.5t-52 54t-45.5 54.5t-48.5 42t-61.5 16.5q-32 0 -55 -13t-38 -37t-22.5 -57.5t-7.5 -74.5h-138v20q0 67 19 122.5t54.5 95t86 61.5t114.5 22q56 0 96 -16.5t69.5 -42t52 -55 t45 -54.5t48 -41.5t61.5 -16.5q32 0 55 13t38 37t22.5 58t8.5 74h137v-20v0z" />
<glyph unicode="&#xa1;" horiz-adv-x="655" d="M432 915q0 -25 -9 -47t-26 -38.5t-39.5 -25.5t-48.5 -9q-25 0 -47.5 9t-39.5 25.5t-26.5 38.5t-9.5 47t9.5 47t26.5 39t39.5 26t47.5 9q26 0 48.5 -9t39.5 -26t26 -39t9 -47zM199 -422l30 1096h156l33 -1096h-219z" />
<glyph unicode="&#xa2;" horiz-adv-x="967" d="M629 1203q55 0 115.5 -10t113.5 -24v-299h-117q-8 47 -14.5 87.5t-9.5 82.5q-63 17 -133 17q-69 0 -125.5 -23.5t-96.5 -68t-60.5 -109.5t-20.5 -146q0 -69 15.5 -129.5t52.5 -108t98.5 -73.5t148.5 -26q66 0 133 14.5t115 36.5l26 -151q-55 -21 -115 -35.5t-126 -18.5 v-270h-144v270q-196 18 -296.5 141t-100.5 340q0 99 27.5 183.5t78.5 149.5t124 107t167 56v231h144v-224z" />
<glyph unicode="&#xa3;" horiz-adv-x="1059" d="M90 0v127q58 42 98 82.5t65 82.5t35.5 88.5t10.5 100.5q0 75 -16 168h-213v137h188q-6 30 -12 63.5t-10.5 66.5t-7.5 63.5t-3 54.5q0 183 100.5 276t292.5 93q120 0 236 -25v-303h-113q-20 91 -26 168q-60 10 -109 10q-58 0 -96 -15.5t-60 -43t-31 -65t-9 -80.5 q0 -53 9 -119t23 -144h344v-137h-321q16 -84 16 -153q0 -56 -9 -101.5t-30 -86t-54.5 -78.5t-82.5 -78q86 8 168 8h320q5 43 13 88t17 90h119v-338h-852z" />
<glyph unicode="&#xa4;" d="M891 122l-164 222q-40 -24 -85.5 -36.5t-94.5 -12.5q-41 0 -75.5 7t-64.5 19l-147 -198l-136 100l148 183q-38 47 -59.5 112.5t-21.5 154.5q0 79 23.5 143.5t68.5 112.5l-159 198l134 98l152 -206q37 19 79.5 27.5t87.5 8.5q40 0 82.5 -7t81.5 -28l154 207l131 -101 l-158 -198q30 -40 48.5 -99.5t18.5 -142.5q0 -74 -21.5 -137t-60.5 -111l173 -214zM770 684q0 51 -12 93.5t-37 74t-65.5 49t-97.5 17.5q-42 0 -78.5 -16.5t-64 -47t-43 -75t-15.5 -100.5q0 -51 11 -96t35.5 -78.5t64.5 -52.5t98 -19q40 0 77 16.5t65 48.5t45 79t17 107z " />
<glyph unicode="&#xa5;" horiz-adv-x="1221" d="M1204 1272q-29 -8 -63.5 -15t-61.5 -8l-325 -633h290v-114h-344v-142h344v-116h-344v-115q45 -3 91 -10t88 -17v-102h-543v102q40 10 86.5 17t91.5 10v115h-342v116h342v142h-342v114h289l-318 633q-26 1 -61 8t-64 15v110h480v-110q-33 -9 -73 -15.5t-79 -9.5l162 -346 q20 -42 52.5 -108.5t51.5 -112.5h2q22 51 49 105.5t68 134.5l156 327q-39 3 -77.5 9.5t-74.5 15.5v110h469v-110z" />
<glyph unicode="&#xa6;" horiz-adv-x="584" d="M217 788v754h145v-754h-145zM217 -506v774h145v-774h-145z" />
<glyph unicode="&#xa7;" horiz-adv-x="1065" d="M888 481q0 -42 -10.5 -82t-31 -76.5t-51 -69.5t-68.5 -61q36 -48 58 -99.5t22 -114.5q0 -61 -23 -118t-71 -100.5t-121.5 -70t-172.5 -26.5q-17 0 -37 1t-41 4t-42 7t-42 9l15 157q23 -8 42.5 -12.5t38.5 -7.5t36.5 -4.5t36.5 -1.5q45 0 80 11.5t58.5 32.5t35.5 50t12 63 q0 41 -20 79t-52.5 76.5t-74 77.5t-85 80.5t-85.5 86.5t-74.5 95t-52.5 106.5t-20 120.5q0 42 10.5 82t31 76t50 69.5t69.5 63.5q-37 49 -58 100t-21 112q0 63 21.5 119.5t66.5 98.5t114.5 67t164.5 25q36 0 78 -4t77 -13l-14 -155q-38 12 -71 16.5t-71 4.5q-86 0 -129 -39 t-43 -109q0 -39 20 -78t52.5 -77.5t74.5 -78t85.5 -82t85 -88t74 -96t52.5 -107t20 -120.5zM715 456q0 59 -27 112t-71 104t-98.5 102.5t-108.5 108.5q-47 -34 -67.5 -78t-20.5 -87q0 -57 25.5 -108t68 -101.5t98 -103.5t114.5 -112q46 33 66.5 76.5t20.5 86.5z" />
<glyph unicode="&#xa8;" horiz-adv-x="952" d="M784 1339q0 -22 -8.5 -42.5t-23.5 -35.5t-35.5 -23.5t-42.5 -8.5q-23 0 -43 8.5t-35.5 23.5t-24 35.5t-8.5 42.5q0 23 8.5 43t24 35.5t35.5 24t43 8.5q22 0 42.5 -8.5t35.5 -24t23.5 -35.5t8.5 -43zM391 1339q0 -22 -8.5 -42.5t-23.5 -35.5t-35.5 -23.5t-42.5 -8.5 q-23 0 -43 8.5t-35.5 23.5t-24 35.5t-8.5 42.5q0 23 8.5 43t24 35.5t35.5 24t43 8.5q22 0 42.5 -8.5t35.5 -24t23.5 -35.5t8.5 -43z" />
<glyph unicode="&#xa9;" horiz-adv-x="1548" d="M1462 692q0 -96 -24 -184t-68.5 -164.5t-107 -139t-139 -107t-165 -69t-184.5 -24.5q-146 0 -271.5 53t-218 145.5t-145.5 217t-53 268.5q0 143 53 268t146 218t218.5 146.5t270.5 53.5q97 0 186 -24t165.5 -68t138.5 -106t106 -138t68 -163.5t24 -182.5zM1323 688 q0 115 -42.5 217t-116.5 178t-174 120t-216 44q-117 0 -217.5 -44t-174.5 -120t-116.5 -177.5t-42.5 -215.5q0 -115 42.5 -217t116.5 -178t174.5 -120t217.5 -44q116 0 216 44t174 120t116.5 177.5t42.5 215.5zM985 352q-103 -33 -207 -33q-94 0 -158.5 27t-105 74.5 t-58.5 113t-18 142.5q0 75 19.5 145t64 124t115.5 86t174 32q79 0 162 -16v-252h-96q-17 66 -23 135q-33 4 -66 4q-52 0 -88 -18.5t-58 -51.5t-32 -77.5t-10 -96.5q0 -117 47.5 -177t157.5 -60q79 0 164 28z" />
<glyph unicode="&#xaa;" horiz-adv-x="831" d="M788 717q-27 -4 -60.5 -7.5t-71 -5.5t-75.5 -2.5t-73 0.5q0 24 2.5 53.5t7.5 59.5l-4 2q-9 -24 -30 -47t-50 -41t-63.5 -28.5t-69.5 -10.5q-51 0 -89.5 12.5t-63.5 36t-37.5 55t-12.5 70.5q0 57 27.5 103.5t80 79t128 49.5t170.5 18v39q0 24 -5.5 45.5t-19.5 39.5 t-41.5 29t-68.5 11q-30 0 -59 -5t-54 -13q-3 -28 -7 -56.5t-9 -52.5h-97v205q19 7 45 14.5t58 14t67.5 10.5t71.5 4q77 0 131 -18t86 -50t46 -74.5t14 -95.5v-330q13 -2 29 -4.5t32.5 -4.5t31 -3.5t33.5 -3.5v-98zM123 432v146h606v-146h-606zM504 1010q-66 0 -114 -8 t-79 -23.5t-46 -38.5t-15 -53q0 -34 24 -55t66 -21q41 0 72 19t51.5 47.5t30.5 59.5t10 54v19z" />
<glyph unicode="&#xab;" horiz-adv-x="1042" d="M756 238l-250 362l254 369l135 -72l-207 -295l209 -291zM344 233l-233 367l235 373l139 -72l-190 -299l192 -295z" />
<glyph unicode="&#xac;" d="M825 211v321h-739v155h900v-476h-161z" />
<glyph unicode="&#xae;" horiz-adv-x="1151" d="M1026 1083q0 -93 -33.5 -175.5t-97.5 -145.5t-146 -95t-174 -32q-95 0 -177.5 34.5t-143.5 95t-95.5 142t-34.5 176.5q0 93 34.5 175t96.5 143t144.5 95t175.5 34q95 0 180 -32.5t143.5 -90.5t93 -138.5t34.5 -185.5zM903 1080q0 68 -22.5 129.5t-67.5 109t-107.5 72 t-130.5 24.5t-130 -24t-107 -70.5t-68 -106t-23 -128.5q0 -70 25 -131t69.5 -107t105 -72t128.5 -26t129 23.5t106.5 67t69 107.5t23.5 132zM649 852l-81 190h-31v-116q11 -2 24 -6.5t24 -10.5v-57h-197v56q13 7 28 11.5t27 6.5v319q-12 2 -27 6.5t-28 9.5v58h51 q19 0 39.5 0.5t39.5 0.5t36.5 0.5t33.5 0.5q42 0 73.5 -8.5t52.5 -24.5t31 -39.5t10 -53.5q0 -50 -26 -84t-72 -47q10 -15 19 -30t14 -26l36 -82q16 -3 29.5 -7.5t23.5 -9.5v-57h-130zM655 1184q0 29 -16.5 43.5t-55.5 14.5h-24t-22 -1v-126q8 0 15.5 -0.5t15.5 -0.5 q24 0 40.5 6t27 16t15 22.5t4.5 25.5z" />
<glyph unicode="&#xaf;" horiz-adv-x="856" d="M170 1262v139h516v-139h-516z" />
<glyph unicode="&#xb0;" horiz-adv-x="770" d="M653 1247q0 -61 -23.5 -110t-63 -83t-90 -51.5t-103.5 -17.5q-61 0 -110 18t-83 51.5t-52.5 81t-18.5 107.5q0 62 23.5 111t62.5 82.5t88.5 51t102.5 17.5q69 0 119.5 -20.5t83 -56t48.5 -82t16 -99.5zM510 1246q0 24 -7 48.5t-22 45t-39.5 33.5t-60.5 13 q-26 0 -49.5 -10.5t-41 -28.5t-27 -44t-9.5 -57q0 -67 34.5 -103.5t91.5 -36.5q28 0 52 10.5t41.5 28.5t27 44t9.5 57z" />
<glyph unicode="&#xb1;" d="M651 688v-403h-176v403h-389v152h389v401h176v-401h389v-152h-389zM90 0v154h946v-154h-946z" />
<glyph unicode="&#xb2;" horiz-adv-x="745" d="M72 745v134l219 196q49 42 82 77.5t52.5 66.5t27.5 59t8 57q0 66 -35 104t-107 38q-27 0 -51 -3.5t-45 -11.5q-5 -38 -11 -76t-13 -73h-111v260q56 19 125.5 31t138.5 12q73 0 129 -18.5t92.5 -52t55 -79.5t18.5 -102q0 -87 -42.5 -165t-135.5 -159l-162 -145 q61 3 141.5 3.5t231.5 0.5v-154h-608z" />
<glyph unicode="&#xb3;" horiz-adv-x="729" d="M662 999q0 -62 -28.5 -112t-79.5 -85t-120 -53t-149 -18q-54 0 -110.5 5.5t-102.5 15.5l20 135q47 -12 99.5 -19.5t103.5 -7.5q38 0 71 7.5t58 23.5t39 40.5t14 57.5q0 35 -17.5 61t-57 43t-105 21.5t-158.5 -6.5v123q164 0 237 33.5t73 111.5q0 51 -35.5 82t-102.5 31 q-21 0 -44 -2.5t-40 -7.5q-7 -44 -11 -70.5t-11 -50.5h-111v231q53 13 117.5 20t120.5 7q144 0 218.5 -57.5t74.5 -159.5q0 -76 -37 -127t-107 -76q41 -7 74.5 -24.5t57.5 -44t36.5 -59.5t12.5 -69z" />
<glyph unicode="&#xb4;" horiz-adv-x="717" d="M260 1165l-90 88l264 285l113 -108z" />
<glyph unicode="&#xb6;" horiz-adv-x="1174" d="M911 1239v-1436h-315v144h149v1435h312v-143h-146zM592 506q-114 0 -200.5 34.5t-143.5 95.5t-85 141t-28 171q0 94 32.5 173.5t93.5 138t145.5 90.5t185.5 32v-876z" />
<glyph unicode="&#xb7;" horiz-adv-x="479" d="M371 608q0 -26 -10 -50t-28 -42t-42 -28.5t-51 -10.5t-51 10.5t-42 28.5t-28 42t-10 50q0 27 10 51.5t28 43t42 28.5t51 10t51 -10t42 -28.5t28 -43t10 -51.5z" />
<glyph unicode="&#xb8;" horiz-adv-x="596" d="M362 -82q39 -51 53.5 -101t7.5 -99t-33.5 -98.5t-70.5 -100.5h-149q42 53 65 94.5t28.5 80.5t-8.5 79t-50 84z" />
<glyph unicode="&#xb9;" horiz-adv-x="645" d="M74 745v105q36 10 85 17.5t101 11.5v567l-182 -70l-29 137l240 89h151v-723q42 -6 85 -13.5t81 -15.5v-105h-532z" />
<glyph unicode="&#xba;" horiz-adv-x="872" d="M770 1061q0 -83 -25.5 -152t-73 -118t-111.5 -75t-140 -26q-72 0 -130 19.5t-100 61t-65 107.5t-23 158q0 81 25.5 148.5t72 116t109.5 74.5t137 26q65 0 122 -16.5t103 -55.5t72.5 -105.5t26.5 -162.5zM135 432v146h604v-146h-604zM604 1049q0 45 -8.5 84t-28 69.5 t-52 48t-77.5 17.5q-32 0 -62 -13t-54.5 -39.5t-39 -68t-14.5 -96.5q0 -44 8 -84t26.5 -72.5t51 -52t78.5 -19.5q37 0 68 14t54.5 42t36.5 71t13 99z" />
<glyph unicode="&#xbb;" horiz-adv-x="1042" d="M748 604l-191 295l143 74l232 -367l-236 -373l-137 72zM283 238l-136 71l207 295l-207 291l142 74l250 -363z" />
<glyph unicode="&#xbc;" horiz-adv-x="1753" d="M74 745v105q36 10 85 17.5t101 11.5v567l-182 -70l-29 137l240 89h151v-723q42 -6 85 -13.5t81 -15.5v-105h-532zM304 -289l-119 84l1308 1852l119 -84zM1567 -7v-100q37 -3 71.5 -9.5t65.5 -15.5v-84h-460v84q34 9 73.5 15.5t79.5 9.5v100h-388l-14 126l343 519h229 v-513h138v-132h-138zM1399 513l-255 -393q25 1 60.5 2t71.5 1.5t69 0.5h54v389z" />
<glyph unicode="&#xbd;" horiz-adv-x="1819" d="M74 745v105q36 10 85 17.5t101 11.5v567l-182 -70l-29 137l240 89h151v-723q42 -6 85 -13.5t81 -15.5v-105h-532zM304 -289l-119 84l1308 1852l119 -84zM1143 -217v134l219 196q49 42 82 77.5t52.5 66.5t27.5 59t8 57q0 66 -35 104t-107 38q-27 0 -51 -3.5t-45 -11.5 q-5 -38 -11 -76t-13 -73h-111v260q56 19 125.5 31t138.5 12q73 0 129 -18.5t92.5 -52t55 -79.5t18.5 -102q0 -87 -42.5 -165t-135.5 -159l-162 -145q61 3 141.5 3.5t231.5 0.5v-154h-608z" />
<glyph unicode="&#xbe;" horiz-adv-x="1733" d="M662 999q0 -62 -28.5 -112t-79.5 -85t-120 -53t-149 -18q-54 0 -110.5 5.5t-102.5 15.5l20 135q47 -12 99.5 -19.5t103.5 -7.5q38 0 71 7.5t58 23.5t39 40.5t14 57.5q0 35 -17.5 61t-57 43t-105 21.5t-158.5 -6.5v123q164 0 237 33.5t73 111.5q0 51 -35.5 82t-102.5 31 q-21 0 -44 -2.5t-40 -7.5q-7 -44 -11 -70.5t-11 -50.5h-111v231q53 13 117.5 20t120.5 7q144 0 218.5 -57.5t74.5 -159.5q0 -76 -37 -127t-107 -76q41 -7 74.5 -24.5t57.5 -44t36.5 -59.5t12.5 -69zM281 -289l-119 84l1308 1852l119 -84zM1545 -7v-100q37 -3 71.5 -9.5 t65.5 -15.5v-84h-460v84q34 9 73.5 15.5t79.5 9.5v100h-388l-14 126l343 519h229v-513h138v-132h-138zM1377 513l-255 -393q25 1 60.5 2t71.5 1.5t69 0.5h54v389z" />
<glyph unicode="&#xbf;" horiz-adv-x="911" d="M643 915q0 -25 -9 -47t-26 -38.5t-39.5 -25.5t-48.5 -9q-25 0 -47.5 9t-39.5 25.5t-26.5 38.5t-9.5 47t9.5 47t26.5 39t39.5 26t47.5 9q26 0 48.5 -9t39.5 -26t26 -39t9 -47zM717 -436q-139 4 -250.5 37.5t-188 88.5t-116 124.5t-39.5 146.5q0 60 16.5 109t44 87.5 t69.5 80t74.5 73.5t59.5 66t44.5 77t19 97.5t-18.5 122.5h180q23 -73 24.5 -133.5t-14 -109t-41.5 -87.5t-51 -65.5t-72.5 -72.5t-73 -77.5t-42 -68.5t-16.5 -80q0 -51 29 -94.5t83.5 -77t131.5 -53t171 -23.5z" />
<glyph unicode="&#xc0;" horiz-adv-x="1415" d="M907 0v111q42 9 82.5 15t77.5 9l-80 227h-577l-80 -227q37 -3 78.5 -9t83.5 -15v-111h-480v111q30 8 64.5 14.5t60.5 7.5l455 1249h229l457 -1249q26 -1 60.5 -7.5t64.5 -14.5v-111h-496zM764 1001q-19 56 -34.5 104t-29.5 97h-4q-10 -43 -22 -81t-37 -117l-178 -492h481 zM805 1485l-389 114l53 144l371 -152z" />
<glyph unicode="&#xc1;" horiz-adv-x="1415" d="M907 0v111q42 9 82.5 15t77.5 9l-80 227h-577l-80 -227q37 -3 78.5 -9t83.5 -15v-111h-480v111q30 8 64.5 14.5t60.5 7.5l455 1249h229l457 -1249q26 -1 60.5 -7.5t64.5 -14.5v-111h-496zM764 1001q-19 56 -34.5 104t-29.5 97h-4q-10 -43 -22 -81t-37 -117l-178 -492h481 zM596 1485l-35 106l373 152l51 -144z" />
<glyph unicode="&#xc2;" horiz-adv-x="1415" d="M907 0v111q42 9 82.5 15t77.5 9l-80 227h-577l-80 -227q37 -3 78.5 -9t83.5 -15v-111h-480v111q30 8 64.5 14.5t60.5 7.5l455 1249h229l457 -1249q26 -1 60.5 -7.5t64.5 -14.5v-111h-496zM764 1001q-19 56 -34.5 104t-29.5 97h-4q-10 -43 -22 -81t-37 -117l-178 -492h481 zM983 1483l-272 123l-277 -123l-49 102l328 170l323 -166z" />
<glyph unicode="&#xc3;" horiz-adv-x="1415" d="M907 0v111q42 9 82.5 15t77.5 9l-80 227h-577l-80 -227q37 -3 78.5 -9t83.5 -15v-111h-480v111q30 8 64.5 14.5t60.5 7.5l455 1249h229l457 -1249q26 -1 60.5 -7.5t64.5 -14.5v-111h-496zM764 1001q-19 56 -34.5 104t-29.5 97h-4q-10 -43 -22 -81t-37 -117l-178 -492h481 zM1067 1655q-42 -73 -100 -111.5t-129 -38.5q-47 0 -82.5 14t-76.5 42t-62 39.5t-50 11.5q-36 0 -68.5 -23.5t-60.5 -68.5l-94 67q40 73 99 112.5t130 39.5q47 0 82.5 -14t76.5 -42t62 -39.5t50 -11.5q36 0 68.5 22.5t60.5 67.5z" />
<glyph unicode="&#xc4;" horiz-adv-x="1415" d="M907 0v111q42 9 82.5 15t77.5 9l-80 227h-577l-80 -227q37 -3 78.5 -9t83.5 -15v-111h-480v111q30 8 64.5 14.5t60.5 7.5l455 1249h229l457 -1249q26 -1 60.5 -7.5t64.5 -14.5v-111h-496zM764 1001q-19 56 -34.5 104t-29.5 97h-4q-10 -43 -22 -81t-37 -117l-178 -492h481 zM1028 1602q0 -23 -8.5 -43t-23.5 -35.5t-35.5 -24t-42.5 -8.5q-23 0 -43 8.5t-35 23.5t-23 35.5t-8 43.5t8 43t23 35t35 23.5t43 8.5q22 0 42.5 -8.5t35.5 -23.5t23.5 -35.5t8.5 -42.5zM592 1602q0 -23 -8.5 -43t-23.5 -35.5t-35.5 -24t-42.5 -8.5q-23 0 -43 8.5t-35.5 24 t-24 35.5t-8.5 43q0 22 8.5 42.5t24 35.5t35.5 23.5t43 8.5q22 0 42.5 -8.5t35.5 -23.5t23.5 -35.5t8.5 -42.5z" />
<glyph unicode="&#xc5;" horiz-adv-x="1415" d="M907 0v111q42 9 82.5 15t77.5 9l-80 227h-577l-80 -227q37 -3 78.5 -9t83.5 -15v-111h-480v111q30 8 64.5 14.5t60.5 7.5l455 1249h229l457 -1249q26 -1 60.5 -7.5t64.5 -14.5v-111h-496zM764 1001q-19 56 -34.5 104t-29.5 97h-4q-10 -43 -22 -81t-37 -117l-178 -492h481 zM948 1681q0 -48 -17.5 -89.5t-50.5 -72t-79.5 -47t-102.5 -16.5q-53 0 -95.5 13.5t-72.5 40t-45.5 66.5t-15.5 93q0 47 17.5 88t50.5 71.5t79 47t101 16.5q54 0 96.5 -13t72.5 -39t46 -66t16 -93zM811 1673q0 29 -6.5 51t-20 36.5t-32.5 22t-43 7.5q-21 0 -40 -7 t-33.5 -21.5t-23 -36.5t-8.5 -50t7 -50t20 -36.5t33 -22t45 -7.5q21 0 39.5 7t32.5 21t22 36t8 50z" />
<glyph unicode="&#xc6;" horiz-adv-x="1696" d="M674 0v111q38 9 80.5 16t83.5 10v219h-465l-121 -221q18 -1 38 -3.5t40 -6t39 -7t37 -7.5v-111h-469v111q26 8 61 14.5t61 7.5l611 1112q-44 3 -89 10t-89 17v110h1054v-313h-131q-4 16 -13 68t-13 98h-365v-455h295q5 49 14.5 87.5t14.5 54.5h114v-420h-114 q-5 16 -14.5 54t-14.5 87h-295v-491h379q5 53 14.5 101t14.5 69h133v-322h-891zM838 1229h-9q-14 -31 -28 -61t-30.5 -64t-37 -74t-45.5 -86l-242 -438h392v723z" />
<glyph unicode="&#xc7;" horiz-adv-x="1212" d="M1130 61q-43 -17 -91.5 -31t-100 -25t-105 -17t-104.5 -6q-157 0 -277 46.5t-200.5 135.5t-121 215t-40.5 285t42 293t126.5 233.5t212 154t293.5 54.5q82 0 167 -11t169 -30v-338h-133q-5 24 -13.5 76.5t-13.5 109.5q-23 7 -79 17t-128 10q-109 0 -192 -41t-138 -114.5 t-82.5 -172t-27.5 -213.5q0 -127 28.5 -227t87 -170.5t147.5 -107.5t208 -37q42 0 85.5 5.5t86.5 15t83.5 22.5t78.5 28zM724 -82q39 -51 53.5 -101t7.5 -99t-33.5 -98.5t-70.5 -100.5h-149q42 53 65 94.5t28.5 80.5t-8.5 79t-50 84z" />
<glyph unicode="&#xc8;" horiz-adv-x="1087" d="M57 0v111q43 9 88.5 16t90.5 10v1108q-44 3 -89 10t-90 17v110h893v-313h-131q-4 21 -12.5 67.5t-13.5 98.5h-371v-455h295q6 49 15 87.5t13 54.5h115v-420h-115q-4 16 -13 54t-15 87h-295v-491h373q5 53 14 101t14 69h133v-322h-899zM625 1485l-389 114l53 144l371 -152 z" />
<glyph unicode="&#xc9;" horiz-adv-x="1087" d="M57 0v111q43 9 88.5 16t90.5 10v1108q-44 3 -89 10t-90 17v110h893v-313h-131q-4 21 -12.5 67.5t-13.5 98.5h-371v-455h295q6 49 15 87.5t13 54.5h115v-420h-115q-4 16 -13 54t-15 87h-295v-491h373q5 53 14 101t14 69h133v-322h-899zM449 1485l-35 106l373 152l51 -144z " />
<glyph unicode="&#xca;" horiz-adv-x="1087" d="M57 0v111q43 9 88.5 16t90.5 10v1108q-44 3 -89 10t-90 17v110h893v-313h-131q-4 21 -12.5 67.5t-13.5 98.5h-371v-455h295q6 49 15 87.5t13 54.5h115v-420h-115q-4 16 -13 54t-15 87h-295v-491h373q5 53 14 101t14 69h133v-322h-899zM827 1483l-272 123l-277 -123 l-49 102l328 170l323 -166z" />
<glyph unicode="&#xcb;" horiz-adv-x="1087" d="M57 0v111q43 9 88.5 16t90.5 10v1108q-44 3 -89 10t-90 17v110h893v-313h-131q-4 21 -12.5 67.5t-13.5 98.5h-371v-455h295q6 49 15 87.5t13 54.5h115v-420h-115q-4 16 -13 54t-15 87h-295v-491h373q5 53 14 101t14 69h133v-322h-899zM866 1602q0 -23 -8.5 -43 t-23.5 -35.5t-35.5 -24t-42.5 -8.5q-23 0 -43 8.5t-35 23.5t-23 35.5t-8 43.5t8 43t23 35t35 23.5t43 8.5q22 0 42.5 -8.5t35.5 -23.5t23.5 -35.5t8.5 -42.5zM430 1602q0 -23 -8.5 -43t-23.5 -35.5t-35.5 -24t-42.5 -8.5q-23 0 -43 8.5t-35.5 24t-24 35.5t-8.5 43 q0 22 8.5 42.5t24 35.5t35.5 23.5t43 8.5q22 0 42.5 -8.5t35.5 -23.5t23.5 -35.5t8.5 -42.5z" />
<glyph unicode="&#xcc;" horiz-adv-x="657" d="M57 0v111q43 9 88.5 16t90.5 10v1108q-44 3 -89 10t-90 17v110h543v-110q-43 -10 -89 -17t-89 -10v-1108q44 -3 90.5 -10t87.5 -16v-111h-543zM429 1485l-389 114l53 144l371 -152z" />
<glyph unicode="&#xcd;" horiz-adv-x="657" d="M57 0v111q43 9 88.5 16t90.5 10v1108q-44 3 -89 10t-90 17v110h543v-110q-43 -10 -89 -17t-89 -10v-1108q44 -3 90.5 -10t87.5 -16v-111h-543zM205 1485l-35 106l373 152l51 -144z" />
<glyph unicode="&#xce;" horiz-adv-x="657" d="M57 0v111q43 9 88.5 16t90.5 10v1108q-44 3 -89 10t-90 17v110h543v-110q-43 -10 -89 -17t-89 -10v-1108q44 -3 90.5 -10t87.5 -16v-111h-543zM605 1483l-272 123l-277 -123l-49 102l328 170l323 -166z" />
<glyph unicode="&#xcf;" horiz-adv-x="657" d="M57 0v111q43 9 88.5 16t90.5 10v1108q-44 3 -89 10t-90 17v110h543v-110q-43 -10 -89 -17t-89 -10v-1108q44 -3 90.5 -10t87.5 -16v-111h-543zM658 1602q0 -23 -8.5 -43t-23.5 -35.5t-35.5 -24t-42.5 -8.5q-23 0 -43 8.5t-35 23.5t-23 35.5t-8 43.5t8 43t23 35t35 23.5 t43 8.5q22 0 42.5 -8.5t35.5 -23.5t23.5 -35.5t8.5 -42.5zM222 1602q0 -23 -8.5 -43t-23.5 -35.5t-35.5 -24t-42.5 -8.5q-23 0 -43 8.5t-35.5 24t-24 35.5t-8.5 43q0 22 8.5 42.5t24 35.5t35.5 23.5t43 8.5q22 0 42.5 -8.5t35.5 -23.5t23.5 -35.5t8.5 -42.5z" />
<glyph unicode="&#xd0;" horiz-adv-x="1470" d="M1378 707q0 -174 -56 -309t-159 -225t-244.5 -135.5t-312.5 -45.5q-74 0 -188 4t-160 4h-178v111q41 9 87.5 16t90.5 10v502h-186v143h186v463q-43 3 -89 10t-89 17v110h174q37 0 76.5 1t112.5 2.5t125 2.5t102 1q112 0 207.5 -17.5t174 -54t139.5 -92t102.5 -131.5 t63 -172.5t21.5 -214.5zM1180 694q0 133 -32 234t-97 169.5t-164.5 103t-233.5 34.5q-25 0 -53 -0.5t-54 -1.5t-60 -2.5t-42 -1.5v-447h295v-143h-295v-475q20 -3 43 -5t47.5 -3.5t48.5 -2.5t46 -1q124 0 225 32.5t174 99t112.5 169.5t39.5 241z" />
<glyph unicode="&#xd1;" horiz-adv-x="1546" d="M1489 1272q-35 -10 -70.5 -17.5t-70.5 -11.5v-1243h-254l-445 741q-32 53 -65 109.5t-66 113.5t-63 111t-54 99q5 -85 8.5 -195.5t5.5 -240t2.5 -273t0.5 -326.5q41 -3 84 -10.5t80 -17.5v-111h-525v111q47 11 91.5 18t87.5 10v1106q-44 3 -89 10t-90 17v110h435 l442 -735q32 -54 65.5 -110.5t66 -113.5t62.5 -111t54 -99q-5 87 -8.5 197.5t-5.5 239t-2.5 270t-0.5 323.5q-42 3 -83 10.5t-76 18.5v110h483v-110zM1139 1655q-42 -73 -100 -111.5t-129 -38.5q-47 0 -82.5 14t-76.5 42t-62 39.5t-50 11.5q-36 0 -68.5 -23.5t-60.5 -68.5 l-94 67q40 73 99 112.5t130 39.5q47 0 82.5 -14t76.5 -42t62 -39.5t50 -11.5q36 0 68.5 22.5t60.5 67.5z" />
<glyph unicode="&#xd2;" horiz-adv-x="1444" d="M1358 709q0 -174 -52.5 -309.5t-141.5 -228.5t-208.5 -142t-253.5 -49q-153 0 -268 49.5t-192.5 140.5t-116.5 219t-39 285q0 174 51.5 309.5t141 228.5t208.5 142t254 49q152 0 267.5 -50t193 -141t117 -218.5t39.5 -284.5zM1159 681q0 124 -27 226.5t-81.5 175.5 t-136.5 113.5t-192 40.5q-92 0 -172.5 -34.5t-139.5 -102.5t-93 -168t-34 -230q0 -125 27.5 -227t82 -175.5t136.5 -114t192 -40.5q92 0 172 35t139.5 103t93 168t33.5 230zM823 1485l-389 114l53 144l371 -152z" />
<glyph unicode="&#xd3;" horiz-adv-x="1444" d="M1358 709q0 -174 -52.5 -309.5t-141.5 -228.5t-208.5 -142t-253.5 -49q-153 0 -268 49.5t-192.5 140.5t-116.5 219t-39 285q0 174 51.5 309.5t141 228.5t208.5 142t254 49q152 0 267.5 -50t193 -141t117 -218.5t39.5 -284.5zM1159 681q0 124 -27 226.5t-81.5 175.5 t-136.5 113.5t-192 40.5q-92 0 -172.5 -34.5t-139.5 -102.5t-93 -168t-34 -230q0 -125 27.5 -227t82 -175.5t136.5 -114t192 -40.5q92 0 172 35t139.5 103t93 168t33.5 230zM649 1485l-35 106l373 152l51 -144z" />
<glyph unicode="&#xd4;" horiz-adv-x="1444" d="M1358 709q0 -174 -52.5 -309.5t-141.5 -228.5t-208.5 -142t-253.5 -49q-153 0 -268 49.5t-192.5 140.5t-116.5 219t-39 285q0 174 51.5 309.5t141 228.5t208.5 142t254 49q152 0 267.5 -50t193 -141t117 -218.5t39.5 -284.5zM1159 681q0 124 -27 226.5t-81.5 175.5 t-136.5 113.5t-192 40.5q-92 0 -172.5 -34.5t-139.5 -102.5t-93 -168t-34 -230q0 -125 27.5 -227t82 -175.5t136.5 -114t192 -40.5q92 0 172 35t139.5 103t93 168t33.5 230zM1012 1483l-272 123l-277 -123l-49 102l328 170l323 -166z" />
<glyph unicode="&#xd5;" horiz-adv-x="1444" d="M1358 709q0 -174 -52.5 -309.5t-141.5 -228.5t-208.5 -142t-253.5 -49q-153 0 -268 49.5t-192.5 140.5t-116.5 219t-39 285q0 174 51.5 309.5t141 228.5t208.5 142t254 49q152 0 267.5 -50t193 -141t117 -218.5t39.5 -284.5zM1159 681q0 124 -27 226.5t-81.5 175.5 t-136.5 113.5t-192 40.5q-92 0 -172.5 -34.5t-139.5 -102.5t-93 -168t-34 -230q0 -125 27.5 -227t82 -175.5t136.5 -114t192 -40.5q92 0 172 35t139.5 103t93 168t33.5 230zM1096 1655q-42 -73 -100 -111.5t-129 -38.5q-47 0 -82.5 14t-76.5 42t-62 39.5t-50 11.5 q-36 0 -68.5 -23.5t-60.5 -68.5l-94 67q40 73 99 112.5t130 39.5q47 0 82.5 -14t76.5 -42t62 -39.5t50 -11.5q36 0 68.5 22.5t60.5 67.5z" />
<glyph unicode="&#xd6;" horiz-adv-x="1444" d="M1358 709q0 -174 -52.5 -309.5t-141.5 -228.5t-208.5 -142t-253.5 -49q-153 0 -268 49.5t-192.5 140.5t-116.5 219t-39 285q0 174 51.5 309.5t141 228.5t208.5 142t254 49q152 0 267.5 -50t193 -141t117 -218.5t39.5 -284.5zM1159 681q0 124 -27 226.5t-81.5 175.5 t-136.5 113.5t-192 40.5q-92 0 -172.5 -34.5t-139.5 -102.5t-93 -168t-34 -230q0 -125 27.5 -227t82 -175.5t136.5 -114t192 -40.5q92 0 172 35t139.5 103t93 168t33.5 230zM1056 1602q0 -23 -8.5 -43t-23.5 -35.5t-35.5 -24t-42.5 -8.5q-23 0 -43 8.5t-35 23.5t-23 35.5 t-8 43.5t8 43t23 35t35 23.5t43 8.5q22 0 42.5 -8.5t35.5 -23.5t23.5 -35.5t8.5 -42.5zM620 1602q0 -23 -8.5 -43t-23.5 -35.5t-35.5 -24t-42.5 -8.5q-23 0 -43 8.5t-35.5 24t-24 35.5t-8.5 43q0 22 8.5 42.5t24 35.5t35.5 23.5t43 8.5q22 0 42.5 -8.5t35.5 -23.5 t23.5 -35.5t8.5 -42.5z" />
<glyph unicode="&#xd7;" d="M901 158l-344 344l-342 -344l-102 102l344 344l-344 342l112 113l342 -344l344 344l103 -103l-344 -342l344 -344z" />
<glyph unicode="&#xd8;" horiz-adv-x="1444" d="M1358 707q0 -169 -50.5 -305t-140.5 -230t-209.5 -143t-255.5 -49q-55 0 -102.5 5.5t-91.5 16.5l-86 -211l-137 57l88 211q-74 42 -128.5 104t-89.5 141t-52 172.5t-17 199.5q0 113 23 212t66 180t103 143.5t133 105t156.5 64.5t173.5 22q46 0 92 -4.5t87 -14.5l81 203 l138 -57l-82 -201q73 -38 129 -96t94.5 -136.5t58 -176.5t19.5 -213zM1165 684q0 83 -11.5 156t-35 133.5t-58.5 108t-81 79.5l-399 -999q32 -11 66 -16t73 -5q90 0 170.5 34t142.5 102t97.5 171t35.5 236zM850 1227q-24 6 -59 10t-70 4q-91 0 -171 -34t-141 -102.5 t-95.5 -170t-34.5 -232.5q0 -83 11.5 -155.5t34 -132t54.5 -105t74 -76.5z" />
<glyph unicode="&#xd9;" horiz-adv-x="1464" d="M1409 1272q-67 -18 -141 -27v-717q0 -133 -35 -235.5t-104.5 -172t-173 -105t-238.5 -35.5q-105 0 -186 18.5t-138.5 52.5t-95 79.5t-59 99.5t-30.5 113.5t-9 125.5v776q-81 10 -142 27v110h492v-110q-34 -10 -76 -17t-86 -10v-762q0 -78 15.5 -140.5t53 -109.5 t105 -73.5t168.5 -26.5q92 0 158 21t109.5 67t65 119t21.5 178v727q-45 3 -86.5 9.5t-76.5 17.5v110h489v-110zM778 1485l-389 114l53 144l371 -152z" />
<glyph unicode="&#xda;" horiz-adv-x="1464" d="M1409 1272q-67 -18 -141 -27v-717q0 -133 -35 -235.5t-104.5 -172t-173 -105t-238.5 -35.5q-105 0 -186 18.5t-138.5 52.5t-95 79.5t-59 99.5t-30.5 113.5t-9 125.5v776q-81 10 -142 27v110h492v-110q-34 -10 -76 -17t-86 -10v-762q0 -78 15.5 -140.5t53 -109.5 t105 -73.5t168.5 -26.5q92 0 158 21t109.5 67t65 119t21.5 178v727q-45 3 -86.5 9.5t-76.5 17.5v110h489v-110zM662 1485l-35 106l373 152l51 -144z" />
<glyph unicode="&#xdb;" horiz-adv-x="1464" d="M1409 1272q-67 -18 -141 -27v-717q0 -133 -35 -235.5t-104.5 -172t-173 -105t-238.5 -35.5q-105 0 -186 18.5t-138.5 52.5t-95 79.5t-59 99.5t-30.5 113.5t-9 125.5v776q-81 10 -142 27v110h492v-110q-34 -10 -76 -17t-86 -10v-762q0 -78 15.5 -140.5t53 -109.5 t105 -73.5t168.5 -26.5q92 0 158 21t109.5 67t65 119t21.5 178v727q-45 3 -86.5 9.5t-76.5 17.5v110h489v-110zM1008 1483l-272 123l-277 -123l-49 102l328 170l323 -166z" />
<glyph unicode="&#xdc;" horiz-adv-x="1464" d="M1409 1272q-67 -18 -141 -27v-717q0 -133 -35 -235.5t-104.5 -172t-173 -105t-238.5 -35.5q-105 0 -186 18.5t-138.5 52.5t-95 79.5t-59 99.5t-30.5 113.5t-9 125.5v776q-81 10 -142 27v110h492v-110q-34 -10 -76 -17t-86 -10v-762q0 -78 15.5 -140.5t53 -109.5 t105 -73.5t168.5 -26.5q92 0 158 21t109.5 67t65 119t21.5 178v727q-45 3 -86.5 9.5t-76.5 17.5v110h489v-110zM1067 1602q0 -23 -8.5 -43t-23.5 -35.5t-35.5 -24t-42.5 -8.5q-23 0 -43 8.5t-35 23.5t-23 35.5t-8 43.5t8 43t23 35t35 23.5t43 8.5q22 0 42.5 -8.5t35.5 -23.5 t23.5 -35.5t8.5 -42.5zM631 1602q0 -23 -8.5 -43t-23.5 -35.5t-35.5 -24t-42.5 -8.5q-23 0 -43 8.5t-35.5 24t-24 35.5t-8.5 43q0 22 8.5 42.5t24 35.5t35.5 23.5t43 8.5q22 0 42.5 -8.5t35.5 -23.5t23.5 -35.5t8.5 -42.5z" />
<glyph unicode="&#xdd;" horiz-adv-x="1219" d="M1205 1271q-26 -7 -61 -13t-63 -10l-382 -759v-352q47 -3 92.5 -10t85.5 -18v-109h-544v109q41 11 86.5 18t91.5 10v351l-374 760q-27 4 -62.5 10t-61.5 13v111h484v-111q-35 -9 -73 -15t-77 -9l165 -362q13 -28 26 -57l26 -58t25.5 -58t23.5 -56h2q11 29 24 60t27.5 62 t28.5 61.5t27 58.5l163 349q-41 3 -79 9t-73 15v111h472v-111v0zM557 1485l-35 106l373 152l51 -144z" />
<glyph unicode="&#xde;" horiz-adv-x="1190" d="M1137 735q0 -101 -39 -185t-110.5 -144.5t-169.5 -92.5t-214 -32q-50 0 -91.5 2.5t-90.5 7.5v-160q45 -3 91.5 -10t86.5 -17v-104h-543v109q43 9 88.5 16t90.5 10v1112q-44 3 -89 10t-90 17v108h543v-104q-43 -10 -89 -17t-89 -10v-121q16 1 38.5 2t50 1.5t57 1t59.5 0.5 q132 0 229.5 -30.5t159.5 -85.5t91.5 -127t29.5 -157zM936 713q0 55 -17.5 103.5t-57 87t-105 61t-158.5 22.5q-50 0 -95 -1.5t-81 -4.5v-537q42 -6 84 -10t90 -4q86 0 150.5 22t106.5 61t62.5 90t20.5 110z" />
<glyph unicode="&#xdf;" horiz-adv-x="1335" d="M1274 315q0 -68 -25 -127.5t-75 -105t-125 -71t-172 -25.5q-50 0 -105 5t-104 13v289h114q8 -37 14 -77.5t9 -76.5q17 -5 40 -7.5t46 -2.5q52 0 90 13t60.5 35.5t33 51.5t10.5 62q0 39 -17.5 69t-47.5 52t-76 45.5t-86.5 43.5t-77.5 44t-67 56.5t-48 77.5t-18 103 q0 55 18.5 95.5t46 69t73 63.5t70 56.5t42.5 54.5t18 77q0 37 -15.5 67t-44 50.5t-67.5 31.5t-86 11q-68 0 -120 -19.5t-87.5 -62t-54 -110t-18.5 -162.5v-867q40 -3 81 -10t66 -16v-111h-510v111q43 9 88.5 16t90.5 10v737q-36 7 -86.5 12.5t-96.5 8.5v111q42 5 90 9t93 5 q1 113 31 203t90.5 153t150 96t207.5 33q93 0 166 -21.5t123 -60t75 -90.5t25 -112q0 -63 -18.5 -108t-47 -74t-79 -64.5t-70 -51t-37.5 -45t-18 -71.5q0 -48 29.5 -82.5t58.5 -51t113.5 -60.5t130.5 -79.5t76 -89.5t30 -129z" />
<glyph unicode="&#xe0;" horiz-adv-x="1094" d="M1055 14q-36 -5 -78 -8t-87.5 -5t-91.5 -3t-87 1q0 55 2 107.5t9 95.5l-3 1q-18 -46 -50.5 -87t-77.5 -71t-98.5 -46.5t-115.5 -16.5q-63 0 -117 18.5t-91.5 53.5t-58 86t-20.5 116q0 79 39 142.5t117.5 108t194.5 68t259 23.5v71q0 55 -10.5 97.5t-35.5 72t-66 44 t-101 14.5q-46 0 -96.5 -7.5t-93.5 -21.5q-3 -38 -10 -81t-15 -85h-114v279q76 25 167 40t183 15q110 0 183 -24t116.5 -70.5t61.5 -106.5t18 -145v-545q36 -6 82.5 -11.5t85.5 -8.5v-111zM700 471q-119 0 -202 -13.5t-134.5 -39.5t-72.5 -61.5t-21 -77.5q0 -33 9.5 -60.5 t30.5 -48.5t51.5 -32t65.5 -11q62 0 112 27.5t86 73t55.5 103.5t19.5 118v22zM543 1165l-287 262l113 111l264 -285z" />
<glyph unicode="&#xe1;" horiz-adv-x="1094" d="M1055 14q-36 -5 -78 -8t-87.5 -5t-91.5 -3t-87 1q0 55 2 107.5t9 95.5l-3 1q-18 -46 -50.5 -87t-77.5 -71t-98.5 -46.5t-115.5 -16.5q-63 0 -117 18.5t-91.5 53.5t-58 86t-20.5 116q0 79 39 142.5t117.5 108t194.5 68t259 23.5v71q0 55 -10.5 97.5t-35.5 72t-66 44 t-101 14.5q-46 0 -96.5 -7.5t-93.5 -21.5q-3 -38 -10 -81t-15 -85h-114v279q76 25 167 40t183 15q110 0 183 -24t116.5 -70.5t61.5 -106.5t18 -145v-545q36 -6 82.5 -11.5t85.5 -8.5v-111zM700 471q-119 0 -202 -13.5t-134.5 -39.5t-72.5 -61.5t-21 -77.5q0 -33 9.5 -60.5 t30.5 -48.5t51.5 -32t65.5 -11q62 0 112 27.5t86 73t55.5 103.5t19.5 118v22zM504 1165l-90 88l264 285l113 -108z" />
<glyph unicode="&#xe2;" horiz-adv-x="1094" d="M1055 14q-36 -5 -78 -8t-87.5 -5t-91.5 -3t-87 1q0 55 2 107.5t9 95.5l-3 1q-18 -46 -50.5 -87t-77.5 -71t-98.5 -46.5t-115.5 -16.5q-63 0 -117 18.5t-91.5 53.5t-58 86t-20.5 116q0 79 39 142.5t117.5 108t194.5 68t259 23.5v71q0 55 -10.5 97.5t-35.5 72t-66 44 t-101 14.5q-46 0 -96.5 -7.5t-93.5 -21.5q-3 -38 -10 -81t-15 -85h-114v279q76 25 167 40t183 15q110 0 183 -24t116.5 -70.5t61.5 -106.5t18 -145v-545q36 -6 82.5 -11.5t85.5 -8.5v-111zM700 471q-119 0 -202 -13.5t-134.5 -39.5t-72.5 -61.5t-21 -77.5q0 -33 9.5 -60.5 t30.5 -48.5t51.5 -32t65.5 -11q62 0 112 27.5t86 73t55.5 103.5t19.5 118v22zM729 1167l-204 174l-209 -174l-76 88l287 269l282 -267z" />
<glyph unicode="&#xe3;" horiz-adv-x="1094" d="M1055 14q-36 -5 -78 -8t-87.5 -5t-91.5 -3t-87 1q0 55 2 107.5t9 95.5l-3 1q-18 -46 -50.5 -87t-77.5 -71t-98.5 -46.5t-115.5 -16.5q-63 0 -117 18.5t-91.5 53.5t-58 86t-20.5 116q0 79 39 142.5t117.5 108t194.5 68t259 23.5v71q0 55 -10.5 97.5t-35.5 72t-66 44 t-101 14.5q-46 0 -96.5 -7.5t-93.5 -21.5q-3 -38 -10 -81t-15 -85h-114v279q76 25 167 40t183 15q110 0 183 -24t116.5 -70.5t61.5 -106.5t18 -145v-545q36 -6 82.5 -11.5t85.5 -8.5v-111zM700 471q-119 0 -202 -13.5t-134.5 -39.5t-72.5 -61.5t-21 -77.5q0 -33 9.5 -60.5 t30.5 -48.5t51.5 -32t65.5 -11q62 0 112 27.5t86 73t55.5 103.5t19.5 118v22zM867 1374q-40 -78 -96.5 -119t-126.5 -41q-45 0 -79 15t-73.5 44.5t-60.5 41.5t-49 12q-34 0 -64.5 -24.5t-56.5 -71.5l-92 72q40 77 96.5 118t126.5 41q45 0 79 -14.5t73.5 -43t60.5 -40.5 t49 -12q34 0 64.5 23.5t56.5 70.5z" />
<glyph unicode="&#xe4;" horiz-adv-x="1094" d="M1055 14q-36 -5 -78 -8t-87.5 -5t-91.5 -3t-87 1q0 55 2 107.5t9 95.5l-3 1q-18 -46 -50.5 -87t-77.5 -71t-98.5 -46.5t-115.5 -16.5q-63 0 -117 18.5t-91.5 53.5t-58 86t-20.5 116q0 79 39 142.5t117.5 108t194.5 68t259 23.5v71q0 55 -10.5 97.5t-35.5 72t-66 44 t-101 14.5q-46 0 -96.5 -7.5t-93.5 -21.5q-3 -38 -10 -81t-15 -85h-114v279q76 25 167 40t183 15q110 0 183 -24t116.5 -70.5t61.5 -106.5t18 -145v-545q36 -6 82.5 -11.5t85.5 -8.5v-111zM700 471q-119 0 -202 -13.5t-134.5 -39.5t-72.5 -61.5t-21 -77.5q0 -33 9.5 -60.5 t30.5 -48.5t51.5 -32t65.5 -11q62 0 112 27.5t86 73t55.5 103.5t19.5 118v22zM827 1339q0 -22 -8.5 -42.5t-23.5 -35.5t-35.5 -23.5t-42.5 -8.5q-23 0 -43 8.5t-35.5 23.5t-24 35.5t-8.5 42.5q0 23 8.5 43t24 35.5t35.5 24t43 8.5q22 0 42.5 -8.5t35.5 -24t23.5 -35.5 t8.5 -43zM434 1339q0 -22 -8.5 -42.5t-23.5 -35.5t-35.5 -23.5t-42.5 -8.5q-23 0 -43 8.5t-35.5 23.5t-24 35.5t-8.5 42.5q0 23 8.5 43t24 35.5t35.5 24t43 8.5q22 0 42.5 -8.5t35.5 -24t23.5 -35.5t8.5 -43z" />
<glyph unicode="&#xe5;" horiz-adv-x="1094" d="M1055 14q-36 -5 -78 -8t-87.5 -5t-91.5 -3t-87 1q0 55 2 107.5t9 95.5l-3 1q-18 -46 -50.5 -87t-77.5 -71t-98.5 -46.5t-115.5 -16.5q-63 0 -117 18.5t-91.5 53.5t-58 86t-20.5 116q0 79 39 142.5t117.5 108t194.5 68t259 23.5v71q0 55 -10.5 97.5t-35.5 72t-66 44 t-101 14.5q-46 0 -96.5 -7.5t-93.5 -21.5q-3 -38 -10 -81t-15 -85h-114v279q76 25 167 40t183 15q110 0 183 -24t116.5 -70.5t61.5 -106.5t18 -145v-545q36 -6 82.5 -11.5t85.5 -8.5v-111zM700 471q-119 0 -202 -13.5t-134.5 -39.5t-72.5 -61.5t-21 -77.5q0 -33 9.5 -60.5 t30.5 -48.5t51.5 -32t65.5 -11q62 0 112 27.5t86 73t55.5 103.5t19.5 118v22zM766 1372q0 -49 -17.5 -91.5t-50.5 -74t-79 -49t-101 -17.5q-53 0 -95 13.5t-71.5 41t-45 68t-15.5 94.5q0 49 17 91.5t49.5 73.5t78.5 48t101 17q54 0 96.5 -13.5t72 -40.5t45 -67.5t15.5 -93.5 zM631 1364q0 29 -7 51t-20 37t-32 22.5t-43 7.5q-21 0 -40 -7.5t-33.5 -22t-23 -36.5t-8.5 -50q0 -30 7 -52.5t20 -37t32 -22t44 -7.5q21 0 40 7t33.5 22t22.5 37t8 51z" />
<glyph unicode="&#xe6;" horiz-adv-x="1647" d="M1554 618q0 -17 -0.5 -33t-2 -36.5t-3.5 -39.5t-4 -34h-661q0 -85 18.5 -149t55.5 -107.5t97 -66.5t142 -23q78 0 156 15t145 40l25 -141q-79 -29 -166.5 -45t-181.5 -16q-85 0 -153.5 16.5t-119 47t-85.5 73.5t-54 96h-2q-23 -47 -59.5 -89.5t-85 -74.5t-108 -50.5 t-130.5 -18.5q-64 0 -118 18.5t-91 53.5t-57.5 87t-20.5 115q0 79 41.5 144.5t119.5 111.5t191.5 71t257.5 25v62q0 58 -10.5 98t-35.5 70t-66 44.5t-101 14.5q-45 0 -96 -8t-95 -21q-2 -38 -8.5 -80t-15.5 -86h-114v279q75 25 167 40t183 15q50 0 98.5 -7.5t91.5 -25.5 t75.5 -46.5t55.5 -69.5h2q21 30 54.5 57.5t73.5 48t88.5 32t103.5 11.5q108 0 183.5 -33t123.5 -89t72 -132.5t24 -163.5zM1366 606q4 64 -8 117.5t-40.5 92.5t-73 60t-105.5 21q-60 0 -106 -23.5t-78 -63.5t-49.5 -93t-20.5 -111h481zM700 479q-120 0 -202 -15.5 t-131.5 -42t-73 -63.5t-23.5 -79q0 -33 10.5 -60.5t29.5 -48t51 -32t67 -11.5q61 0 110.5 27.5t85.5 73t56 103.5t20 118v30z" />
<glyph unicode="&#xe7;" horiz-adv-x="913" d="M858 41q-27 -11 -63.5 -22t-76.5 -18.5t-83 -12t-89 -4.5q-65 0 -123.5 10.5t-109.5 34t-93 61t-72 92t-47 127t-17 170.5q0 118 31 221t92.5 177t157.5 115.5t223 41.5q66 0 131 -10t117 -27v-301h-115q-10 43 -17 88t-10 82q-27 7 -61 12t-71 5q-69 0 -122 -27.5 t-89.5 -77t-55.5 -119t-19 -150.5t14.5 -147.5t48 -115t92.5 -77t149 -28.5q61 0 128.5 14t120.5 38l29 -152v0zM571 -82q39 -51 53.5 -101t7.5 -99t-33.5 -98.5t-70.5 -100.5h-149q42 53 65 94.5t28.5 80.5t-8.5 79t-50 84z" />
<glyph unicode="&#xe8;" horiz-adv-x="1040" d="M946 616q0 -22 -1 -43t-2 -37.5t-2 -26t-1 -13.5h-666q-2 -94 17 -163t58 -114t98.5 -67.5t140.5 -22.5q75 0 150.5 13.5t150.5 41.5l24 -141q-84 -30 -172 -45.5t-176 -15.5q-118 0 -207.5 31.5t-150.5 95.5t-92 162.5t-31 232.5q0 114 31 211t90.5 169.5t145.5 112 t192 39.5q103 0 180 -32.5t126.5 -90t73 -133t23.5 -164.5zM758 625q1 65 -14 116t-44.5 86t-72.5 52.5t-97 17.5q-50 0 -93 -18t-76.5 -52.5t-55 -85.5t-29.5 -116h482zM553 1165l-287 262l113 111l264 -285z" />
<glyph unicode="&#xe9;" horiz-adv-x="1040" d="M946 616q0 -22 -1 -43t-2 -37.5t-2 -26t-1 -13.5h-666q-2 -94 17 -163t58 -114t98.5 -67.5t140.5 -22.5q75 0 150.5 13.5t150.5 41.5l24 -141q-84 -30 -172 -45.5t-176 -15.5q-118 0 -207.5 31.5t-150.5 95.5t-92 162.5t-31 232.5q0 114 31 211t90.5 169.5t145.5 112 t192 39.5q103 0 180 -32.5t126.5 -90t73 -133t23.5 -164.5zM758 625q1 65 -14 116t-44.5 86t-72.5 52.5t-97 17.5q-50 0 -93 -18t-76.5 -52.5t-55 -85.5t-29.5 -116h482zM516 1165l-90 88l264 285l113 -108z" />
<glyph unicode="&#xea;" horiz-adv-x="1040" d="M946 616q0 -22 -1 -43t-2 -37.5t-2 -26t-1 -13.5h-666q-2 -94 17 -163t58 -114t98.5 -67.5t140.5 -22.5q75 0 150.5 13.5t150.5 41.5l24 -141q-84 -30 -172 -45.5t-176 -15.5q-118 0 -207.5 31.5t-150.5 95.5t-92 162.5t-31 232.5q0 114 31 211t90.5 169.5t145.5 112 t192 39.5q103 0 180 -32.5t126.5 -90t73 -133t23.5 -164.5zM758 625q1 65 -14 116t-44.5 86t-72.5 52.5t-97 17.5q-50 0 -93 -18t-76.5 -52.5t-55 -85.5t-29.5 -116h482zM741 1167l-204 174l-209 -174l-76 88l287 269l282 -267z" />
<glyph unicode="&#xeb;" horiz-adv-x="1040" d="M946 616q0 -22 -1 -43t-2 -37.5t-2 -26t-1 -13.5h-666q-2 -94 17 -163t58 -114t98.5 -67.5t140.5 -22.5q75 0 150.5 13.5t150.5 41.5l24 -141q-84 -30 -172 -45.5t-176 -15.5q-118 0 -207.5 31.5t-150.5 95.5t-92 162.5t-31 232.5q0 114 31 211t90.5 169.5t145.5 112 t192 39.5q103 0 180 -32.5t126.5 -90t73 -133t23.5 -164.5zM758 625q1 65 -14 116t-44.5 86t-72.5 52.5t-97 17.5q-50 0 -93 -18t-76.5 -52.5t-55 -85.5t-29.5 -116h482zM843 1339q0 -22 -8.5 -42.5t-23.5 -35.5t-35.5 -23.5t-42.5 -8.5q-23 0 -43 8.5t-35.5 23.5t-24 35.5 t-8.5 42.5q0 23 8.5 43t24 35.5t35.5 24t43 8.5q22 0 42.5 -8.5t35.5 -24t23.5 -35.5t8.5 -43zM450 1339q0 -22 -8.5 -42.5t-23.5 -35.5t-35.5 -23.5t-42.5 -8.5q-23 0 -43 8.5t-35.5 23.5t-24 35.5t-8.5 42.5q0 23 8.5 43t24 35.5t35.5 24t43 8.5q22 0 42.5 -8.5t35.5 -24 t23.5 -35.5t8.5 -43z" />
<glyph unicode="&#xec;" horiz-adv-x="627" d="M58 0v111q35 9 81 16t92 10v736q-37 6 -82.5 12t-90.5 9v109q39 5 81 8.5t89 5.5t95.5 2.5t92.5 -0.5v-882q45 -3 89 -10t81 -16v-111h-528zM343 1165l-287 262l113 111l264 -285z" />
<glyph unicode="&#xed;" horiz-adv-x="627" d="M58 0v111q35 9 81 16t92 10v736q-37 6 -82.5 12t-90.5 9v109q39 5 81 8.5t89 5.5t95.5 2.5t92.5 -0.5v-882q45 -3 89 -10t81 -16v-111h-528zM272 1165l-90 88l264 285l113 -108z" />
<glyph unicode="&#xee;" horiz-adv-x="627" d="M58 0v111q35 9 81 16t92 10v736q-37 6 -82.5 12t-90.5 9v109q39 5 81 8.5t89 5.5t95.5 2.5t92.5 -0.5v-882q45 -3 89 -10t81 -16v-111h-528zM523 1167l-204 174l-209 -174l-76 88l287 269l282 -267z" />
<glyph unicode="&#xef;" horiz-adv-x="627" d="M58 0v111q35 9 81 16t92 10v736q-37 6 -82.5 12t-90.5 9v109q39 5 81 8.5t89 5.5t95.5 2.5t92.5 -0.5v-882q45 -3 89 -10t81 -16v-111h-528zM598 1339q0 -22 -8.5 -42.5t-24 -35.5t-35.5 -23.5t-43 -8.5q-22 0 -42.5 8.5t-35.5 23.5t-23.5 35.5t-8.5 42.5q0 23 8.5 43 t23.5 35.5t35.5 24t42.5 8.5q23 0 43.5 -8t35.5 -23.5t23.5 -35.5t8.5 -44zM240 1339q0 -22 -8.5 -42.5t-24 -35.5t-36 -23.5t-42.5 -8.5q-23 0 -43 8.5t-35.5 23.5t-24 35.5t-8.5 42.5q0 23 8.5 43t24 35.5t35.5 24t43 8.5t43 -8t35.5 -23.5t24 -35.5t8.5 -44z" />
<glyph unicode="&#xf0;" horiz-adv-x="1118" d="M1030 560q0 -147 -37.5 -256t-103 -180.5t-154 -107t-191.5 -35.5t-188.5 31.5t-146.5 95.5t-94.5 161.5t-33.5 230.5q0 113 33.5 211t96.5 169.5t152 112.5t200 41q32 0 63.5 -5.5t60 -16.5t52 -28.5t38.5 -42.5q-16 33 -33.5 61t-26.5 44q-25 44 -57 87t-75 89 l-208 -93l-78 96l193 86q-35 32 -77 65t-90 69l184 78q42 -31 80 -65.5t75 -72.5l205 90l78 -95l-198 -87q66 -81 118.5 -167.5t88.5 -179t55 -190t19 -196.5zM839 534q0 79 -17.5 143.5t-52.5 110t-88 70t-123 24.5q-56 0 -107.5 -21.5t-91 -66.5t-63.5 -115t-24 -165 q0 -90 20.5 -160t58 -118t92.5 -73t123 -25q56 0 106 22t87 70t58.5 123t21.5 181z" />
<glyph unicode="&#xf1;" horiz-adv-x="1270" d="M879 0v655q0 56 -8.5 98t-28 71.5t-53 45t-82.5 15.5q-61 0 -114.5 -29.5t-93 -84t-61.5 -127.5t-22 -157v-350q55 -4 98 -12.5t61 -13.5v-111h-516v111q20 5 67.5 13.5t104.5 12.5v735q-37 7 -83 12.5t-89 8.5v111q40 5 84 8.5t90.5 5.5t92 2t86.5 -2q0 -24 -1 -52 t-3 -57t-5 -56.5t-8 -49.5l4 -2q23 53 57.5 96.5t80 74.5t101 47.5t118.5 16.5q85 0 145 -24.5t95.5 -69t51 -103.5t15.5 -132v-570q58 -4 103.5 -12.5t64.5 -13.5v-111h-352zM987 1374q-40 -78 -96.5 -119t-126.5 -41q-45 0 -79 15t-73.5 44.5t-60.5 41.5t-49 12 q-34 0 -64.5 -24.5t-56.5 -71.5l-92 72q40 77 96.5 118t126.5 41q45 0 79 -14.5t73.5 -43t60.5 -40.5t49 -12q34 0 64.5 23.5t56.5 70.5z" />
<glyph unicode="&#xf2;" horiz-adv-x="1120" d="M1036 524q0 -115 -32 -214t-95 -172.5t-155.5 -114.5t-210.5 -41q-106 0 -190.5 31t-144.5 95t-92 160.5t-32 225.5q0 115 32 214t95 172.5t156 114.5t211 41q105 0 189.5 -31.5t144.5 -95t92 -160.5t32 -225zM846 510q0 88 -19.5 158t-56.5 118t-90 72.5t-119 24.5 q-65 0 -118 -24t-90.5 -71t-58 -118t-20.5 -162q0 -88 19.5 -157.5t56 -117t89 -72t118.5 -24.5q63 0 115.5 22.5t91.5 68.5t60.5 117t21.5 165zM588 1165l-287 262l113 111l264 -285z" />
<glyph unicode="&#xf3;" horiz-adv-x="1120" d="M1036 524q0 -115 -32 -214t-95 -172.5t-155.5 -114.5t-210.5 -41q-106 0 -190.5 31t-144.5 95t-92 160.5t-32 225.5q0 115 32 214t95 172.5t156 114.5t211 41q105 0 189.5 -31.5t144.5 -95t92 -160.5t32 -225zM846 510q0 88 -19.5 158t-56.5 118t-90 72.5t-119 24.5 q-65 0 -118 -24t-90.5 -71t-58 -118t-20.5 -162q0 -88 19.5 -157.5t56 -117t89 -72t118.5 -24.5q63 0 115.5 22.5t91.5 68.5t60.5 117t21.5 165zM545 1165l-90 88l264 285l113 -108z" />
<glyph unicode="&#xf4;" horiz-adv-x="1120" d="M1036 524q0 -115 -32 -214t-95 -172.5t-155.5 -114.5t-210.5 -41q-106 0 -190.5 31t-144.5 95t-92 160.5t-32 225.5q0 115 32 214t95 172.5t156 114.5t211 41q105 0 189.5 -31.5t144.5 -95t92 -160.5t32 -225zM846 510q0 88 -19.5 158t-56.5 118t-90 72.5t-119 24.5 q-65 0 -118 -24t-90.5 -71t-58 -118t-20.5 -162q0 -88 19.5 -157.5t56 -117t89 -72t118.5 -24.5q63 0 115.5 22.5t91.5 68.5t60.5 117t21.5 165zM768 1167l-204 174l-209 -174l-76 88l287 269l282 -267z" />
<glyph unicode="&#xf5;" horiz-adv-x="1120" d="M1036 524q0 -115 -32 -214t-95 -172.5t-155.5 -114.5t-210.5 -41q-106 0 -190.5 31t-144.5 95t-92 160.5t-32 225.5q0 115 32 214t95 172.5t156 114.5t211 41q105 0 189.5 -31.5t144.5 -95t92 -160.5t32 -225zM846 510q0 88 -19.5 158t-56.5 118t-90 72.5t-119 24.5 q-65 0 -118 -24t-90.5 -71t-58 -118t-20.5 -162q0 -88 19.5 -157.5t56 -117t89 -72t118.5 -24.5q63 0 115.5 22.5t91.5 68.5t60.5 117t21.5 165zM919 1374q-40 -78 -96.5 -119t-126.5 -41q-45 0 -79 15t-73.5 44.5t-60.5 41.5t-49 12q-34 0 -64.5 -24.5t-56.5 -71.5l-92 72 q40 77 96.5 118t126.5 41q45 0 79 -14.5t73.5 -43t60.5 -40.5t49 -12q34 0 64.5 23.5t56.5 70.5z" />
<glyph unicode="&#xf6;" horiz-adv-x="1120" d="M1036 524q0 -115 -32 -214t-95 -172.5t-155.5 -114.5t-210.5 -41q-106 0 -190.5 31t-144.5 95t-92 160.5t-32 225.5q0 115 32 214t95 172.5t156 114.5t211 41q105 0 189.5 -31.5t144.5 -95t92 -160.5t32 -225zM846 510q0 88 -19.5 158t-56.5 118t-90 72.5t-119 24.5 q-65 0 -118 -24t-90.5 -71t-58 -118t-20.5 -162q0 -88 19.5 -157.5t56 -117t89 -72t118.5 -24.5q63 0 115.5 22.5t91.5 68.5t60.5 117t21.5 165zM874 1339q0 -22 -8.5 -42.5t-23.5 -35.5t-35.5 -23.5t-42.5 -8.5q-23 0 -43 8.5t-35.5 23.5t-24 35.5t-8.5 42.5q0 23 8.5 43 t24 35.5t35.5 24t43 8.5q22 0 42.5 -8.5t35.5 -24t23.5 -35.5t8.5 -43zM481 1339q0 -22 -8.5 -42.5t-23.5 -35.5t-35.5 -23.5t-42.5 -8.5q-23 0 -43 8.5t-35.5 23.5t-24 35.5t-8.5 42.5q0 23 8.5 43t24 35.5t35.5 24t43 8.5q22 0 42.5 -8.5t35.5 -24t23.5 -35.5t8.5 -43z " />
<glyph unicode="&#xf7;" d="M684 1020q0 -25 -9.5 -47.5t-26.5 -39.5t-39.5 -26.5t-47.5 -9.5t-48 9.5t-40.5 26.5t-27 39.5t-9.5 47.5t9.5 47.5t27 39.5t40.5 26.5t48 9.5t47.5 -9.5t39.5 -26.5t26.5 -39.5t9.5 -47.5zM86 532v154h954v-154h-954zM684 197q0 -26 -9.5 -49t-26.5 -40t-39.5 -26.5 t-47.5 -9.5t-48 9.5t-40.5 26.5t-27 40t-9.5 49q0 25 9.5 47t27 39t40.5 26.5t48 9.5t47.5 -9.5t39.5 -26.5t26.5 -39t9.5 -47z" />
<glyph unicode="&#xf8;" horiz-adv-x="1120" d="M1036 524q0 -117 -33.5 -217.5t-96.5 -173t-156 -112t-207 -39.5q-44 0 -93.5 7.5t-82.5 20.5l-101 -192l-114 53l102 195q-41 30 -72.5 72t-54 99t-33 122t-10.5 135q0 114 32 213t96 174t158 115t209 40q41 0 89.5 -7t85.5 -21l100 192l115 -53l-103 -195 q35 -27 59 -55.5t52 -82.5t43.5 -127t15.5 -163zM856 510q0 98 -23 172.5t-51 110.5l-340 -641q23 -12 54.5 -18.5t60.5 -6.5q62 0 117.5 22t96.5 71.5t63 121t22 168.5zM678 866q-22 11 -56 18t-59 7q-59 0 -114 -21.5t-96 -67.5t-65 -120.5t-24 -173.5q0 -48 5 -87.5 t14.5 -74t23.5 -66.5t31 -55z" />
<glyph unicode="&#xf9;" horiz-adv-x="1251" d="M1212 14q-37 -5 -80 -8.5t-89.5 -5.5t-93 -2t-87.5 2q0 23 1 50.5t3.5 57t5.5 57t7 50.5h-5q-22 -53 -56.5 -95.5t-80.5 -73.5t-102 -47.5t-121 -16.5q-84 0 -143 24.5t-94.5 68.5t-51.5 102.5t-16 129.5v565q-37 7 -82.5 12.5t-87.5 8.5v111q38 5 81 8.5t89.5 5.5 t93.5 2t90 -2v-656q0 -56 8.5 -98t28.5 -71t53.5 -44.5t83.5 -15.5q62 0 115 30t92 84t60.5 127t21.5 156v344q-38 6 -80.5 11t-81.5 8v111q38 5 81 8.5t88 5.5t90.5 2t86.5 -2v-873q38 -6 85 -11.5t87 -8.5v-111zM629 1165l-287 262l113 111l264 -285z" />
<glyph unicode="&#xfa;" horiz-adv-x="1251" d="M1212 14q-37 -5 -80 -8.5t-89.5 -5.5t-93 -2t-87.5 2q0 23 1 50.5t3.5 57t5.5 57t7 50.5h-5q-22 -53 -56.5 -95.5t-80.5 -73.5t-102 -47.5t-121 -16.5q-84 0 -143 24.5t-94.5 68.5t-51.5 102.5t-16 129.5v565q-37 7 -82.5 12.5t-87.5 8.5v111q38 5 81 8.5t89.5 5.5 t93.5 2t90 -2v-656q0 -56 8.5 -98t28.5 -71t53.5 -44.5t83.5 -15.5q62 0 115 30t92 84t60.5 127t21.5 156v344q-38 6 -80.5 11t-81.5 8v111q38 5 81 8.5t88 5.5t90.5 2t86.5 -2v-873q38 -6 85 -11.5t87 -8.5v-111zM606 1165l-90 88l264 285l113 -108z" />
<glyph unicode="&#xfb;" horiz-adv-x="1251" d="M1212 14q-37 -5 -80 -8.5t-89.5 -5.5t-93 -2t-87.5 2q0 23 1 50.5t3.5 57t5.5 57t7 50.5h-5q-22 -53 -56.5 -95.5t-80.5 -73.5t-102 -47.5t-121 -16.5q-84 0 -143 24.5t-94.5 68.5t-51.5 102.5t-16 129.5v565q-37 7 -82.5 12.5t-87.5 8.5v111q38 5 81 8.5t89.5 5.5 t93.5 2t90 -2v-656q0 -56 8.5 -98t28.5 -71t53.5 -44.5t83.5 -15.5q62 0 115 30t92 84t60.5 127t21.5 156v344q-38 6 -80.5 11t-81.5 8v111q38 5 81 8.5t88 5.5t90.5 2t86.5 -2v-873q38 -6 85 -11.5t87 -8.5v-111zM825 1167l-204 174l-209 -174l-76 88l287 269l282 -267z " />
<glyph unicode="&#xfc;" horiz-adv-x="1251" d="M1212 14q-37 -5 -80 -8.5t-89.5 -5.5t-93 -2t-87.5 2q0 23 1 50.5t3.5 57t5.5 57t7 50.5h-5q-22 -53 -56.5 -95.5t-80.5 -73.5t-102 -47.5t-121 -16.5q-84 0 -143 24.5t-94.5 68.5t-51.5 102.5t-16 129.5v565q-37 7 -82.5 12.5t-87.5 8.5v111q38 5 81 8.5t89.5 5.5 t93.5 2t90 -2v-656q0 -56 8.5 -98t28.5 -71t53.5 -44.5t83.5 -15.5q62 0 115 30t92 84t60.5 127t21.5 156v344q-38 6 -80.5 11t-81.5 8v111q38 5 81 8.5t88 5.5t90.5 2t86.5 -2v-873q38 -6 85 -11.5t87 -8.5v-111zM925 1339q0 -22 -8.5 -42.5t-23.5 -35.5t-35.5 -23.5 t-42.5 -8.5q-23 0 -43 8.5t-35.5 23.5t-24 35.5t-8.5 42.5q0 23 8.5 43t24 35.5t35.5 24t43 8.5q22 0 42.5 -8.5t35.5 -24t23.5 -35.5t8.5 -43zM532 1339q0 -22 -8.5 -42.5t-23.5 -35.5t-35.5 -23.5t-42.5 -8.5q-23 0 -43 8.5t-35.5 23.5t-24 35.5t-8.5 42.5q0 23 8.5 43 t24 35.5t35.5 24t43 8.5q22 0 42.5 -8.5t35.5 -24t23.5 -35.5t8.5 -43z" />
<glyph unicode="&#xfd;" horiz-adv-x="1149" d="M1135 907q-29 -9 -62 -15t-67 -9l-361 -992q-42 -119 -84.5 -197.5t-93 -126t-114 -68.5t-150.5 -21q-15 0 -32.5 1t-36.5 2.5t-37 3.5t-34 5l15 166q39 -11 70.5 -17t64.5 -6q43 0 76 12t62 40.5t55.5 77t54.5 122.5l43 115h-47l-314 883q-35 3 -69 9t-62 15v111h467 v-111q-29 -9 -62.5 -15t-70.5 -9l154 -441q37 -116 50 -157.5t28 -96.5h4q6 25 15.5 58.5t21.5 72t25 77t32 96.5l137 391q-37 3 -70.5 9t-62.5 15v111h455v-111zM549 1165l-90 88l264 285l113 -108z" />
<glyph unicode="&#xfe;" horiz-adv-x="1145" d="M1057 557q0 -133 -36.5 -239.5t-106 -180.5t-168.5 -112.5t-222 -38.5q-24 0 -43.5 0.5t-39 2t-39.5 3.5t-42 6v-367q45 -3 90.5 -10t88.5 -16v-111h-541v111q41 9 87.5 16t90.5 10v1719q-38 6 -85.5 11.5t-90.5 8.5v111q39 5 83.5 8.5t92 5.5t94.5 2t90 -2v-446 q0 -30 -1 -60t-3 -61t-5.5 -61t-8.5 -56l4 -2q21 53 53.5 95t76 71.5t95.5 45t111 15.5q90 0 160 -31t118 -92t72.5 -150.5t24.5 -205.5zM864 541q0 83 -13.5 147t-41.5 108t-70.5 66.5t-99.5 22.5q-45 0 -83.5 -16t-69.5 -45t-54.5 -67.5t-39.5 -82.5t-24 -90.5t-8 -91.5 v-336q41 -13 85 -19t96 -6q74 0 133 23.5t101.5 73t65.5 127.5t23 186z" />
<glyph unicode="&#xff;" horiz-adv-x="1149" d="M1135 907q-29 -9 -62 -15t-67 -9l-361 -992q-42 -119 -84.5 -197.5t-93 -126t-114 -68.5t-150.5 -21q-15 0 -32.5 1t-36.5 2.5t-37 3.5t-34 5l15 166q39 -11 70.5 -17t64.5 -6q43 0 76 12t62 40.5t55.5 77t54.5 122.5l43 115h-47l-314 883q-35 3 -69 9t-62 15v111h467 v-111q-29 -9 -62.5 -15t-70.5 -9l154 -441q37 -116 50 -157.5t28 -96.5h4q6 25 15.5 58.5t21.5 72t25 77t32 96.5l137 391q-37 3 -70.5 9t-62.5 15v111h455v-111zM878 1339q0 -22 -8.5 -42.5t-23.5 -35.5t-35.5 -23.5t-42.5 -8.5q-23 0 -43 8.5t-35.5 23.5t-24 35.5 t-8.5 42.5q0 23 8.5 43t24 35.5t35.5 24t43 8.5q22 0 42.5 -8.5t35.5 -24t23.5 -35.5t8.5 -43zM485 1339q0 -22 -8.5 -42.5t-23.5 -35.5t-35.5 -23.5t-42.5 -8.5q-23 0 -43 8.5t-35.5 23.5t-24 35.5t-8.5 42.5q0 23 8.5 43t24 35.5t35.5 24t43 8.5q22 0 42.5 -8.5t35.5 -24 t23.5 -35.5t8.5 -43z" />
<glyph unicode="&#x100;" horiz-adv-x="1415" d="M907 0v111q42 9 82.5 15t77.5 9l-80 227h-577l-80 -227q37 -3 78.5 -9t83.5 -15v-111h-480v111q30 8 64.5 14.5t60.5 7.5l455 1249h229l457 -1249q26 -1 60.5 -7.5t64.5 -14.5v-111h-496zM764 1001q-19 56 -34.5 104t-29.5 97h-4q-10 -43 -22 -81t-37 -117l-178 -492h481 zM426 1532v127h565v-127h-565z" />
<glyph unicode="&#x101;" horiz-adv-x="1094" d="M1055 14q-36 -5 -78 -8t-87.5 -5t-91.5 -3t-87 1q0 55 2 107.5t9 95.5l-3 1q-18 -46 -50.5 -87t-77.5 -71t-98.5 -46.5t-115.5 -16.5q-63 0 -117 18.5t-91.5 53.5t-58 86t-20.5 116q0 79 39 142.5t117.5 108t194.5 68t259 23.5v71q0 55 -10.5 97.5t-35.5 72t-66 44 t-101 14.5q-46 0 -96.5 -7.5t-93.5 -21.5q-3 -38 -10 -81t-15 -85h-114v279q76 25 167 40t183 15q110 0 183 -24t116.5 -70.5t61.5 -106.5t18 -145v-545q36 -6 82.5 -11.5t85.5 -8.5v-111zM700 471q-119 0 -202 -13.5t-134.5 -39.5t-72.5 -61.5t-21 -77.5q0 -33 9.5 -60.5 t30.5 -48.5t51.5 -32t65.5 -11q62 0 112 27.5t86 73t55.5 103.5t19.5 118v22zM266 1262v139h516v-139h-516z" />
<glyph unicode="&#x102;" horiz-adv-x="1415" d="M907 0v111q42 9 82.5 15t77.5 9l-80 227h-577l-80 -227q37 -3 78.5 -9t83.5 -15v-111h-480v111q30 8 64.5 14.5t60.5 7.5l455 1249h229l457 -1249q26 -1 60.5 -7.5t64.5 -14.5v-111h-496zM764 1001q-19 56 -34.5 104t-29.5 97h-4q-10 -43 -22 -81t-37 -117l-178 -492h481 zM972 1745q0 -53 -18 -98.5t-52.5 -79.5t-85 -53t-112.5 -19q-63 0 -112.5 19t-83 53.5t-50 80t-16.5 97.5h119q0 -26 10.5 -49t30 -40t46 -26.5t58.5 -9.5q33 0 60 9.5t46.5 26.5t29.5 40t10 49h120z" />
<glyph unicode="&#x103;" horiz-adv-x="1094" d="M1055 14q-36 -5 -78 -8t-87.5 -5t-91.5 -3t-87 1q0 55 2 107.5t9 95.5l-3 1q-18 -46 -50.5 -87t-77.5 -71t-98.5 -46.5t-115.5 -16.5q-63 0 -117 18.5t-91.5 53.5t-58 86t-20.5 116q0 79 39 142.5t117.5 108t194.5 68t259 23.5v71q0 55 -10.5 97.5t-35.5 72t-66 44 t-101 14.5q-46 0 -96.5 -7.5t-93.5 -21.5q-3 -38 -10 -81t-15 -85h-114v279q76 25 167 40t183 15q110 0 183 -24t116.5 -70.5t61.5 -106.5t18 -145v-545q36 -6 82.5 -11.5t85.5 -8.5v-111zM700 471q-119 0 -202 -13.5t-134.5 -39.5t-72.5 -61.5t-21 -77.5q0 -33 9.5 -60.5 t30.5 -48.5t51.5 -32t65.5 -11q62 0 112 27.5t86 73t55.5 103.5t19.5 118v22zM786 1470q0 -56 -15.5 -105.5t-48 -88t-82 -60.5t-114.5 -22t-113.5 22t-79 61t-45 88t-14.5 105h125q0 -29 8 -54t24.5 -44t41 -30t55.5 -11q61 0 96 37t35 102h127z" />
<glyph unicode="&#x104;" horiz-adv-x="1415" d="M1356 0q-39 0 -83 -22.5t-83 -60t-62.5 -83.5t-23.5 -90q0 -39 21.5 -60.5t60.5 -21.5q62 0 135 53l57 -104q-48 -45 -106.5 -67.5t-122.5 -22.5q-52 0 -93 13t-69.5 37t-43.5 58.5t-15 77.5q0 40 12 80.5t35 78.5t55.5 72t73.5 62h-197v111q42 9 82.5 15t77.5 9l-80 227 h-577l-80 -227q37 -3 78.5 -9t83.5 -15v-111h-480v111q30 8 64.5 14.5t60.5 7.5l455 1249h229l457 -1249q26 -1 60.5 -7.5t64.5 -14.5v-111h-47zM764 1001q-19 56 -34.5 104t-29.5 97h-4q-10 -43 -22 -81t-37 -117l-178 -492h481z" />
<glyph unicode="&#x105;" horiz-adv-x="1092" d="M1063 15q-20 -2 -38.5 -3.5t-44.5 -6.5q-44 -6 -87 -28.5t-77.5 -53.5t-55.5 -68t-21 -72q0 -33 18.5 -49t51.5 -16q13 0 26 4.5t25.5 13t24.5 21t22 28.5l82 -81q-22 -33 -49.5 -59.5t-59.5 -44t-67 -26.5t-72 -9q-40 0 -74 10t-57.5 30.5t-37 50.5t-13.5 71 q0 46 15.5 87t41.5 77.5t59.5 67.5t68.5 55q-8 45 -12.5 93t-2.5 90l-4 1q-20 -46 -54 -85.5t-78.5 -68.5t-98.5 -46t-116 -17q-64 0 -116 19t-89 54t-57.5 84.5t-20.5 111.5q0 82 41.5 147t120 109.5t192 68.5t256.5 24v76q0 53 -10 94.5t-35.5 70t-66.5 43.5t-102 15 q-45 0 -95.5 -8t-94.5 -22q-4 -38 -10 -80t-14 -84h-114v277q76 25 165.5 41t179.5 16q113 0 186.5 -25t117.5 -69.5t61.5 -106.5t17.5 -138v-314q0 -30 1 -61.5t2.5 -63t4 -62t6.5 -56.5q21 -3 41 -6t39.5 -5t38.5 -4t39 -3v-109zM705 471q-119 0 -201.5 -14t-133 -39.5 t-73 -61t-22.5 -77.5q0 -33 11 -60.5t31.5 -48.5t49 -32.5t64.5 -11.5q61 0 112 28t87 73.5t55.5 103.5t19.5 118v22z" />
<glyph unicode="&#x106;" horiz-adv-x="1212" d="M1130 61q-43 -17 -91.5 -31t-100 -25t-105 -17t-104.5 -6q-157 0 -277 46.5t-200.5 135.5t-121 215t-40.5 285t42 293t126.5 233.5t212 154t293.5 54.5q82 0 167 -11t169 -30v-338h-133q-5 24 -13.5 76.5t-13.5 109.5q-23 7 -79 17t-128 10q-109 0 -192 -41t-138 -114.5 t-82.5 -172t-27.5 -213.5q0 -127 28.5 -227t87 -170.5t147.5 -107.5t208 -37q42 0 85.5 5.5t86.5 15t83.5 22.5t78.5 28zM635 1485l-35 106l373 152l51 -144z" />
<glyph unicode="&#x107;" horiz-adv-x="913" d="M858 41q-27 -11 -63.5 -22t-76.5 -18.5t-83 -12t-89 -4.5q-65 0 -123.5 10.5t-109.5 34t-93 61t-72 92t-47 127t-17 170.5q0 118 31 221t92.5 177t157.5 115.5t223 41.5q66 0 131 -10t117 -27v-301h-115q-10 43 -17 88t-10 82q-27 7 -61 12t-71 5q-69 0 -122 -27.5 t-89.5 -77t-55.5 -119t-19 -150.5t14.5 -147.5t48 -115t92.5 -77t149 -28.5q61 0 128.5 14t120.5 38l29 -152v0zM506 1165l-90 88l264 285l113 -108z" />
<glyph unicode="&#x10c;" horiz-adv-x="1212" d="M1130 61q-43 -17 -91.5 -31t-100 -25t-105 -17t-104.5 -6q-157 0 -277 46.5t-200.5 135.5t-121 215t-40.5 285t42 293t126.5 233.5t212 154t293.5 54.5q82 0 167 -11t169 -30v-338h-133q-5 24 -13.5 76.5t-13.5 109.5q-23 7 -79 17t-128 10q-109 0 -192 -41t-138 -114.5 t-82.5 -172t-27.5 -213.5q0 -127 28.5 -227t87 -170.5t147.5 -107.5t208 -37q42 0 85.5 5.5t86.5 15t83.5 22.5t78.5 28zM705 1483l-322 168l51 104l275 -123l276 123l49 -102z" />
<glyph unicode="&#x10d;" horiz-adv-x="913" d="M858 41q-27 -11 -63.5 -22t-76.5 -18.5t-83 -12t-89 -4.5q-65 0 -123.5 10.5t-109.5 34t-93 61t-72 92t-47 127t-17 170.5q0 118 31 221t92.5 177t157.5 115.5t223 41.5q66 0 131 -10t117 -27v-301h-115q-10 43 -17 88t-10 82q-27 7 -61 12t-71 5q-69 0 -122 -27.5 t-89.5 -77t-55.5 -119t-19 -150.5t14.5 -147.5t48 -115t92.5 -77t149 -28.5q61 0 128.5 14t120.5 38l29 -152v0zM541 1167l-283 267l80 90l205 -174l207 174l77 -88z" />
<glyph unicode="&#x10e;" horiz-adv-x="1450" d="M1356 707q0 -178 -57 -311.5t-159 -223t-244 -134.5t-312 -45q-52 0 -102.5 1t-95.5 2.5t-83.5 2.5t-67.5 1h-178v109q40 11 85.5 18t92.5 10v1108q-47 4 -92.5 11t-85.5 17v109h176q40 0 88.5 1t102.5 2.5t111 3t113 1.5q166 0 297 -40.5t222.5 -123.5t140 -212 t48.5 -307zM1157 694q0 132 -32 233.5t-97 169t-164 102.5t-234 35q-27 0 -55.5 -0.5t-56 -1t-52 -1.5t-43.5 -2v-1066q19 -3 42 -5t47.5 -3.5t48.5 -2.5t45 -1q123 0 224 32t174 99t113 169t40 243zM646 1483l-322 168l51 104l275 -123l276 123l49 -102z" />
<glyph unicode="&#x10f;" horiz-adv-x="1366" d="M1139 15q-37 -5 -80 -8.5t-89.5 -5.5t-93 -3t-88.5 1q0 22 1 49t3 55t5 55t8 49l-4 2q-21 -52 -54.5 -94t-77.5 -71.5t-97 -46t-113 -16.5q-94 0 -164.5 33t-117 95.5t-69.5 151.5t-23 199q0 134 36.5 240.5t105 180t166 112.5t218.5 39q42 0 83.5 -2.5t88.5 -7.5v329 q-37 6 -85 11.5t-93 8.5v109q38 5 83 8.5t92 5.5t95 2.5t92 -0.5v-1352q37 -6 83.5 -11.5t88.5 -8.5v-109zM783 864q-47 12 -92.5 17t-89.5 5q-72 0 -131.5 -23t-101.5 -72t-65.5 -126.5t-23.5 -186.5q0 -83 13.5 -147t41 -108t69.5 -67t101 -23q46 0 84.5 16.5t69.5 45.5 t54.5 68t39 82.5t23.5 90t8 91.5v337zM1190 1157l-123 33l113 371l153 -41z" />
<glyph unicode="&#x110;" horiz-adv-x="1470" d="M1378 707q0 -174 -56 -309t-159 -225t-244.5 -135.5t-312.5 -45.5q-74 0 -188 4t-160 4h-178v111q41 9 87.5 16t90.5 10v502h-186v143h186v463q-43 3 -89 10t-89 17v110h174q37 0 76.5 1t112.5 2.5t125 2.5t102 1q112 0 207.5 -17.5t174 -54t139.5 -92t102.5 -131.5 t63 -172.5t21.5 -214.5zM1180 694q0 133 -32 234t-97 169.5t-164.5 103t-233.5 34.5q-25 0 -53 -0.5t-54 -1.5t-60 -2.5t-42 -1.5v-447h295v-143h-295v-475q20 -3 43 -5t47.5 -3.5t48.5 -2.5t46 -1q124 0 225 32.5t174 99t112.5 169.5t39.5 241z" />
<glyph unicode="&#x111;" horiz-adv-x="1178" d="M967 1164v-1020q35 -6 81.5 -11.5t90.5 -8.5v-109q-37 -5 -80 -8.5t-89.5 -5.5t-93 -3t-88.5 1q0 22 1 49t3 55t5 55t8 49l-4 2q-21 -52 -54.5 -94t-77.5 -71.5t-97 -46t-113 -16.5q-94 0 -164.5 33t-117 95.5t-69.5 151.5t-23 199q0 134 36.5 240t105 178.5t166 111.5 t218.5 39q42 0 83.5 -2.5t88.5 -7.5v145h-286v116h286v93q-37 6 -85 11.5t-93 8.5v92q38 5 83 8.5t92 5.5t95 2.5t92 -1.5v-220h173v-116h-173zM783 862q-47 11 -92.5 16.5t-89.5 5.5q-72 0 -131.5 -22.5t-101.5 -71.5t-65.5 -126t-23.5 -186q0 -83 13.5 -147t41 -108 t69.5 -67t101 -23q46 0 84.5 16.5t69.5 45.5t54.5 68t39 82.5t23.5 90t8 91.5v335z" />
<glyph unicode="&#x112;" horiz-adv-x="1087" d="M57 0v111q43 9 88.5 16t90.5 10v1108q-44 3 -89 10t-90 17v110h893v-313h-131q-4 21 -12.5 67.5t-13.5 98.5h-371v-455h295q6 49 15 87.5t13 54.5h115v-420h-115q-4 16 -13 54t-15 87h-295v-491h373q5 53 14 101t14 69h133v-322h-899zM254 1532v127h565v-127h-565z" />
<glyph unicode="&#x113;" horiz-adv-x="1040" d="M946 616q0 -22 -1 -43t-2 -37.5t-2 -26t-1 -13.5h-666q-2 -94 17 -163t58 -114t98.5 -67.5t140.5 -22.5q75 0 150.5 13.5t150.5 41.5l24 -141q-84 -30 -172 -45.5t-176 -15.5q-118 0 -207.5 31.5t-150.5 95.5t-92 162.5t-31 232.5q0 114 31 211t90.5 169.5t145.5 112 t192 39.5q103 0 180 -32.5t126.5 -90t73 -133t23.5 -164.5zM758 625q1 65 -14 116t-44.5 86t-72.5 52.5t-97 17.5q-50 0 -93 -18t-76.5 -52.5t-55 -85.5t-29.5 -116h482zM270 1262v139h516v-139h-516z" />
<glyph unicode="&#x116;" horiz-adv-x="1087" d="M57 0v111q43 9 88.5 16t90.5 10v1108q-44 3 -89 10t-90 17v110h893v-313h-131q-4 21 -12.5 67.5t-13.5 98.5h-371v-455h295q6 49 15 87.5t13 54.5h115v-420h-115q-4 16 -13 54t-15 87h-295v-491h373q5 53 14 101t14 69h133v-322h-899zM668 1608q0 -24 -9.5 -46t-26 -38.5 t-38 -25.5t-45.5 -9t-46 9t-38.5 25.5t-25.5 38.5t-9 46t9 45.5t25.5 38t38.5 25.5t46 9t45.5 -9t38 -25t26 -37.5t9.5 -46.5z" />
<glyph unicode="&#x117;" horiz-adv-x="1040" d="M946 616q0 -22 -1 -43t-2 -37.5t-2 -26t-1 -13.5h-666q-2 -94 17 -163t58 -114t98.5 -67.5t140.5 -22.5q75 0 150.5 13.5t150.5 41.5l24 -141q-84 -30 -172 -45.5t-176 -15.5q-118 0 -207.5 31.5t-150.5 95.5t-92 162.5t-31 232.5q0 114 31 211t90.5 169.5t145.5 112 t192 39.5q103 0 180 -32.5t126.5 -90t73 -133t23.5 -164.5zM758 625q1 65 -14 116t-44.5 86t-72.5 52.5t-97 17.5q-50 0 -93 -18t-76.5 -52.5t-55 -85.5t-29.5 -116h482zM656 1345q0 -24 -9.5 -45.5t-26 -38t-38 -25.5t-45.5 -9t-46 9t-38.5 25t-25.5 37.5t-9 46.5 q0 24 9 46t25.5 38.5t38.5 25.5t46 9t45.5 -9t38 -25.5t26 -38.5t9.5 -46z" />
<glyph unicode="&#x118;" horiz-adv-x="1087" d="M956 6q-57 -38 -96 -73.5t-61 -68t-31.5 -62t-9.5 -58.5q0 -40 21 -61t61 -21q59 0 135 53l57 -104q-48 -45 -107 -67.5t-124 -22.5q-51 0 -91.5 13t-69 37t-43.5 58.5t-15 77.5q0 38 10.5 75.5t31.5 75t52.5 73.5t73.5 69h-693v111q43 9 88.5 16t90.5 10v1108 q-44 3 -89 10t-90 17v110h893v-313h-131q-4 21 -12.5 67.5t-13.5 98.5h-371v-455h295q6 49 15 87.5t13 54.5h115v-420h-115q-4 16 -13 54t-15 87h-295v-491h373q5 53 14 101t14 69h133v-316z" />
<glyph unicode="&#x119;" horiz-adv-x="1040" d="M913 45q-53 -18 -103.5 -50.5t-90.5 -74t-63 -87t-23 -89.5q0 -39 21.5 -60.5t60.5 -21.5q33 0 65.5 13.5t69.5 39.5l57 -104q-48 -45 -106.5 -67.5t-122.5 -22.5q-52 0 -93 13t-69.5 37t-43.5 58.5t-15 77.5q0 36 10 73t30 73.5t49.5 71t67.5 63.5q-16 -2 -37 -3t-34 -1 q-67 0 -126.5 12.5t-110.5 38.5t-92 67.5t-70 99.5t-44.5 133.5t-15.5 168.5q0 114 31 211t90.5 169.5t145.5 112t192 39.5q103 0 180 -32.5t126.5 -90t73 -133t23.5 -164.5q0 -20 -1 -40.5t-2 -38t-2 -27.5t-1 -14h-666q-2 -94 17 -163t58 -114t98.5 -67.5t140.5 -22.5 q75 0 150.5 13.5t150.5 41.5zM758 625q1 65 -14 116t-44.5 86t-72.5 52.5t-97 17.5q-50 0 -93 -18t-76.5 -52.5t-55 -85.5t-29.5 -116h482z" />
<glyph unicode="&#x11a;" horiz-adv-x="1087" d="M57 0v111q43 9 88.5 16t90.5 10v1108q-44 3 -89 10t-90 17v110h893v-313h-131q-4 21 -12.5 67.5t-13.5 98.5h-371v-455h295q6 49 15 87.5t13 54.5h115v-420h-115q-4 16 -13 54t-15 87h-295v-491h373q5 53 14 101t14 69h133v-322h-899zM533 1483l-322 168l51 104l275 -123 l276 123l49 -102z" />
<glyph unicode="&#x11b;" horiz-adv-x="1040" d="M946 616q0 -22 -1 -43t-2 -37.5t-2 -26t-1 -13.5h-666q-2 -94 17 -163t58 -114t98.5 -67.5t140.5 -22.5q75 0 150.5 13.5t150.5 41.5l24 -141q-84 -30 -172 -45.5t-176 -15.5q-118 0 -207.5 31.5t-150.5 95.5t-92 162.5t-31 232.5q0 114 31 211t90.5 169.5t145.5 112 t192 39.5q103 0 180 -32.5t126.5 -90t73 -133t23.5 -164.5zM758 625q1 65 -14 116t-44.5 86t-72.5 52.5t-97 17.5q-50 0 -93 -18t-76.5 -52.5t-55 -85.5t-29.5 -116h482zM533 1167l-283 267l80 90l205 -174l207 174l77 -88z" />
<glyph unicode="&#x11e;" horiz-adv-x="1423" d="M1366 592q-35 -8 -68.5 -14.5t-66.5 -10.5v-506q-51 -19 -107.5 -33.5t-115.5 -25t-118 -15.5t-116 -5q-156 0 -283 46t-217 134.5t-138 215.5t-48 286q0 160 49 295t144.5 234.5t233 153.5t310.5 54q94 0 188 -12.5t191 -36.5v-326h-135q-8 46 -14.5 89.5t-12.5 92.5 q-55 15 -115 23t-118 8q-111 0 -206 -34.5t-165.5 -104t-109.5 -174t-39 -240.5q0 -127 35.5 -228t103 -171t162 -106t211.5 -36q65 0 124.5 9.5t118.5 27.5v385q-43 3 -88.5 10t-87.5 17v111h498v-113zM1056 1745q0 -53 -18 -98.5t-52.5 -79.5t-85 -53t-112.5 -19 q-63 0 -112.5 19t-83 53.5t-50 80t-16.5 97.5h119q0 -26 10.5 -49t30 -40t46 -26.5t58.5 -9.5q33 0 60 9.5t46.5 26.5t29.5 40t10 49h120z" />
<glyph unicode="&#x11f;" horiz-adv-x="1094" d="M874 872q28 -40 41 -85t13 -95q0 -81 -26.5 -150t-79 -120t-130 -80t-180.5 -29q-29 0 -56.5 2t-52.5 7q-27 -19 -41 -40.5t-14 -41.5q0 -17 7.5 -30.5t26 -23t49 -15.5t75.5 -7l164 -6q184 -6 275 -84.5t91 -214.5q0 -83 -37 -153t-106 -121t-166.5 -80t-218.5 -29 q-101 0 -181 20t-136.5 58t-86.5 94.5t-30 128.5q0 44 13.5 84t37.5 75t55.5 64.5t67.5 52.5q-92 49 -92 148q0 51 29 94.5t83 77.5q-77 49 -113 124t-36 160q0 80 26.5 149t78.5 120t130 80.5t181 29.5q77 0 145 -18h344v-146h-150zM449 10h-27.5t-26.5 2 q-65 -42 -99 -94.5t-34 -107.5q0 -46 19.5 -81.5t55 -60t86.5 -37t114 -12.5q78 0 136.5 16t98 44.5t59 68t19.5 86.5q0 37 -12.5 67.5t-40 53t-71.5 35t-108 14.5zM750 674q0 49 -15 90.5t-44 71.5t-71 46.5t-96 16.5t-96 -16.5t-71 -46.5t-44.5 -71.5t-15.5 -90.5 t15.5 -90.5t44.5 -71.5t71 -46.5t96 -16.5q53 0 95 16.5t71 46.5t44.5 71.5t15.5 90.5zM799 1470q0 -56 -15.5 -105.5t-48 -88t-82 -60.5t-114.5 -22t-113.5 22t-79 61t-45 88t-14.5 105h125q0 -29 8 -54t24.5 -44t41 -30t55.5 -11q61 0 96 37t35 102h127z" />
<glyph unicode="&#x122;" horiz-adv-x="1423" d="M1366 592q-35 -8 -68.5 -14.5t-66.5 -10.5v-506q-51 -19 -107.5 -33.5t-115.5 -25t-118 -15.5t-116 -5q-156 0 -283 46t-217 134.5t-138 215.5t-48 286q0 160 49 295t144.5 234.5t233 153.5t310.5 54q94 0 188 -12.5t191 -36.5v-326h-135q-8 46 -14.5 89.5t-12.5 92.5 q-55 15 -115 23t-118 8q-111 0 -206 -34.5t-165.5 -104t-109.5 -174t-39 -240.5q0 -127 35.5 -228t103 -171t162 -106t211.5 -36q65 0 124.5 9.5t118.5 27.5v385q-43 3 -88.5 10t-87.5 17v111h498v-113zM594 -422q56 40 76.5 74.5t20.5 62.5q0 16 -4 26.5t-8.5 19.5t-8.5 19 t-4 25q0 38 25 66.5t71 28.5q48 0 76.5 -34t28.5 -83q0 -31 -11.5 -65t-38 -69t-69.5 -71t-107 -70z" />
<glyph unicode="&#x123;" horiz-adv-x="1094" d="M874 872q28 -40 41 -85t13 -95q0 -81 -26.5 -150t-79 -120t-130 -80t-180.5 -29q-29 0 -56.5 2t-52.5 7q-27 -19 -41 -40.5t-14 -41.5q0 -17 7.5 -30.5t26 -23t49 -15.5t75.5 -7l164 -6q184 -6 275 -84.5t91 -214.5q0 -83 -37 -153t-106 -121t-166.5 -80t-218.5 -29 q-101 0 -181 20t-136.5 58t-86.5 94.5t-30 128.5q0 44 13.5 84t37.5 75t55.5 64.5t67.5 52.5q-92 49 -92 148q0 51 29 94.5t83 77.5q-77 49 -113 124t-36 160q0 80 26.5 149t78.5 120t130 80.5t181 29.5q77 0 145 -18h344v-146h-150zM449 10h-27.5t-26.5 2 q-65 -42 -99 -94.5t-34 -107.5q0 -46 19.5 -81.5t55 -60t86.5 -37t114 -12.5q78 0 136.5 16t98 44.5t59 68t19.5 86.5q0 37 -12.5 67.5t-40 53t-71.5 35t-108 14.5zM750 674q0 49 -15 90.5t-44 71.5t-71 46.5t-96 16.5t-96 -16.5t-71 -46.5t-44.5 -71.5t-15.5 -90.5 t15.5 -90.5t44.5 -71.5t71 -46.5t96 -16.5q53 0 95 16.5t71 46.5t44.5 71.5t15.5 90.5zM690 1481q-28 -19 -46 -37.5t-28.5 -36t-15 -33.5t-4.5 -31q0 -16 3.5 -26.5t8 -19.5t8.5 -19.5t4 -26.5q0 -40 -28 -66t-68 -26q-22 0 -41.5 8.5t-33.5 24t-22.5 37.5t-8.5 49 q0 28 11.5 62t38 70t69.5 72t106 68z" />
<glyph unicode="&#x12a;" horiz-adv-x="657" d="M57 0v111q43 9 88.5 16t90.5 10v1108q-44 3 -89 10t-90 17v110h543v-110q-43 -10 -89 -17t-89 -10v-1108q44 -3 90.5 -10t87.5 -16v-111h-543zM48 1532v127h565v-127h-565z" />
<glyph unicode="&#x12b;" horiz-adv-x="631" d="M58 0v111q35 9 81 16t92 10v736q-37 6 -82.5 12t-90.5 9v109q39 5 81 8.5t89 5.5t95.5 2.5t92.5 -0.5v-882q45 -3 89 -10t81 -16v-111h-528zM32 1262v139h516v-139h-516z" />
<glyph unicode="&#x12e;" horiz-adv-x="657" d="M517 0q-39 0 -83 -22.5t-81.5 -59.5t-62 -83t-24.5 -92q0 -40 21 -60t60 -20q33 0 66 12.5t69 39.5l58 -104q-51 -45 -109 -67.5t-122 -22.5q-51 0 -92 13t-69.5 37t-43.5 58.5t-15 77.5q0 40 12 80.5t34.5 78t55.5 71.5t74 63h-208v109q40 11 85.5 18t92.5 10v1108 q-47 4 -92.5 11t-85.5 17v109h544v-109q-40 -10 -86 -17t-92 -11v-1108q46 -3 92 -10t86 -18v-109h-84z" />
<glyph unicode="&#x12f;" horiz-adv-x="631" d="M453 1340q0 -25 -9.5 -46.5t-26 -38t-39 -26t-47.5 -9.5t-47.5 9.5t-39 25.5t-26.5 38t-10 47t10 47t26.5 38t39 25.5t47.5 9.5t47.5 -9t39 -25t26 -38t9.5 -48zM546 0q-51 0 -100.5 -23t-89.5 -59.5t-64 -82.5t-24 -92q0 -40 21 -60t60 -20q34 0 67 12.5t69 39.5 l57 -104q-50 -45 -108.5 -67.5t-122.5 -22.5q-52 0 -92.5 13t-69 37t-43.5 58.5t-15 77.5q0 41 13 82t36.5 79.5t56 72.5t73.5 59h-210v109q40 11 86 18t92 10v737q-37 6 -85 11.5t-93 8.5v109q39 5 83.5 8.5t91.5 5.5t95 2.5t92 -0.5v-882q45 -3 89.5 -10t82.5 -18v-109 h-48z" />
<glyph unicode="&#x130;" horiz-adv-x="657" d="M57 0v111q43 9 88.5 16t90.5 10v1108q-44 3 -89 10t-90 17v110h543v-110q-43 -10 -89 -17t-89 -10v-1108q44 -3 90.5 -10t87.5 -16v-111h-543zM449 1608q0 -24 -9.5 -46t-26 -38.5t-38 -25.5t-45.5 -9t-46 9t-38.5 25.5t-25.5 38.5t-9 46t9 45.5t25.5 38t38.5 25.5t46 9 t45.5 -9t38 -25t26 -37.5t9.5 -46.5z" />
<glyph unicode="&#x131;" horiz-adv-x="627" d="M58 0v111q35 9 81 16t92 10v736q-37 6 -82.5 12t-90.5 9v109q39 5 81 8.5t89 5.5t95.5 2.5t92.5 -0.5v-882q45 -3 89 -10t81 -16v-111h-528z" />
<glyph unicode="&#x136;" horiz-adv-x="1364" d="M795 0v111q32 8 65 13.5t64 8.5l-502 561v-557q40 -3 80 -9.5t73 -16.5v-111h-518v111q43 9 88.5 16t90.5 10v1108q-44 3 -89 10t-90 17v110h518v-110q-32 -10 -72 -17t-81 -10v-526l493 528q-35 3 -72 9.5t-69 15.5v110h514v-110q-39 -9 -75 -15.5t-68 -9.5l-508 -530 l539 -582q33 -3 70 -9.5t73 -14.5v-111h-524zM499 -422q56 40 76.5 74.5t20.5 62.5q0 16 -4 26.5t-8.5 19.5t-8.5 19t-4 25q0 38 25 66.5t71 28.5q48 0 76.5 -34t28.5 -83q0 -31 -11.5 -65t-38 -69t-69.5 -71t-107 -70z" />
<glyph unicode="&#x137;" horiz-adv-x="1128" d="M788 0l-393 532v-395q44 -3 84 -9.5t72 -16.5v-111h-510v111q40 9 84.5 16t87.5 10v1213q-37 6 -85 11.5t-91 8.5v111q38 5 82.5 8.5t92 5.5t94.5 2t89 -2v-948l305 336q-41 5 -73 11.5t-54 14.5v109h484v-111q-29 -8 -65.5 -14.5t-80.5 -11.5l-307 -328l320 -414 q36 -3 79.5 -10t86.5 -16v-113h-302zM413 -422q56 40 76.5 74.5t20.5 62.5q0 16 -4 26.5t-8.5 19.5t-8.5 19t-4 25q0 38 25 66.5t71 28.5q48 0 76.5 -34t28.5 -83q0 -31 -11.5 -65t-38 -69t-69.5 -71t-107 -70z" />
<glyph unicode="&#x139;" horiz-adv-x="975" d="M57 0v111q43 9 88.5 16t90.5 10v1108q-44 3 -89 10t-90 17v110h543v-110q-43 -10 -89 -17t-89 -10v-1091h362q6 47 15 99.5t20 98.5h129v-352h-891zM357 1485l-35 106l373 152l51 -144z" />
<glyph unicode="&#x13a;" horiz-adv-x="602" d="M41 0v111q40 9 84.5 16t87.5 10v1213q-37 6 -85 11.5t-91 8.5v111q39 5 83.5 8.5t91.5 5.5t94 2t89 -2v-1358q44 -3 87.5 -9.5t84.5 -16.5v-111h-526zM211 1608l-35 106l373 152l51 -144z" />
<glyph unicode="&#x13b;" horiz-adv-x="975" d="M57 0v111q43 9 88.5 16t90.5 10v1108q-44 3 -89 10t-90 17v110h543v-110q-43 -10 -89 -17t-89 -10v-1091h362q6 47 15 99.5t20 98.5h129v-352h-891zM354 -422q56 40 76.5 74.5t20.5 62.5q0 16 -4 26.5t-8.5 19.5t-8.5 19t-4 25q0 38 25 66.5t71 28.5q48 0 76.5 -34 t28.5 -83q0 -31 -11.5 -65t-38 -69t-69.5 -71t-107 -70z" />
<glyph unicode="&#x13c;" horiz-adv-x="602" d="M41 0v111q40 9 84.5 16t87.5 10v1213q-37 6 -85 11.5t-91 8.5v111q39 5 83.5 8.5t91.5 5.5t94 2t89 -2v-1358q44 -3 87.5 -9.5t84.5 -16.5v-111h-526zM141 -422q56 40 76.5 74.5t20.5 62.5q0 16 -4 26.5t-8.5 19.5t-8.5 19t-4 25q0 38 25 66.5t71 28.5q48 0 76.5 -34 t28.5 -83q0 -31 -11.5 -65t-38 -69t-69.5 -71t-107 -70z" />
<glyph unicode="&#x13d;" horiz-adv-x="995" d="M57 0v111q43 9 88.5 16t90.5 10v1108q-44 3 -89 10t-90 17v110h543v-110q-43 -10 -89 -17t-89 -10v-1091h362q6 47 15 99.5t20 98.5h129v-352h-891zM826 1157l-123 33l113 371l153 -41z" />
<glyph unicode="&#x13e;" horiz-adv-x="797" d="M41 0v111q40 9 84.5 16t87.5 10v1213q-37 6 -85 11.5t-91 8.5v111q39 5 83.5 8.5t91.5 5.5t94 2t89 -2v-1358q44 -3 87.5 -9.5t84.5 -16.5v-111h-526zM619 1157l-123 33l113 371l153 -41z" />
<glyph unicode="&#x141;" horiz-adv-x="989" d="M72 0v111q42 9 87.5 16t90.5 10v506l-187 -65l-32 139l219 76v452q-44 3 -89 10t-89 17v110h544v-110q-44 -10 -89 -17t-89 -10v-395l240 82l33 -141l-273 -93v-544h361q4 40 13.5 92.5t21.5 105.5h129v-352h-891z" />
<glyph unicode="&#x142;" horiz-adv-x="643" d="M57 0v111q41 9 85 16t87 10v580l-147 -76l-39 137l186 94v478q-38 6 -85 11.5t-91 8.5v111q41 5 85.5 8.5t91.5 5.5t94 2t90 -2v-526l147 75l39 -137l-186 -94v-676q43 -3 87.5 -10t84.5 -16v-111h-529z" />
<glyph unicode="&#x143;" horiz-adv-x="1546" d="M1489 1272q-35 -10 -70.5 -17.5t-70.5 -11.5v-1243h-254l-445 741q-32 53 -65 109.5t-66 113.5t-63 111t-54 99q5 -85 8.5 -195.5t5.5 -240t2.5 -273t0.5 -326.5q41 -3 84 -10.5t80 -17.5v-111h-525v111q47 11 91.5 18t87.5 10v1106q-44 3 -89 10t-90 17v110h435 l442 -735q32 -54 65.5 -110.5t66 -113.5t62.5 -111t54 -99q-5 87 -8.5 197.5t-5.5 239t-2.5 270t-0.5 323.5q-42 3 -83 10.5t-76 18.5v110h483v-110zM670 1485l-35 106l373 152l51 -144z" />
<glyph unicode="&#x144;" horiz-adv-x="1276" d="M879 0v655q0 56 -8.5 98t-28 71.5t-53 45t-82.5 15.5q-61 0 -114.5 -29.5t-93 -84t-61.5 -127.5t-22 -157v-350q55 -4 98 -12.5t61 -13.5v-111h-516v111q20 5 67.5 13.5t104.5 12.5v735q-37 7 -83 12.5t-89 8.5v111q40 5 84 8.5t90.5 5.5t92 2t86.5 -2q0 -24 -1 -52 t-3 -57t-5 -56.5t-8 -49.5l4 -2q23 53 57.5 96.5t80 74.5t101 47.5t118.5 16.5q85 0 145 -24.5t95.5 -69t51 -103.5t15.5 -132v-570q58 -4 103.5 -12.5t64.5 -13.5v-111h-352zM663 1165l-90 88l264 285l113 -108z" />
<glyph unicode="&#x145;" horiz-adv-x="1546" d="M1489 1272q-35 -10 -70.5 -17.5t-70.5 -11.5v-1243h-254l-445 741q-32 53 -65 109.5t-66 113.5t-63 111t-54 99q5 -85 8.5 -195.5t5.5 -240t2.5 -273t0.5 -326.5q41 -3 84 -10.5t80 -17.5v-111h-525v111q47 11 91.5 18t87.5 10v1106q-44 3 -89 10t-90 17v110h435 l442 -735q32 -54 65.5 -110.5t66 -113.5t62.5 -111t54 -99q-5 87 -8.5 197.5t-5.5 239t-2.5 270t-0.5 323.5q-42 3 -83 10.5t-76 18.5v110h483v-110zM604 -422q56 40 76.5 74.5t20.5 62.5q0 16 -4 26.5t-8.5 19.5t-8.5 19t-4 25q0 38 25 66.5t71 28.5q48 0 76.5 -34 t28.5 -83q0 -31 -11.5 -65t-38 -69t-69.5 -71t-107 -70z" />
<glyph unicode="&#x146;" horiz-adv-x="1276" d="M879 0v655q0 56 -8.5 98t-28 71.5t-53 45t-82.5 15.5q-61 0 -114.5 -29.5t-93 -84t-61.5 -127.5t-22 -157v-350q55 -4 98 -12.5t61 -13.5v-111h-516v111q20 5 67.5 13.5t104.5 12.5v735q-37 7 -83 12.5t-89 8.5v111q40 5 84 8.5t90.5 5.5t92 2t86.5 -2q0 -24 -1 -52 t-3 -57t-5 -56.5t-8 -49.5l4 -2q23 53 57.5 96.5t80 74.5t101 47.5t118.5 16.5q85 0 145 -24.5t95.5 -69t51 -103.5t15.5 -132v-570q58 -4 103.5 -12.5t64.5 -13.5v-111h-352zM503 -422q56 40 76.5 74.5t20.5 62.5q0 16 -4 26.5t-8.5 19.5t-8.5 19t-4 25q0 38 25 66.5 t71 28.5q48 0 76.5 -34t28.5 -83q0 -31 -11.5 -65t-38 -69t-69.5 -71t-107 -70z" />
<glyph unicode="&#x147;" horiz-adv-x="1546" d="M1489 1272q-35 -10 -70.5 -17.5t-70.5 -11.5v-1243h-254l-445 741q-32 53 -65 109.5t-66 113.5t-63 111t-54 99q5 -85 8.5 -195.5t5.5 -240t2.5 -273t0.5 -326.5q41 -3 84 -10.5t80 -17.5v-111h-525v111q47 11 91.5 18t87.5 10v1106q-44 3 -89 10t-90 17v110h435 l442 -735q32 -54 65.5 -110.5t66 -113.5t62.5 -111t54 -99q-5 87 -8.5 197.5t-5.5 239t-2.5 270t-0.5 323.5q-42 3 -83 10.5t-76 18.5v110h483v-110zM766 1483l-322 168l51 104l275 -123l276 123l49 -102z" />
<glyph unicode="&#x148;" horiz-adv-x="1276" d="M879 0v655q0 56 -8.5 98t-28 71.5t-53 45t-82.5 15.5q-61 0 -114.5 -29.5t-93 -84t-61.5 -127.5t-22 -157v-350q55 -4 98 -12.5t61 -13.5v-111h-516v111q20 5 67.5 13.5t104.5 12.5v735q-37 7 -83 12.5t-89 8.5v111q40 5 84 8.5t90.5 5.5t92 2t86.5 -2q0 -24 -1 -52 t-3 -57t-5 -56.5t-8 -49.5l4 -2q23 53 57.5 96.5t80 74.5t101 47.5t118.5 16.5q85 0 145 -24.5t95.5 -69t51 -103.5t15.5 -132v-570q58 -4 103.5 -12.5t64.5 -13.5v-111h-352zM643 1167l-283 267l80 90l205 -174l207 174l77 -88z" />
<glyph unicode="&#x14c;" horiz-adv-x="1444" d="M1358 709q0 -174 -52.5 -309.5t-141.5 -228.5t-208.5 -142t-253.5 -49q-153 0 -268 49.5t-192.5 140.5t-116.5 219t-39 285q0 174 51.5 309.5t141 228.5t208.5 142t254 49q152 0 267.5 -50t193 -141t117 -218.5t39.5 -284.5zM1159 681q0 124 -27 226.5t-81.5 175.5 t-136.5 113.5t-192 40.5q-92 0 -172.5 -34.5t-139.5 -102.5t-93 -168t-34 -230q0 -125 27.5 -227t82 -175.5t136.5 -114t192 -40.5q92 0 172 35t139.5 103t93 168t33.5 230zM438 1532v127h565v-127h-565z" />
<glyph unicode="&#x14d;" horiz-adv-x="1120" d="M1036 524q0 -115 -32 -214t-95 -172.5t-155.5 -114.5t-210.5 -41q-106 0 -190.5 31t-144.5 95t-92 160.5t-32 225.5q0 115 32 214t95 172.5t156 114.5t211 41q105 0 189.5 -31.5t144.5 -95t92 -160.5t32 -225zM846 510q0 88 -19.5 158t-56.5 118t-90 72.5t-119 24.5 q-65 0 -118 -24t-90.5 -71t-58 -118t-20.5 -162q0 -88 19.5 -157.5t56 -117t89 -72t118.5 -24.5q63 0 115.5 22.5t91.5 68.5t60.5 117t21.5 165zM307 1262v139h516v-139h-516z" />
<glyph unicode="&#x150;" horiz-adv-x="1444" d="M1358 709q0 -174 -52.5 -309.5t-141.5 -228.5t-208.5 -142t-253.5 -49q-153 0 -268 49.5t-192.5 140.5t-116.5 219t-39 285q0 174 51.5 309.5t141 228.5t208.5 142t254 49q152 0 267.5 -50t193 -141t117 -218.5t39.5 -284.5zM1159 681q0 124 -27 226.5t-81.5 175.5 t-136.5 113.5t-192 40.5q-92 0 -172.5 -34.5t-139.5 -102.5t-93 -168t-34 -230q0 -125 27.5 -227t82 -175.5t136.5 -114t192 -40.5q92 0 172 35t139.5 103t93 168t33.5 230zM921 1483l-86 82l269 260l106 -109zM563 1483l-90 82l231 266l113 -102z" />
<glyph unicode="&#x151;" horiz-adv-x="1120" d="M1036 524q0 -115 -32 -214t-95 -172.5t-155.5 -114.5t-210.5 -41q-106 0 -190.5 31t-144.5 95t-92 160.5t-32 225.5q0 115 32 214t95 172.5t156 114.5t211 41q105 0 189.5 -31.5t144.5 -95t92 -160.5t32 -225zM846 510q0 88 -19.5 158t-56.5 118t-90 72.5t-119 24.5 q-65 0 -118 -24t-90.5 -71t-58 -118t-20.5 -162q0 -88 19.5 -157.5t56 -117t89 -72t118.5 -24.5q63 0 115.5 22.5t91.5 68.5t60.5 117t21.5 165zM768 1167l-88 82l263 275l110 -103zM412 1167l-90 80l242 289l114 -98z" />
<glyph unicode="&#x152;" horiz-adv-x="1772" d="M928 0q-59 -10 -115.5 -15t-110.5 -5q-150 0 -266 49t-194 140.5t-117 219t-39 285.5q0 169 50.5 305.5t140.5 231t209.5 143.5t254.5 49q98 0 203 -21h684v-313h-131q-4 21 -12.5 67.5t-14.5 98.5h-368v-455h295q5 49 14 87.5t14 54.5h115v-420h-115q-5 16 -14 54 t-14 87h-295v-491h377q5 53 14 101t14 69h131v-322h-710zM915 1208q-48 15 -93.5 22t-100.5 7q-93 0 -173 -35t-139.5 -103.5t-92.5 -169t-33 -227.5q0 -125 27.5 -227.5t82.5 -176.5t137.5 -113.5t190.5 -39.5q44 0 96 8t98 21v1034z" />
<glyph unicode="&#x153;" horiz-adv-x="1790" d="M1696 612q0 -10 -0.5 -22t-1 -25.5t-1.5 -29.5t-2 -31h-665q-4 -92 14.5 -164t57 -118.5t100 -69.5t142.5 -23q75 0 153 14.5t145 40.5l25 -141q-77 -28 -167 -44.5t-181 -16.5q-80 0 -141.5 14t-110.5 41t-84.5 65.5t-56.5 81.5q-28 -45 -65 -83t-86 -64.5t-105 -40.5 t-123 -14q-104 0 -188.5 30.5t-145 93.5t-93 159.5t-32.5 228.5q0 114 32.5 214.5t97 174t157.5 113.5t208 40q54 0 108 -10.5t103 -34.5t87.5 -61.5t66.5 -87.5q25 42 59 78t78 61.5t97 40t115 14.5q107 0 183.5 -33t125 -90t71.5 -133t23 -168zM1507 635q1 66 -13.5 113 t-44 80.5t-72 51t-95.5 17.5q-50 0 -92.5 -18t-75 -51t-54.5 -80t-29 -113h476zM846 510q0 87 -19.5 158t-55.5 117t-88.5 72t-121.5 26q-57 0 -109.5 -21t-92.5 -66.5t-62.5 -117.5t-22.5 -170q0 -89 18.5 -157.5t55 -116t89.5 -72.5t120 -25q60 0 114.5 23t93.5 69.5 t60 114.5t21 166z" />
<glyph unicode="&#x154;" horiz-adv-x="1241" d="M897 0l-369 616h-106v-479q41 -3 80.5 -9.5t72.5 -16.5v-111h-518v111q43 9 88.5 16t90.5 10v1108q-44 3 -89 10t-90 17v110h160q12 0 33 0.5t65.5 2t70.5 2.5t63 2t75.5 1.5t73.5 0.5q113 0 201.5 -20t152.5 -63.5t98.5 -114.5t34.5 -171q0 -79 -27 -143.5t-76.5 -112.5 t-116.5 -78t-148 -43q20 -24 40 -53t50 -74l235 -379q43 -6 81.5 -12t76.5 -14v-113h-303zM889 1004q0 64 -20 109.5t-59.5 73.5t-100 41t-144.5 13q-16 0 -34.5 -0.5t-38.5 -1t-38 -2t-32 -2.5v-477h158q75 0 133 17t97 49t59 77.5t20 102.5zM457 1485l-35 106l373 152 l51 -144z" />
<glyph unicode="&#x155;" horiz-adv-x="803" d="M762 854q-95 15 -157 -7t-104 -78.5t-63.5 -147.5t-21.5 -211v-273q43 -3 90 -10t84 -16v-111h-531v111q41 9 85.5 16t86.5 10v735q-32 6 -79.5 12t-92.5 9v111q39 5 83.5 8.5t91.5 5.5t92 2t86 -2q0 -47 -6 -114t-17 -130l2 -2q16 55 45.5 110t73.5 93t109.5 53.5 t148.5 5.5zM463 1165l-90 88l264 285l113 -108z" />
<glyph unicode="&#x156;" horiz-adv-x="1241" d="M897 0l-369 616h-106v-479q41 -3 80.5 -9.5t72.5 -16.5v-111h-518v111q43 9 88.5 16t90.5 10v1108q-44 3 -89 10t-90 17v110h160q12 0 33 0.5t65.5 2t70.5 2.5t63 2t75.5 1.5t73.5 0.5q113 0 201.5 -20t152.5 -63.5t98.5 -114.5t34.5 -171q0 -79 -27 -143.5t-76.5 -112.5 t-116.5 -78t-148 -43q20 -24 40 -53t50 -74l235 -379q43 -6 81.5 -12t76.5 -14v-113h-303zM889 1004q0 64 -20 109.5t-59.5 73.5t-100 41t-144.5 13q-16 0 -34.5 -0.5t-38.5 -1t-38 -2t-32 -2.5v-477h158q75 0 133 17t97 49t59 77.5t20 102.5zM444 -422q56 40 76.5 74.5 t20.5 62.5q0 16 -4 26.5t-8.5 19.5t-8.5 19t-4 25q0 38 25 66.5t71 28.5q48 0 76.5 -34t28.5 -83q0 -31 -11.5 -65t-38 -69t-69.5 -71t-107 -70z" />
<glyph unicode="&#x157;" horiz-adv-x="803" d="M762 854q-95 15 -157 -7t-104 -78.5t-63.5 -147.5t-21.5 -211v-273q43 -3 90 -10t84 -16v-111h-531v111q41 9 85.5 16t86.5 10v735q-32 6 -79.5 12t-92.5 9v111q39 5 83.5 8.5t91.5 5.5t92 2t86 -2q0 -47 -6 -114t-17 -130l2 -2q16 55 45.5 110t73.5 93t109.5 53.5 t148.5 5.5zM172 -422q56 40 76.5 74.5t20.5 62.5q0 16 -4 26.5t-8.5 19.5t-8.5 19t-4 25q0 38 25 66.5t71 28.5q48 0 76.5 -34t28.5 -83q0 -31 -11.5 -65t-38 -69t-69.5 -71t-107 -70z" />
<glyph unicode="&#x158;" horiz-adv-x="1241" d="M897 0l-369 616h-106v-479q41 -3 80.5 -9.5t72.5 -16.5v-111h-518v111q43 9 88.5 16t90.5 10v1108q-44 3 -89 10t-90 17v110h160q12 0 33 0.5t65.5 2t70.5 2.5t63 2t75.5 1.5t73.5 0.5q113 0 201.5 -20t152.5 -63.5t98.5 -114.5t34.5 -171q0 -79 -27 -143.5t-76.5 -112.5 t-116.5 -78t-148 -43q20 -24 40 -53t50 -74l235 -379q43 -6 81.5 -12t76.5 -14v-113h-303zM889 1004q0 64 -20 109.5t-59.5 73.5t-100 41t-144.5 13q-16 0 -34.5 -0.5t-38.5 -1t-38 -2t-32 -2.5v-477h158q75 0 133 17t97 49t59 77.5t20 102.5zM572 1483l-322 168l51 104 l275 -123l276 123l49 -102z" />
<glyph unicode="&#x159;" horiz-adv-x="803" d="M762 854q-95 15 -157 -7t-104 -78.5t-63.5 -147.5t-21.5 -211v-273q43 -3 90 -10t84 -16v-111h-531v111q41 9 85.5 16t86.5 10v735q-32 6 -79.5 12t-92.5 9v111q39 5 83.5 8.5t91.5 5.5t92 2t86 -2q0 -47 -6 -114t-17 -130l2 -2q16 55 45.5 110t73.5 93t109.5 53.5 t148.5 5.5zM480 1167l-283 267l80 90l205 -174l207 174l77 -88z" />
<glyph unicode="&#x15a;" horiz-adv-x="1049" d="M946 379q0 -90 -33 -164t-96.5 -127t-154 -80.5t-199.5 -27.5q-82 0 -177 10t-165 26v330h135q10 -53 16.5 -98t10.5 -86q35 -10 90.5 -18.5t109.5 -8.5q61 0 109 13.5t84 42t55 71t19 98.5q0 60 -30.5 105t-78.5 76t-105 57t-114.5 51t-112.5 57t-101 76t-72.5 107 t-26.5 140q0 80 29.5 148.5t93 120.5t153.5 78.5t201 26.5q70 0 142.5 -8t139.5 -21v-317h-131q-10 51 -15.5 96.5t-8.5 83.5q-26 5 -71 9.5t-77 4.5q-64 0 -114.5 -14.5t-84.5 -43t-48.5 -64.5t-14.5 -81q0 -56 28 -98.5t71.5 -71.5t98.5 -54.5t115 -51.5t115.5 -56.5 t105 -75t79.5 -109.5t30 -152zM455 1485l-35 106l373 152l51 -144z" />
<glyph unicode="&#x15b;" horiz-adv-x="899" d="M803 279q0 -67 -26.5 -122t-79 -94t-128.5 -60t-174 -21q-54 0 -105 3.5t-89.5 8.5t-60 8.5t-29.5 5.5v289h112q5 -18 13.5 -61.5t13.5 -96.5q18 -4 62 -11t100 -7q48 0 85.5 9t63.5 27t39.5 45t13.5 62q0 40 -21 69.5t-55.5 50.5t-86 42t-101.5 41t-93.5 43.5t-79 57 t-56.5 81t-21 109.5q0 63 26.5 114.5t78.5 88t127.5 56t171.5 19.5q76 0 143.5 -9t97.5 -15v-281h-112q-4 19 -12 62.5t-13 97.5q-14 3 -48 7.5t-75 4.5q-95 0 -146.5 -33.5t-51.5 -97.5q0 -39 21 -68t55.5 -50t85.5 -41.5t102 -40.5t94.5 -43.5t79.5 -57.5t57 -81.5 t21 -110.5zM424 1165l-90 88l264 285l113 -108z" />
<glyph unicode="&#x15e;" horiz-adv-x="1049" d="M946 379q0 -90 -33 -164t-96.5 -127t-154 -80.5t-199.5 -27.5q-82 0 -177 10t-165 26v330h135q10 -53 16.5 -98t10.5 -86q35 -10 90.5 -18.5t109.5 -8.5q61 0 109 13.5t84 42t55 71t19 98.5q0 60 -30.5 105t-78.5 76t-105 57t-114.5 51t-112.5 57t-101 76t-72.5 107 t-26.5 140q0 80 29.5 148.5t93 120.5t153.5 78.5t201 26.5q70 0 142.5 -8t139.5 -21v-317h-131q-10 51 -15.5 96.5t-8.5 83.5q-26 5 -71 9.5t-77 4.5q-64 0 -114.5 -14.5t-84.5 -43t-48.5 -64.5t-14.5 -81q0 -56 28 -98.5t71.5 -71.5t98.5 -54.5t115 -51.5t115.5 -56.5 t105 -75t79.5 -109.5t30 -152zM559 -82q39 -51 53.5 -101t7.5 -99t-33.5 -98.5t-70.5 -100.5h-149q42 53 65 94.5t28.5 80.5t-8.5 79t-50 84z" />
<glyph unicode="&#x15f;" horiz-adv-x="899" d="M803 279q0 -67 -26.5 -122t-79 -94t-128.5 -60t-174 -21q-54 0 -105 3.5t-89.5 8.5t-60 8.5t-29.5 5.5v289h112q5 -18 13.5 -61.5t13.5 -96.5q18 -4 62 -11t100 -7q48 0 85.5 9t63.5 27t39.5 45t13.5 62q0 40 -21 69.5t-55.5 50.5t-86 42t-101.5 41t-93.5 43.5t-79 57 t-56.5 81t-21 109.5q0 63 26.5 114.5t78.5 88t127.5 56t171.5 19.5q76 0 143.5 -9t97.5 -15v-281h-112q-4 19 -12 62.5t-13 97.5q-14 3 -48 7.5t-75 4.5q-95 0 -146.5 -33.5t-51.5 -97.5q0 -39 21 -68t55.5 -50t85.5 -41.5t102 -40.5t94.5 -43.5t79.5 -57.5t57 -81.5 t21 -110.5zM487 -82q39 -51 53.5 -101t7.5 -99t-33.5 -98.5t-70.5 -100.5h-149q42 53 65 94.5t28.5 80.5t-8.5 79t-50 84z" />
<glyph unicode="&#x160;" horiz-adv-x="1049" d="M946 379q0 -90 -33 -164t-96.5 -127t-154 -80.5t-199.5 -27.5q-82 0 -177 10t-165 26v330h135q10 -53 16.5 -98t10.5 -86q35 -10 90.5 -18.5t109.5 -8.5q61 0 109 13.5t84 42t55 71t19 98.5q0 60 -30.5 105t-78.5 76t-105 57t-114.5 51t-112.5 57t-101 76t-72.5 107 t-26.5 140q0 80 29.5 148.5t93 120.5t153.5 78.5t201 26.5q70 0 142.5 -8t139.5 -21v-317h-131q-10 51 -15.5 96.5t-8.5 83.5q-26 5 -71 9.5t-77 4.5q-64 0 -114.5 -14.5t-84.5 -43t-48.5 -64.5t-14.5 -81q0 -56 28 -98.5t71.5 -71.5t98.5 -54.5t115 -51.5t115.5 -56.5 t105 -75t79.5 -109.5t30 -152zM525 1483l-322 168l51 104l275 -123l276 123l49 -102z" />
<glyph unicode="&#x161;" horiz-adv-x="899" d="M803 279q0 -67 -26.5 -122t-79 -94t-128.5 -60t-174 -21q-54 0 -105 3.5t-89.5 8.5t-60 8.5t-29.5 5.5v289h112q5 -18 13.5 -61.5t13.5 -96.5q18 -4 62 -11t100 -7q48 0 85.5 9t63.5 27t39.5 45t13.5 62q0 40 -21 69.5t-55.5 50.5t-86 42t-101.5 41t-93.5 43.5t-79 57 t-56.5 81t-21 109.5q0 63 26.5 114.5t78.5 88t127.5 56t171.5 19.5q76 0 143.5 -9t97.5 -15v-281h-112q-4 19 -12 62.5t-13 97.5q-14 3 -48 7.5t-75 4.5q-95 0 -146.5 -33.5t-51.5 -97.5q0 -39 21 -68t55.5 -50t85.5 -41.5t102 -40.5t94.5 -43.5t79.5 -57.5t57 -81.5 t21 -110.5zM450 1167l-283 267l80 90l205 -174l207 174l77 -88z" />
<glyph unicode="&#x162;" horiz-adv-x="1149" d="M981 1038q-10 60 -18 106t-11 85h-284v-1092q47 -3 92.5 -10t85.5 -18v-109h-544v109q41 11 86.5 18t92.5 10v1092h-284q-3 -39 -10.5 -85t-18.5 -106h-130v344h1073v-344h-130zM628 -82q39 -51 53.5 -101t7.5 -99t-33.5 -98.5t-70.5 -100.5h-149q42 53 65 94.5 t28.5 80.5t-8.5 79t-50 84z" />
<glyph unicode="&#x163;" horiz-adv-x="760" d="M692 6q-43 -10 -98.5 -16t-106.5 -6q-79 0 -131 17t-83 53t-44.5 93.5t-13.5 141.5v585h-209v144h209v330l184 51v-381h285v-144h-285v-520q0 -64 7 -105t23.5 -64.5t44 -33.5t71.5 -10q35 0 68 4.5t61 12.5zM503 -82q39 -51 53.5 -101t7.5 -99t-33.5 -98.5t-70.5 -100.5 h-149q42 53 65 94.5t28.5 80.5t-8.5 79t-50 84z" />
<glyph unicode="&#x164;" horiz-adv-x="1149" d="M981 1038q-10 60 -18 106t-11 85h-284v-1092q47 -3 92.5 -10t85.5 -18v-109h-544v109q41 11 86.5 18t92.5 10v1092h-284q-3 -39 -10.5 -85t-18.5 -106h-130v344h1073v-344h-130zM572 1483l-322 168l51 104l275 -123l276 123l49 -102z" />
<glyph unicode="&#x165;" horiz-adv-x="797" d="M692 6q-43 -10 -98.5 -16t-106.5 -6q-79 0 -131 17t-83 53t-44.5 93.5t-13.5 141.5v585h-209v144h209v330l184 51v-381h285v-144h-285v-520q0 -64 7 -105t23.5 -64.5t44 -33.5t71.5 -10q35 0 68 4.5t61 12.5zM645 1157l-123 33l113 371l153 -41z" />
<glyph unicode="&#x16a;" horiz-adv-x="1464" d="M1409 1272q-67 -18 -141 -27v-717q0 -133 -35 -235.5t-104.5 -172t-173 -105t-238.5 -35.5q-105 0 -186 18.5t-138.5 52.5t-95 79.5t-59 99.5t-30.5 113.5t-9 125.5v776q-81 10 -142 27v110h492v-110q-34 -10 -76 -17t-86 -10v-762q0 -78 15.5 -140.5t53 -109.5 t105 -73.5t168.5 -26.5q92 0 158 21t109.5 67t65 119t21.5 178v727q-45 3 -86.5 9.5t-76.5 17.5v110h489v-110zM451 1532v127h565v-127h-565z" />
<glyph unicode="&#x16b;" horiz-adv-x="1247" d="M1212 14q-37 -5 -80 -8.5t-89.5 -5.5t-93 -2t-87.5 2q0 23 1 50.5t3.5 57t5.5 57t7 50.5h-5q-22 -53 -56.5 -95.5t-80.5 -73.5t-102 -47.5t-121 -16.5q-84 0 -143 24.5t-94.5 68.5t-51.5 102.5t-16 129.5v565q-37 7 -82.5 12.5t-87.5 8.5v111q38 5 81 8.5t89.5 5.5 t93.5 2t90 -2v-656q0 -56 8.5 -98t28.5 -71t53.5 -44.5t83.5 -15.5q62 0 115 30t92 84t60.5 127t21.5 156v344q-38 6 -80.5 11t-81.5 8v111q38 5 81 8.5t88 5.5t90.5 2t86.5 -2v-873q38 -6 85 -11.5t87 -8.5v-111zM363 1262v139h516v-139h-516z" />
<glyph unicode="&#x16e;" horiz-adv-x="1464" d="M1409 1272q-67 -18 -141 -27v-717q0 -133 -35 -235.5t-104.5 -172t-173 -105t-238.5 -35.5q-105 0 -186 18.5t-138.5 52.5t-95 79.5t-59 99.5t-30.5 113.5t-9 125.5v776q-81 10 -142 27v110h492v-110q-34 -10 -76 -17t-86 -10v-762q0 -78 15.5 -140.5t53 -109.5 t105 -73.5t168.5 -26.5q92 0 158 21t109.5 67t65 119t21.5 178v727q-45 3 -86.5 9.5t-76.5 17.5v110h489v-110zM975 1681q0 -48 -17.5 -89.5t-50.5 -72t-79.5 -47t-102.5 -16.5q-53 0 -95.5 13.5t-72.5 40t-45.5 66.5t-15.5 93q0 47 17.5 88t50.5 71.5t79 47t101 16.5 q54 0 96.5 -13t72.5 -39t46 -66t16 -93zM838 1673q0 29 -6.5 51t-20 36.5t-32.5 22t-43 7.5q-21 0 -40 -7t-33.5 -21.5t-23 -36.5t-8.5 -50t7 -50t20 -36.5t33 -22t45 -7.5q21 0 39.5 7t32.5 21t22 36t8 50z" />
<glyph unicode="&#x16f;" horiz-adv-x="1247" d="M1212 14q-37 -5 -80 -8.5t-89.5 -5.5t-93 -2t-87.5 2q0 23 1 50.5t3.5 57t5.5 57t7 50.5h-5q-22 -53 -56.5 -95.5t-80.5 -73.5t-102 -47.5t-121 -16.5q-84 0 -143 24.5t-94.5 68.5t-51.5 102.5t-16 129.5v565q-37 7 -82.5 12.5t-87.5 8.5v111q38 5 81 8.5t89.5 5.5 t93.5 2t90 -2v-656q0 -56 8.5 -98t28.5 -71t53.5 -44.5t83.5 -15.5q62 0 115 30t92 84t60.5 127t21.5 156v344q-38 6 -80.5 11t-81.5 8v111q38 5 81 8.5t88 5.5t90.5 2t86.5 -2v-873q38 -6 85 -11.5t87 -8.5v-111zM852 1356q0 -49 -17.5 -91.5t-50.5 -74t-79 -49t-101 -17.5 q-53 0 -95 13.5t-71.5 41t-45 68t-15.5 94.5q0 49 17 91.5t49.5 73.5t78.5 48t101 17q54 0 96.5 -13.5t72 -40.5t45 -67.5t15.5 -93.5zM717 1348q0 29 -7 51t-20 37t-32 22.5t-43 7.5q-21 0 -40 -7.5t-33.5 -22t-23 -36.5t-8.5 -50q0 -30 7 -52.5t20 -37t32 -22t44 -7.5 q21 0 40 7t33.5 22t22.5 37t8 51z" />
<glyph unicode="&#x170;" horiz-adv-x="1464" d="M1409 1272q-67 -18 -141 -27v-717q0 -133 -35 -235.5t-104.5 -172t-173 -105t-238.5 -35.5q-105 0 -186 18.5t-138.5 52.5t-95 79.5t-59 99.5t-30.5 113.5t-9 125.5v776q-81 10 -142 27v110h492v-110q-34 -10 -76 -17t-86 -10v-762q0 -78 15.5 -140.5t53 -109.5 t105 -73.5t168.5 -26.5q92 0 158 21t109.5 67t65 119t21.5 178v727q-45 3 -86.5 9.5t-76.5 17.5v110h489v-110zM897 1483l-86 82l269 260l106 -109zM539 1483l-90 82l231 266l113 -102z" />
<glyph unicode="&#x171;" horiz-adv-x="1247" d="M1212 14q-37 -5 -80 -8.5t-89.5 -5.5t-93 -2t-87.5 2q0 23 1 50.5t3.5 57t5.5 57t7 50.5h-5q-22 -53 -56.5 -95.5t-80.5 -73.5t-102 -47.5t-121 -16.5q-84 0 -143 24.5t-94.5 68.5t-51.5 102.5t-16 129.5v565q-37 7 -82.5 12.5t-87.5 8.5v111q38 5 81 8.5t89.5 5.5 t93.5 2t90 -2v-656q0 -56 8.5 -98t28.5 -71t53.5 -44.5t83.5 -15.5q62 0 115 30t92 84t60.5 127t21.5 156v344q-38 6 -80.5 11t-81.5 8v111q38 5 81 8.5t88 5.5t90.5 2t86.5 -2v-873q38 -6 85 -11.5t87 -8.5v-111zM794 1167l-88 82l263 275l110 -103zM438 1167l-90 80 l242 289l114 -98z" />
<glyph unicode="&#x172;" horiz-adv-x="1464" d="M1268 528q0 -136 -35 -237.5t-106 -172.5q-23 -24 -53.5 -45.5t-63 -44t-67 -47.5t-65.5 -56q-46 -46 -69.5 -90.5t-23.5 -91.5q0 -40 21.5 -60t60.5 -20q34 0 66.5 12.5t69.5 39.5l57 -104q-50 -45 -108.5 -67.5t-122.5 -22.5q-52 0 -93 13t-69 37t-43 58.5t-15 77.5 q0 72 40 145t119 132q-13 -1 -31 -2t-31 -1q-105 0 -183 19t-134.5 52t-93 79t-58.5 99t-30.5 113t-8.5 122v780q-75 10 -141 26v111h492v-111q-37 -10 -79.5 -16t-83.5 -10v-765q0 -72 14 -136t52.5 -111.5t105.5 -74.5t171 -27q90 0 157 20.5t110.5 65.5t65 118.5 t21.5 178.5v731q-42 4 -83.5 10t-79.5 16v111h488v-111q-66 -16 -140 -26v-717z" />
<glyph unicode="&#x173;" horiz-adv-x="1247" d="M1208 14q-74 -5 -134 -28.5t-113 -75.5q-19 -20 -34 -40.5t-24.5 -42t-14.5 -42.5t-5 -41q0 -40 21 -61t61 -21q17 0 33.5 3.5t33 10t33.5 16.5t35 23l57 -104q-24 -22 -51 -39t-56.5 -28.5t-60.5 -17t-63 -5.5q-51 0 -92 13t-69.5 37t-43 58.5t-14.5 77.5q0 40 11 79 t34 77.5t57.5 76.5t81.5 74q-4 23 -7 48t-5 50t-2.5 49t0.5 44h-3q-25 -50 -60 -91t-80 -70.5t-100.5 -45.5t-119.5 -16q-85 0 -144 24.5t-94.5 68.5t-51 102.5t-15.5 129.5v565q-36 7 -83 12.5t-89 8.5v111q37 5 80 8.5t89.5 5.5t94 2t90.5 -2v-656q0 -56 9 -98t29 -71 t53.5 -44.5t82.5 -15.5q62 0 115.5 30t93 84t61 127t21.5 156v344q-39 6 -83 11t-83 8v111q39 5 82.5 8.5t89 5.5t90.5 2t86 -2v-633q0 -62 4.5 -126.5t12.5 -117.5q20 -3 39 -5.5t37.5 -4t36.5 -3t40 -3.5v-111z" />
<glyph unicode="&#x178;" horiz-adv-x="1219" d="M1205 1271q-26 -7 -61 -13t-63 -10l-382 -759v-352q47 -3 92.5 -10t85.5 -18v-109h-544v109q41 11 86.5 18t91.5 10v351l-374 760q-27 4 -62.5 10t-61.5 13v111h484v-111q-35 -9 -73 -15t-77 -9l165 -362q13 -28 26 -57l26 -58t25.5 -58t23.5 -56h2q11 29 24 60t27.5 62 t28.5 61.5t27 58.5l163 349q-41 3 -79 9t-73 15v111h472v-111v0zM938 1602q0 -23 -8.5 -43t-23.5 -35.5t-35.5 -24t-42.5 -8.5q-23 0 -43 8.5t-35 23.5t-23 35.5t-8 43.5t8 43t23 35t35 23.5t43 8.5q22 0 42.5 -8.5t35.5 -23.5t23.5 -35.5t8.5 -42.5zM502 1602 q0 -23 -8.5 -43t-23.5 -35.5t-35.5 -24t-42.5 -8.5q-23 0 -43 8.5t-35.5 24t-24 35.5t-8.5 43q0 22 8.5 42.5t24 35.5t35.5 23.5t43 8.5q22 0 42.5 -8.5t35.5 -23.5t23.5 -35.5t8.5 -42.5z" />
<glyph unicode="&#x179;" horiz-adv-x="1110" d="M90 0v139l600 922q48 72 67 101t46 65q-58 -2 -127.5 -3t-151.5 -1h-256q-3 -34 -9.5 -76t-16.5 -100h-133v335h909v-143l-633 -958q-18 -28 -40 -61.5t-42 -59.5q15 1 44 2t67.5 1.5t82 0.5h115.5h254q5 44 12 89.5t17 92.5h129v-346h-934zM469 1485l-35 106l373 152 l51 -144z" />
<glyph unicode="&#x17a;" horiz-adv-x="924" d="M88 0v134l523 742q-23 -1 -51.5 -1.5t-62 -1t-69 -1t-70.5 -0.5h-119q-4 -38 -10 -74t-15 -76h-114v296h715v-133l-516 -735q21 1 51 1.5t64.5 1t70.5 1t67 0.5h134q5 36 10.5 75t15.5 80h114v-309h-738zM444 1165l-90 88l264 285l113 -108z" />
<glyph unicode="&#x17b;" horiz-adv-x="1110" d="M90 0v139l600 922q48 72 67 101t46 65q-58 -2 -127.5 -3t-151.5 -1h-256q-3 -34 -9.5 -76t-16.5 -100h-133v335h909v-143l-633 -958q-18 -28 -40 -61.5t-42 -59.5q15 1 44 2t67.5 1.5t82 0.5h115.5h254q5 44 12 89.5t17 92.5h129v-346h-934zM678 1608q0 -24 -9.5 -46 t-26 -38.5t-38 -25.5t-45.5 -9t-46 9t-38.5 25.5t-25.5 38.5t-9 46t9 45.5t25.5 38t38.5 25.5t46 9t45.5 -9t38 -25t26 -37.5t9.5 -46.5z" />
<glyph unicode="&#x17c;" horiz-adv-x="924" d="M88 0v134l523 742q-23 -1 -51.5 -1.5t-62 -1t-69 -1t-70.5 -0.5h-119q-4 -38 -10 -74t-15 -76h-114v296h715v-133l-516 -735q21 1 51 1.5t64.5 1t70.5 1t67 0.5h134q5 36 10.5 75t15.5 80h114v-309h-738zM582 1339q0 -24 -9.5 -45.5t-26 -38t-38 -25.5t-45.5 -9t-46 9 t-38.5 25t-25.5 37.5t-9 46.5q0 24 9 46t25.5 38.5t38.5 25.5t46 9t45.5 -9t38 -25.5t26 -38.5t9.5 -46z" />
<glyph unicode="&#x17d;" horiz-adv-x="1110" d="M90 0v139l600 922q48 72 67 101t46 65q-58 -2 -127.5 -3t-151.5 -1h-256q-3 -34 -9.5 -76t-16.5 -100h-133v335h909v-143l-633 -958q-18 -28 -40 -61.5t-42 -59.5q15 1 44 2t67.5 1.5t82 0.5h115.5h254q5 44 12 89.5t17 92.5h129v-346h-934zM568 1483l-322 168l51 104 l275 -123l276 123l49 -102z" />
<glyph unicode="&#x17e;" horiz-adv-x="924" d="M88 0v134l523 742q-23 -1 -51.5 -1.5t-62 -1t-69 -1t-70.5 -0.5h-119q-4 -38 -10 -74t-15 -76h-114v296h715v-133l-516 -735q21 1 51 1.5t64.5 1t70.5 1t67 0.5h134q5 36 10.5 75t15.5 80h114v-309h-738zM455 1167l-283 267l80 90l205 -174l207 174l77 -88z" />
<glyph unicode="&#x192;" horiz-adv-x="897" d="M410 197q-17 -157 -48 -258.5t-80.5 -160t-119.5 -83.5t-170 -25q-36 0 -77 6t-75 17l33 157q40 -12 75 -19t68 -7q51 0 84.5 15.5t56.5 51.5t38 98.5t26 160.5l55 546h-247v144h262l26 260q11 101 38.5 176.5t74.5 128.5t118.5 80.5t168.5 27.5q30 0 69 -4t76 -10 l-22 -153q-32 8 -70.5 12t-73.5 4q-85 0 -132 -58t-60 -184l-29 -280h332v-144h-344z" />
<glyph unicode="&#x218;" horiz-adv-x="1049" d="M946 379q0 -90 -33 -164t-96.5 -127t-154 -80.5t-199.5 -27.5q-82 0 -177 10t-165 26v330h135q10 -53 16.5 -98t10.5 -86q35 -10 90.5 -18.5t109.5 -8.5q61 0 109 13.5t84 42t55 71t19 98.5q0 60 -30.5 105t-78.5 76t-105 57t-114.5 51t-112.5 57t-101 76t-72.5 107 t-26.5 140q0 80 29.5 148.5t93 120.5t153.5 78.5t201 26.5q70 0 142.5 -8t139.5 -21v-317h-131q-10 51 -15.5 96.5t-8.5 83.5q-26 5 -71 9.5t-77 4.5q-64 0 -114.5 -14.5t-84.5 -43t-48.5 -64.5t-14.5 -81q0 -56 28 -98.5t71.5 -71.5t98.5 -54.5t115 -51.5t115.5 -56.5 t105 -75t79.5 -109.5t30 -152zM338 -422q56 40 76.5 74.5t20.5 62.5q0 16 -4 26.5t-8.5 19.5t-8.5 19t-4 25q0 38 25 66.5t71 28.5q48 0 76.5 -34t28.5 -83q0 -31 -11.5 -65t-38 -69t-69.5 -71t-107 -70z" />
<glyph unicode="&#x219;" horiz-adv-x="899" d="M803 279q0 -67 -26.5 -122t-79 -94t-128.5 -60t-174 -21q-54 0 -105 3.5t-89.5 8.5t-60 8.5t-29.5 5.5v289h112q5 -18 13.5 -61.5t13.5 -96.5q18 -4 62 -11t100 -7q48 0 85.5 9t63.5 27t39.5 45t13.5 62q0 40 -21 69.5t-55.5 50.5t-86 42t-101.5 41t-93.5 43.5t-79 57 t-56.5 81t-21 109.5q0 63 26.5 114.5t78.5 88t127.5 56t171.5 19.5q76 0 143.5 -9t97.5 -15v-281h-112q-4 19 -12 62.5t-13 97.5q-14 3 -48 7.5t-75 4.5q-95 0 -146.5 -33.5t-51.5 -97.5q0 -39 21 -68t55.5 -50t85.5 -41.5t102 -40.5t94.5 -43.5t79.5 -57.5t57 -81.5 t21 -110.5zM272 -422q56 40 76.5 74.5t20.5 62.5q0 16 -4 26.5t-8.5 19.5t-8.5 19t-4 25q0 38 25 66.5t71 28.5q48 0 76.5 -34t28.5 -83q0 -31 -11.5 -65t-38 -69t-69.5 -71t-107 -70z" />
<glyph unicode="&#x21a;" horiz-adv-x="1149" d="M981 1038q-10 60 -18 106t-11 85h-284v-1092q47 -3 92.5 -10t85.5 -18v-109h-544v109q41 11 86.5 18t92.5 10v1092h-284q-3 -39 -10.5 -85t-18.5 -106h-130v344h1073v-344h-130zM403 -422q56 40 76.5 74.5t20.5 62.5q0 16 -4 26.5t-8.5 19.5t-8.5 19t-4 25q0 38 25 66.5 t71 28.5q48 0 76.5 -34t28.5 -83q0 -31 -11.5 -65t-38 -69t-69.5 -71t-107 -70z" />
<glyph unicode="&#x21b;" horiz-adv-x="760" d="M692 6q-43 -10 -98.5 -16t-106.5 -6q-79 0 -131 17t-83 53t-44.5 93.5t-13.5 141.5v585h-209v144h209v330l184 51v-381h285v-144h-285v-520q0 -64 7 -105t23.5 -64.5t44 -33.5t71.5 -10q35 0 68 4.5t61 12.5zM274 -422q56 40 76.5 74.5t20.5 62.5q0 16 -4 26.5t-8.5 19.5 t-8.5 19t-4 25q0 38 25 66.5t71 28.5q48 0 76.5 -34t28.5 -83q0 -31 -11.5 -65t-38 -69t-69.5 -71t-107 -70z" />
<glyph unicode="&#x2c6;" horiz-adv-x="909" d="M659 1167l-204 174l-209 -174l-76 88l287 269l282 -267z" />
<glyph unicode="&#x2c7;" horiz-adv-x="909" d="M453 1167l-283 267l80 90l205 -174l207 174l77 -88z" />
<glyph unicode="&#x2d8;" horiz-adv-x="852" d="M682 1470q0 -56 -15.5 -105.5t-48 -88t-82 -60.5t-114.5 -22t-113.5 22t-79 61t-45 88t-14.5 105h125q0 -29 8 -54t24.5 -44t41 -30t55.5 -11q61 0 96 37t35 102h127z" />
<glyph unicode="&#x2d9;" horiz-adv-x="578" d="M408 1339q0 -24 -9.5 -45.5t-26 -38t-38 -25.5t-45.5 -9t-46 9t-38.5 25t-25.5 37.5t-9 46.5q0 24 9 46t25.5 38.5t38.5 25.5t46 9t45.5 -9t38 -25.5t26 -38.5t9.5 -46z" />
<glyph unicode="&#x2da;" horiz-adv-x="813" d="M645 1356q0 -49 -17.5 -91.5t-50.5 -74t-79 -49t-101 -17.5q-53 0 -95 13.5t-71.5 41t-45 68t-15.5 94.5q0 49 17 91.5t49.5 73.5t78.5 48t101 17q54 0 96.5 -13.5t72 -40.5t45 -67.5t15.5 -93.5zM510 1348q0 29 -7 51t-20 37t-32 22.5t-43 7.5q-21 0 -40 -7.5t-33.5 -22 t-23 -36.5t-8.5 -50q0 -30 7 -52.5t20 -37t32 -22t44 -7.5q21 0 40 7t33.5 22t22.5 37t8 51z" />
<glyph unicode="&#x2db;" horiz-adv-x="791" d="M621 -389q-25 -22 -52 -39t-56.5 -28.5t-60.5 -17t-63 -5.5q-51 0 -91.5 13t-69 37t-43.5 58.5t-15 77.5q0 40 11 79t34 77.5t57.5 76.5t81.5 74l181 -14q-53 -36 -90 -70.5t-58.5 -66.5t-31 -61.5t-9.5 -57.5q0 -40 21 -61t61 -21q33 0 65.5 13.5t69.5 39.5z" />
<glyph unicode="&#x2dc;" horiz-adv-x="1038" d="M868 1374q-40 -78 -96.5 -119t-126.5 -41q-45 0 -79 15t-73.5 44.5t-60.5 41.5t-49 12q-34 0 -64.5 -24.5t-56.5 -71.5l-92 72q40 77 96.5 118t126.5 41q45 0 79 -14.5t73.5 -43t60.5 -40.5t49 -12q34 0 64.5 23.5t56.5 70.5z" />
<glyph unicode="&#x2dd;" horiz-adv-x="1071" d="M616 1167l-88 82l263 275l110 -103zM260 1167l-90 80l242 289l114 -98z" />
<glyph unicode="&#x312;" horiz-adv-x="0" d="M-424 1481q-28 -19 -46 -37.5t-28.5 -36t-15 -33.5t-4.5 -31q0 -16 3.5 -26.5t8 -19.5t8.5 -19.5t4 -26.5q0 -40 -28 -66t-68 -26q-22 0 -41.5 8.5t-33.5 24t-22.5 37.5t-8.5 49q0 28 11.5 62t38 70t69.5 72t106 68z" />
<glyph unicode="&#x315;" horiz-adv-x="68" d="M35 1157l-123 33l113 371l153 -41z" />
<glyph unicode="&#x326;" horiz-adv-x="0" d="M-752 -422q56 40 76.5 74.5t20.5 62.5q0 16 -4 26.5t-8.5 19.5t-8.5 19t-4 25q0 38 25 66.5t71 28.5q48 0 76.5 -34t28.5 -83q0 -31 -11.5 -65t-38 -69t-69.5 -71t-107 -70z" />
<glyph unicode="&#x394;" horiz-adv-x="1245" d="M57 0v137l449 1245h227l453 -1245v-137h-1129zM655 1057q-14 43 -23.5 79.5t-17.5 73.5h-2q-9 -38 -20 -77.5t-25 -79.5l-311 -887h713z" />
<glyph unicode="&#x3a9;" horiz-adv-x="1430" d="M84 317h113q10 -49 18 -93t12 -81h236v125q-70 26 -135.5 68t-121 106.5t-89 154t-33.5 202.5q0 81 18 157.5t53.5 144t89.5 123t126 95.5t162.5 62t197.5 22q142 0 257 -43.5t196 -123.5t123.5 -187t42.5 -232q0 -77 -17.5 -145.5t-47.5 -125.5t-69 -102.5t-81.5 -80.5 t-84 -58.5t-79.5 -36.5v-125h233q4 34 13 80t20 94h113v-317h-523v336q61 21 119 60t105 97t74.5 133.5t27.5 164.5q0 102 -30 185.5t-87.5 143.5t-138.5 91.5t-180 31.5q-108 0 -190.5 -35.5t-137 -97.5t-81.5 -142t-27 -169q0 -95 26.5 -171t71.5 -132t102.5 -95 t124.5 -65v-336h-522v317z" />
<glyph unicode="&#x3bc;" horiz-adv-x="1233" d="M211 874q-37 6 -83.5 11.5t-88.5 8.5v110q36 5 79.5 8t90 5t94 2.5t92.5 -0.5v-672q0 -108 41.5 -160.5t131.5 -52.5q64 0 117.5 29.5t92 82t59.5 125.5t21 160v343q-34 6 -78 11t-86 8v112q37 4 80 7.5t88 5t91 2t89 -0.5v-666q0 -61 4 -101.5t13.5 -65.5t25 -35.5 t39.5 -10.5h15.5t17.5 3l18 -145q-21 -7 -50 -10.5t-59 -3.5q-51 0 -86.5 17t-57.5 47t-31 72t-7 92l-2 2q-20 -53 -52 -95t-74.5 -72t-94 -46t-113.5 -16q-57 0 -101 17t-69 53l22 -560h-189v1379z" />
<glyph unicode="&#x3c0;" horiz-adv-x="1298" d="M996 866q-2 -38 -2.5 -75.5t-1 -72.5t0 -68t2.5 -62q2 -50 5 -90t7 -73.5t8 -61.5t10 -53q9 -45 19 -77.5t23 -53t29.5 -30.5t38.5 -10t47.5 3t44.5 10l20 -151q-26 -8 -64.5 -12.5t-77.5 -4.5q-57 0 -99 14.5t-73.5 47.5t-53.5 87t-37 132q-5 29 -10 62.5t-9 71.5 t-7.5 80.5t-4.5 90.5q-2 32 -2 67.5v73t1 77t2 78.5h-353q4 -73 4.5 -147t-6.5 -149q-12 -147 -40 -292.5t-76 -290.5l-203 26q26 72 47 142t38 139t29.5 137.5t20.5 138.5q5 35 8 72.5t4 74.5t0.5 75t-2.5 74h-243v152h1200v-152h-244z" />
<glyph unicode="&#x401;" horiz-adv-x="1087" d="M57 0v111q43 9 88.5 16t90.5 10v1108q-44 3 -89 10t-90 17v110h893v-313h-131q-4 21 -12.5 67.5t-13.5 98.5h-371v-455h295q6 49 15 87.5t13 54.5h115v-420h-115q-4 16 -13 54t-15 87h-295v-491h373q5 53 14 101t14 69h133v-322h-899zM827 1602q0 -23 -8.5 -43 t-23.5 -35.5t-35.5 -24t-42.5 -8.5q-23 0 -43 8.5t-35 23.5t-23 35.5t-8 43.5t8 43t23 35t35 23.5t43 8.5q22 0 42.5 -8.5t35.5 -23.5t23.5 -35.5t8.5 -42.5zM391 1602q0 -23 -8.5 -43t-23.5 -35.5t-35.5 -24t-42.5 -8.5q-23 0 -43 8.5t-35.5 24t-24 35.5t-8.5 43 q0 22 8.5 42.5t24 35.5t35.5 23.5t43 8.5q22 0 42.5 -8.5t35.5 -23.5t23.5 -35.5t8.5 -42.5z" />
<glyph unicode="&#x402;" horiz-adv-x="1524" d="M955 1229h-287v-406q26 9 61.5 17t76 14.5t84.5 11t89 4.5q124 0 219 -32t159 -89.5t96 -138t32 -178.5q0 -100 -34.5 -186t-101 -149.5t-164 -99.5t-222.5 -36v147q82 0 143.5 24.5t102 66.5t60.5 97.5t20 118.5q0 64 -18.5 119.5t-59.5 97t-106 65.5t-158 24 q-41 0 -78.5 -4t-73 -10.5t-67 -15.5t-60.5 -20v-534q40 -3 79.5 -9.5t74.5 -16.5v-111h-520v109q41 11 86.5 18t92.5 10v1092h-284q-3 -39 -10.5 -85t-18.5 -106h-130v344h1073v-331h-130q-10 50 -16.5 95.5t-9.5 82.5v0z" />
<glyph unicode="&#x403;" horiz-adv-x="963" d="M939 1382v-359h-130q-11 60 -18.5 113t-10.5 92h-357v-1091q46 -3 112 -14.5t107 -22.5v-100h-585v109q40 11 85.5 18t92.5 10v1108q-47 4 -92.5 11t-85.5 17v109h882zM435 1485l-35 106l373 152l51 -144z" />
<glyph unicode="&#x404;" horiz-adv-x="1202" d="M1092 1340v-302h-129q-4 20 -9 41.5t-8.5 43.5t-6.5 43t-5 38q-15 6 -36 12t-46.5 11t-53 8t-54.5 3q-96 0 -176 -31.5t-138.5 -91.5t-93.5 -148.5t-41 -201.5h672v-151h-671q4 -99 34 -186t86 -151t139 -100.5t193 -36.5q43 0 81 3.5t76 11t78 20t86 31.5l40 -151 q-40 -16 -86 -29.5t-94.5 -23t-99.5 -15t-103 -5.5q-153 0 -272 47.5t-200.5 137.5t-123.5 221t-42 297q0 165 47.5 297.5t134.5 225.5t210 142.5t275 49.5q92 0 176.5 -16t160.5 -44v0z" />
<glyph unicode="&#x405;" horiz-adv-x="1034" d="M946 379q0 -90 -33 -164t-96.5 -127t-154 -80.5t-199.5 -27.5q-82 0 -177 10t-165 26v330h135q10 -53 16.5 -98t10.5 -86q35 -10 90.5 -18.5t109.5 -8.5q61 0 109 13.5t84 42t55 71t19 98.5q0 60 -30.5 105t-78.5 76t-105 57t-114.5 51t-112.5 57t-101 76t-72.5 107 t-26.5 140q0 80 29.5 148.5t93 120.5t153.5 78.5t201 26.5q70 0 142.5 -8t139.5 -21v-317h-131q-10 51 -15.5 96.5t-8.5 83.5q-26 5 -71 9.5t-77 4.5q-64 0 -114.5 -14.5t-84.5 -43t-48.5 -64.5t-14.5 -81q0 -56 28 -98.5t71.5 -71.5t98.5 -54.5t115 -51.5t115.5 -56.5 t105 -75t79.5 -109.5t30 -152z" />
<glyph unicode="&#x406;" horiz-adv-x="658" d="M57 0v111q43 9 88.5 16t90.5 10v1108q-44 3 -89 10t-90 17v110h543v-110q-43 -10 -89 -17t-89 -10v-1108q44 -3 90.5 -10t87.5 -16v-111h-543z" />
<glyph unicode="&#x407;" horiz-adv-x="658" d="M57 0v111q43 9 88.5 16t90.5 10v1108q-44 3 -89 10t-90 17v110h543v-110q-43 -10 -89 -17t-89 -10v-1108q44 -3 90.5 -10t87.5 -16v-111h-543zM616 1602q0 -23 -8.5 -43t-23.5 -35.5t-35.5 -24t-42.5 -8.5q-23 0 -43 8.5t-35 23.5t-23 35.5t-8 43.5t8 43t23 35t35 23.5 t43 8.5q22 0 42.5 -8.5t35.5 -23.5t23.5 -35.5t8.5 -42.5zM180 1602q0 -23 -8.5 -43t-23.5 -35.5t-35.5 -24t-42.5 -8.5q-23 0 -43 8.5t-35.5 24t-24 35.5t-8.5 43q0 22 8.5 42.5t24 35.5t35.5 23.5t43 8.5q22 0 42.5 -8.5t35.5 -23.5t23.5 -35.5t8.5 -42.5z" />
<glyph unicode="&#x408;" horiz-adv-x="708" d="M651 1272q-62 -17 -141 -27v-885q0 -58 -8 -108t-25.5 -92t-45 -74.5t-65.5 -55t-88.5 -34.5t-113.5 -12q-19 0 -39.5 1.5t-40.5 3.5t-38.5 5t-35.5 6v162q32 -10 70 -16.5t72 -6.5q43 0 74.5 10.5t52.5 36.5t32 70.5t11 112.5v876q-44 3 -89 10t-90 17v110h508v-110z " />
<glyph unicode="&#x409;" horiz-adv-x="1849" d="M1118 826q51 6 105.5 8.5t108.5 2.5q125 0 216 -29.5t150 -81.5t87.5 -122.5t28.5 -152.5q0 -107 -38 -190.5t-107 -141.5t-165.5 -89.5t-225.5 -31.5h-88.5t-89.5 0.5t-85 1t-85 0.5h-176v109q38 10 86 17.5t90 10.5v1092h-431v-206q0 -205 -13 -359.5t-39 -266.5 t-64.5 -187.5t-89.5 -123t-113 -71.5t-136 -35l-24 163q42 9 80.5 27t72 55t61 97t47.5 151.5t30.5 218.5t10.5 299v254q-46 4 -92 11t-86 17v109h1153v-109q-40 -10 -86.5 -17t-92.5 -11v-419zM1620 419q0 57 -16 105t-53 83t-98 54.5t-153 19.5q-45 0 -94.5 -4t-87.5 -10 v-495q37 -10 83.5 -14.5t116.5 -5.5q69 0 125 18.5t95 54.5t60.5 85t21.5 109v0z" />
<glyph unicode="&#x40a;" horiz-adv-x="1999" d="M1768 419q0 57 -15.5 105t-52.5 83t-98 54.5t-151 19.5q-45 0 -95.5 -4t-88.5 -10v-495q34 -9 85.5 -14.5t115.5 -5.5q72 0 128.5 20t94.5 55.5t57.5 84.5t19.5 107zM915 111q38 10 80.5 16.5t84.5 9.5v503h-657v-503q42 -3 84 -9.5t80 -16.5v-111h-530v109 q40 11 85.5 18t92.5 10v1108q-47 4 -92.5 11t-85.5 17v109h530v-111q-38 -10 -80 -16t-84 -10v-451h657v451q-42 4 -84.5 10t-80.5 16v111h530v-109q-40 -10 -86 -17t-92 -11v-419q51 6 106.5 8.5t109.5 2.5q124 0 214.5 -29.5t149.5 -81.5t87.5 -122.5t28.5 -152.5 q0 -107 -37.5 -191t-107.5 -142.5t-169 -89.5t-221 -31q-42 0 -85.5 0.5t-88.5 1t-89 1t-85 0.5h-165v111z" />
<glyph unicode="&#x40b;" horiz-adv-x="1629" d="M1571 0h-493v111q38 10 80 16.5t84 9.5v256q0 68 -11 127.5t-43.5 104t-91 69.5t-153.5 25q-37 0 -75.5 -4t-75 -10.5t-68.5 -15.5t-56 -20v-532q43 -3 85 -9.5t79 -16.5v-111h-530v109q41 11 86.5 18t92.5 10v1092h-284q-3 -39 -10.5 -85t-18.5 -106h-130v344h1073v-341 h-130q-10 59 -18 104t-11 84h-284v-406q28 10 64 18.5t76 15t83 10t84 3.5q95 0 165.5 -17.5t121 -48t83 -72.5t51.5 -92t26.5 -106.5t7.5 -115.5v-281q37 -3 73.5 -9.5t67.5 -16.5v-111z" />
<glyph unicode="&#x40c;" horiz-adv-x="1364" d="M795 0v111q32 8 65 13.5t64 8.5l-502 561v-557q40 -3 80 -9.5t73 -16.5v-111h-518v111q43 9 88.5 16t90.5 10v1108q-44 3 -89 10t-90 17v110h518v-110q-32 -10 -72 -17t-81 -10v-526l493 528q-35 3 -72 9.5t-69 15.5v110h514v-110q-39 -9 -75 -15.5t-68 -9.5l-508 -530 l539 -582q33 -3 70 -9.5t73 -14.5v-111h-524zM587 1485l-35 106l373 152l51 -144z" />
<glyph unicode="&#x40e;" horiz-adv-x="1265" d="M736 304q-40 -91 -81 -152.5t-87.5 -99.5t-99 -54.5t-114.5 -16.5q-15 0 -34 1.5t-39.5 5t-40 8t-35.5 10.5l30 160q31 -12 61 -17.5t56 -5.5q37 0 65.5 6.5t54 27t49 56t47.5 92.5l-424 923q-27 4 -62.5 10t-61.5 13v111h481v-111q-34 -9 -72.5 -15t-77.5 -9l218 -505 q23 -54 45.5 -108t40.5 -109h3l282 722q-40 3 -78.5 9t-73.5 15v111h463v-111q-13 -4 -28.5 -7t-31.5 -6t-32.5 -5.5t-30.5 -4.5zM979 1738q0 -55 -19.5 -103t-60.5 -83t-104 -55t-149 -20q-81 0 -142.5 18t-102.5 52t-62 82t-21 109h167q0 -72 40 -110t126 -38 q81 0 120 39.5t39 108.5h169v0z" />
<glyph unicode="&#x40f;" horiz-adv-x="1482" d="M827 0v-295h-172v295h-598v109q40 11 85.5 18t92.5 10v1108q-47 4 -92.5 11t-85.5 17v109h530v-111q-38 -10 -80 -16t-84 -10v-1092h637v1092q-43 4 -85 10t-80 16v111h530v-109q-41 -10 -86.5 -17t-92.5 -11v-1108q47 -3 92.5 -10t86.5 -18v-109h-598z" />
<glyph unicode="&#x410;" horiz-adv-x="1415" d="M907 0v111q42 9 82.5 15t77.5 9l-80 227h-577l-80 -227q37 -3 78.5 -9t83.5 -15v-111h-480v111q30 8 64.5 14.5t60.5 7.5l455 1249h229l457 -1249q26 -1 60.5 -7.5t64.5 -14.5v-111h-496zM764 1001q-19 56 -34.5 104t-29.5 97h-4q-10 -43 -22 -81t-37 -117l-178 -492h481 z" />
<glyph unicode="&#x411;" horiz-adv-x="1221" d="M888 1229h-465v-423h174q134 0 233.5 -25.5t165 -74t98 -119.5t32.5 -162q0 -87 -32 -163.5t-98 -135t-167 -92.5t-238 -34h-534v109q40 11 85.5 18t92.5 10v1108q-47 4 -92.5 11t-85.5 17v109h990v-328h-134q-10 50 -16 94t-9 81v0zM615 153q73 0 131 18t98.5 52 t61.5 82t21 107q0 55 -18 101t-57 78.5t-101.5 51t-150.5 18.5h-177v-508h192z" />
<glyph unicode="&#x412;" horiz-adv-x="1228" d="M1124 413q0 -42 -9.5 -89t-33 -93t-63 -89t-98 -76t-140 -52t-189.5 -19q-29 0 -67.5 0.5t-83.5 1.5t-96.5 2t-107.5 1h-178v109q40 11 85.5 18t92.5 10v1108q-47 4 -92.5 11t-85.5 17v109h176q35 0 78.5 1t93 2t105.5 2t119 1q111 0 194 -22.5t137 -65.5t81.5 -104.5 t27.5 -138.5q0 -56 -14.5 -105.5t-43 -91.5t-70 -74t-98.5 -52v-3q73 -12 125 -43t87 -74t51.5 -95t16.5 -106zM875 1027q0 46 -13.5 84.5t-45 66.5t-86 43.5t-135.5 15.5q-24 0 -46.5 -0.5t-43.5 -1t-41.5 -1t-41.5 -1.5v-446q30 -2 58.5 -2h67.5q85 0 147.5 16t102 47.5 t58.5 76t19 102.5zM926 407q0 67 -28 112.5t-78 73t-119.5 39t-149.5 11.5h-25h-36t-37.5 -0.5t-30.5 -1.5v-484q27 -4 72 -6.5t106 -2.5q85 0 147 19.5t101.5 53.5t58.5 82t19 104z" />
<glyph unicode="&#x413;" horiz-adv-x="963" d="M939 1382v-359h-130q-11 60 -18.5 113t-10.5 92h-357v-1091q46 -3 112 -14.5t107 -22.5v-100h-585v109q40 11 85.5 18t92.5 10v1108q-47 4 -92.5 11t-85.5 17v109h882z" />
<glyph unicode="&#x414;" horiz-adv-x="1375" d="M320 1246q-46 3 -92 10t-86 17v109h1176v-109q-41 -10 -86.5 -17t-91.5 -11v-1092h168v-448h-173v295h-929v-295h-172v448h116q39 72 70.5 153t53.5 175.5t34 204.5t12 240v320zM952 1229h-453v-274q0 -169 -14 -295t-37 -220.5t-51 -163.5t-58 -123h613v1076z" />
<glyph unicode="&#x415;" horiz-adv-x="1087" d="M57 0v109q40 11 85.5 18t92.5 10v1108q-47 4 -92.5 11t-85.5 17v109h893v-318h-131q-9 47 -16.5 91t-10.5 79h-369v-453h294q5 38 12 73t17 67h114v-418h-114q-10 31 -17.5 67.5t-11.5 71.5h-294v-491h371q5 40 12 85t17 92h132v-328h-898z" />
<glyph unicode="&#x416;" horiz-adv-x="2021" d="M911 694l-481 -561q32 -3 65 -8.5t64 -13.5v-111h-514v111q32 8 71 14.5t74 9.5l510 574l-491 538q-34 3 -71.5 10t-69.5 15v110h512v-110q-32 -9 -70 -15.5t-72 -9.5l473 -528v526q-38 3 -76 9.5t-73 17.5v110h489v-110q-37 -11 -77 -17.5t-74 -9.5v-526l475 528 q-35 3 -72.5 9.5t-68.5 15.5v110h512v-110q-34 -8 -72 -15t-72 -10l-491 -530l520 -582q35 -3 73 -9.5t72 -14.5v-111h-522v111q29 8 62 13.5t65 8.5l-481 561v-557q34 -3 74 -9t77 -17v-111h-489v111q35 11 75 17t74 9v557z" />
<glyph unicode="&#x417;" horiz-adv-x="1073" d="M139 1337q40 13 79.5 24.5t82 20t89 13.5t100.5 5q112 0 195 -25.5t137.5 -71.5t81 -110.5t26.5 -143.5q0 -53 -15.5 -102t-47 -90.5t-77.5 -73.5t-108 -51v-2q72 -12 126 -40t90 -70.5t54.5 -96t18.5 -117.5q0 -92 -33.5 -168.5t-100 -133t-165.5 -88t-230 -31.5 q-110 0 -200.5 17.5t-159.5 46.5l39 177q30 -15 68.5 -29t82 -25t90 -18t91.5 -7q81 0 141 17.5t100.5 49.5t60 78t19.5 102q0 68 -28.5 115.5t-81.5 77t-127.5 43t-166.5 13.5h-105v140h105q89 0 158.5 15t117.5 45.5t73 75t25 103.5q0 47 -15.5 87.5t-49 70.5t-86.5 47 t-128 17q-40 0 -78 -6t-89 -18q-2 -18 -5 -39t-7 -44t-9 -47.5t-10 -48.5h-128v296v0z" />
<glyph unicode="&#x418;" horiz-adv-x="1524" d="M235 198v1047q-47 4 -92.5 11t-85.5 17v109h530v-111q-38 -10 -80 -16t-84 -10v-760q0 -53 -2.5 -108t-10.5 -109h3q19 42 40 84.5t42 79.5l588 950h384v-109q-40 -10 -85.5 -17t-92.5 -11v-1108q47 -3 92.5 -10t85.5 -18v-109h-529v111q37 10 79 16.5t85 9.5v740 q0 63 3.5 125.5t11.5 123.5h-3q-22 -47 -43.5 -88t-46.5 -85l-590 -953h-377v109q40 11 85.5 18t92.5 10v61z" />
<glyph unicode="&#x419;" horiz-adv-x="1524" d="M235 198v1047q-47 4 -92.5 11t-85.5 17v109h530v-111q-38 -10 -80 -16t-84 -10v-760q0 -53 -2.5 -108t-10.5 -109h3q19 42 40 84.5t42 79.5l588 950h384v-109q-40 -10 -85.5 -17t-92.5 -11v-1108q47 -3 92.5 -10t85.5 -18v-109h-529v111q37 10 79 16.5t85 9.5v740 q0 63 3.5 125.5t11.5 123.5h-3q-22 -47 -43.5 -88t-46.5 -85l-590 -953h-377v109q40 11 85.5 18t92.5 10v61zM1100 1738q0 -55 -19.5 -103t-60.5 -83t-104 -55t-149 -20q-81 0 -142.5 18t-102.5 52t-62 82t-21 109h167q0 -72 40 -110t126 -38q81 0 120 39.5t39 108.5h169v0z " />
<glyph unicode="&#x41a;" horiz-adv-x="1364" d="M795 0v111q32 8 65 13.5t64 8.5l-502 561v-557q40 -3 80 -9.5t73 -16.5v-111h-518v111q43 9 88.5 16t90.5 10v1108q-44 3 -89 10t-90 17v110h518v-110q-32 -10 -72 -17t-81 -10v-526l493 528q-35 3 -72 9.5t-69 15.5v110h514v-110q-39 -9 -75 -15.5t-68 -9.5l-508 -530 l539 -582q33 -3 70 -9.5t73 -14.5v-111h-524z" />
<glyph unicode="&#x41b;" horiz-adv-x="1353" d="M1296 1273q-40 -10 -86 -17t-92 -11v-1108q46 -3 92 -10t86 -18v-109h-530v111q38 10 80 16.5t84 9.5v1092h-431v-206q0 -205 -13 -359.5t-39 -266.5t-64.5 -187.5t-89.5 -123t-113 -71.5t-136 -35l-24 163q42 9 80.5 27t72 55t61 97t47.5 151.5t30.5 218.5t10.5 299v254 q-46 4 -92 11t-86 17v109h1152v-109z" />
<glyph unicode="&#x41c;" horiz-adv-x="1918" d="M1413 0v111q39 8 81 14.5t81 9.5l-100 709q-17 122 -27 204t-14 142h-4q-16 -72 -30 -126.5t-34 -113.5l-328 -950h-174l-313 903q-24 70 -46.5 156t-33.5 131h-4q-1 -40 -4 -82.5t-7.5 -86.5t-9.5 -90t-12 -95l-84 -701q39 -3 79.5 -9t80.5 -15v-111h-481v111 q13 3 29.5 6.5t35 7t36.5 5.5t32 3l160 1112q-43 3 -86 10t-86 17v110h434l297 -841q10 -30 20.5 -65t20.5 -71.5t19.5 -72.5t16.5 -68h3q17 70 35 134t40 132l297 852h439v-110q-44 -10 -87 -17t-86 -10l166 -1112q27 -1 62 -7.5t69 -14.5v-111h-483z" />
<glyph unicode="&#x41d;" horiz-adv-x="1551" d="M965 0v111q35 10 77 16.5t86 9.5v500h-706v-500q45 -3 87 -9.5t79 -16.5v-111h-531v111q43 9 88.5 16t90.5 10v1108q-44 3 -89 10t-90 17v110h531v-110q-36 -11 -78 -17.5t-88 -9.5v-448h706v448q-45 3 -86.5 9.5t-76.5 17.5v110h528v-110q-43 -10 -89 -17t-89 -10v-1108 q44 -3 90.5 -10t87.5 -16v-111h-528z" />
<glyph unicode="&#x41e;" horiz-adv-x="1443" d="M1358 709q0 -174 -52.5 -309.5t-141.5 -228.5t-208.5 -142t-253.5 -49q-153 0 -268 49.5t-192.5 140.5t-116.5 219t-39 285q0 174 51.5 309.5t141 228.5t208.5 142t254 49q152 0 267.5 -50t193 -141t117 -218.5t39.5 -284.5zM1159 681q0 124 -27 226.5t-81.5 175.5 t-136.5 113.5t-192 40.5q-92 0 -172.5 -34.5t-139.5 -102.5t-93 -168t-34 -230q0 -125 27.5 -227t82 -175.5t136.5 -114t192 -40.5q92 0 172 35t139.5 103t93 168t33.5 230z" />
<glyph unicode="&#x41f;" horiz-adv-x="1482" d="M895 0v111q38 10 80 16.5t85 9.5v1092h-637v-1092q42 -3 84 -9.5t80 -16.5v-111h-530v109q40 11 85.5 18t92.5 10v1108q-47 4 -92.5 11t-85.5 17v109h1368v-109q-41 -10 -86.5 -17t-92.5 -11v-1108q47 -3 92.5 -10t86.5 -18v-109h-530z" />
<glyph unicode="&#x420;" horiz-adv-x="1170" d="M1120 958q0 -104 -38.5 -193t-111.5 -154t-175.5 -100.5t-227.5 -35.5q-39 0 -76 2t-69 6v-346q44 -3 90.5 -10t87.5 -16v-111h-543v111q43 9 88.5 16t90.5 10v1108q-44 3 -89 10t-90 17v110h179q20 0 69 1.5t97 3.5t98 3t94 1q136 0 236.5 -33.5t164.5 -93t94.5 -137.5 t30.5 -169zM926 934q0 61 -18 114.5t-59.5 96.5t-110 67.5t-165.5 24.5q-54 0 -89 -0.5t-62 -3.5v-592q32 -5 73.5 -8.5t88.5 -3.5q84 0 149 23.5t107.5 65t64 97t21.5 119.5z" />
<glyph unicode="&#x421;" horiz-adv-x="1208" d="M1117 58q-42 -17 -88.5 -30.5t-97 -23.5t-103.5 -15.5t-106 -5.5q-159 0 -277.5 46t-198 132.5t-119 211.5t-39.5 285q0 159 40 294t123.5 234.5t212.5 155.5t306 56q80 0 162.5 -11t161.5 -30v-337h-134q-10 52 -16 97.5t-11 88.5q-53 14 -103 19.5t-100 5.5 q-112 0 -194.5 -42t-136 -115t-79 -172t-25.5 -214q0 -126 27 -225.5t85.5 -168.5t149 -105t216.5 -36q39 0 80.5 5t83 14t79.5 22t71 29l30 -165v0z" />
<glyph unicode="&#x422;" horiz-adv-x="1149" d="M981 1038q-10 60 -18 106t-11 85h-284v-1092q47 -3 92.5 -10t85.5 -18v-109h-544v109q41 11 86.5 18t92.5 10v1092h-284q-3 -39 -10.5 -85t-18.5 -106h-130v344h1073v-344h-130z" />
<glyph unicode="&#x423;" horiz-adv-x="1265" d="M736 304q-40 -91 -81 -152.5t-87.5 -99.5t-99 -54.5t-114.5 -16.5q-15 0 -34 1.5t-39.5 5t-40 8t-35.5 10.5l30 160q31 -12 61 -17.5t56 -5.5q37 0 65.5 6.5t54 27t49 56t47.5 92.5l-424 923q-27 4 -62.5 10t-61.5 13v111h481v-111q-34 -9 -72.5 -15t-77.5 -9l218 -505 q23 -54 45.5 -108t40.5 -109h3l282 722q-40 3 -78.5 9t-73.5 15v111h463v-111q-13 -4 -28.5 -7t-31.5 -6t-32.5 -5.5t-30.5 -4.5z" />
<glyph unicode="&#x424;" horiz-adv-x="1595" d="M705 1020q-16 2 -37 2h-31q-100 0 -172 -22.5t-119.5 -64.5t-70 -101.5t-22.5 -132.5q0 -75 24.5 -135t74 -102.5t123 -65t170.5 -22.5h27.5t32.5 2v642zM704 232q-22 -2 -42.5 -2h-39.5q-146 0 -251.5 34t-175 94.5t-103 144t-33.5 183.5q0 112 39.5 202t116 152.5 t188 96t254.5 33.5h20.5t26.5 -1v122q-46 3 -92 10t-86 18v105h544v-105q-40 -11 -86 -18t-92 -10v-122q21 2 41.5 2h40.5q145 0 250.5 -34.5t175 -95t103 -144t33.5 -183.5q0 -112 -39.5 -202t-116 -152.5t-188 -96t-254.5 -33.5h-20.5t-25.5 2v-129q46 -3 92 -10t86 -17 v-105h-544v105q40 10 86 17t92 10v129zM890 379q16 -2 37 -2h31q100 0 172 23t119.5 65t70 101t22.5 132q0 75 -25 135.5t-74 102.5t-122.5 64.5t-171.5 22.5h-26.5t-32.5 -2v-642z" />
<glyph unicode="&#x425;" horiz-adv-x="1383" d="M821 0v111q34 9 72.5 15t75.5 9l-295 449l-289 -449q35 -3 74 -9t73 -15v-111h-509v111q34 8 71.5 14t73.5 8l401 569l-383 547q-38 3 -72 9t-67 14v110h528v-111q-34 -9 -72.5 -14.5t-78.5 -9.5l270 -411l269 411q-38 4 -76 9.5t-72 14.5v111h510v-110 q-34 -8 -72.5 -14.5t-74.5 -10.5l-377 -532l412 -582q39 -3 73.5 -8.5t65.5 -13.5v-111h-531z" />
<glyph unicode="&#x426;" horiz-adv-x="1482" d="M235 1245q-47 4 -92.5 11t-85.5 17v109h530v-111q-38 -10 -80 -16t-84 -10v-1092h637v1092q-43 4 -85 10t-80 16v111h530v-109q-41 -10 -86.5 -17t-92.5 -11v-1092h179v-448h-173v295h-1195v109q40 11 85.5 18t92.5 10v1108z" />
<glyph unicode="&#x427;" horiz-adv-x="1393" d="M970 557q-76 -14 -161.5 -21t-171.5 -7q-144 0 -235 36.5t-143 97.5t-71 141.5t-19 170.5v270q-37 4 -73 10t-68 16v111h493v-111q-38 -10 -80 -16t-84 -10v-237q0 -73 13.5 -132.5t49 -101t96 -64t155.5 -22.5q81 0 153 5t146 19v533q-44 4 -86 10t-80 16v111h530v-109 q-40 -10 -86 -17t-92 -11h2v-1108q46 -3 92 -10t86 -18v-109h-544v111q41 10 86 16.5t92 9.5v420z" />
<glyph unicode="&#x428;" horiz-adv-x="2020" d="M57 0v109q42 11 86.5 18t91.5 10v1108q-47 4 -91.5 10.5t-86.5 17.5v109h513v-111q-34 -10 -71.5 -16t-76.5 -10v-1092h496v1092q-40 3 -77 9.5t-71 16.5v111h480v-111q-34 -10 -71.5 -16t-76.5 -10v-1092h495v1092q-40 4 -77.5 10t-70.5 16v111h513v-109 q-40 -10 -85.5 -17t-92.5 -11v-1108q47 -3 92 -10t85 -18v-109h-1904z" />
<glyph unicode="&#x429;" horiz-adv-x="2020" d="M1790 -295v295h-1733v109q43 11 87 18t91 10v1108q-47 4 -92 10.5t-86 17.5v109h513v-111q-69 -19 -148 -26v-1092h496v1092q-40 3 -77 9.5t-71 16.5v111h480v-111q-34 -10 -71.5 -16t-76.5 -10v-1092h495v1092q-38 4 -76.5 10t-71.5 16v111h513v-109q-43 -11 -87 -17.5 t-91 -10.5v-1092h178v-448h-172z" />
<glyph unicode="&#x42a;" horiz-adv-x="1399" d="M1170 419q1 57 -15 105t-53 83t-98 54.5t-152 19.5q-45 0 -95 -4.5t-89 -9.5v-495q34 -9 85.5 -14.5t115.5 -5.5q72 0 128.5 20t94.5 55.5t58 84.5t20 107zM481 1229h-283q-3 -39 -11 -85t-18 -106h-130v344h-2h808v-109q-38 -10 -84 -17t-93 -11v-419q52 6 107 8.5 t109 2.5q124 0 215 -29.5t150 -81.5t87.5 -122.5t28.5 -152.5q0 -107 -38 -191t-108 -142.5t-169 -89.5t-221 -31q-84 0 -166 1.5t-166 1.5h-195v109q41 10 87 17t92 10v1093z" />
<glyph unicode="&#x42b;" horiz-adv-x="1791" d="M924 419q0 57 -16 105t-52.5 83t-98 54.5t-152.5 19.5q-44 0 -94 -4t-88 -10v-486q34 -12 85 -19t116 -7q72 0 128 20t94 54.5t58 83t20 106.5zM235 1245q-47 4 -92.5 11t-85.5 17v109h544v-109q-40 -10 -86 -17t-92 -11v-419q50 6 106 8.5t110 2.5q124 0 214.5 -29.5 t149.5 -81.5t87.5 -122.5t28.5 -152.5q0 -107 -38 -190.5t-107.5 -141.5t-168.5 -88.5t-221 -30.5h-527v109q40 10 85.5 17t92.5 10v1109zM1189 0v111q43 9 88.5 16t90.5 10v1108q-44 3 -89 10t-90 17v110h543v-110q-43 -10 -89 -17t-89 -10v-1108q44 -3 90.5 -10t87.5 -16 v-111h-543z" />
<glyph unicode="&#x42c;" horiz-adv-x="1155" d="M924 419q0 57 -16 105t-52.5 83t-98 54.5t-152.5 19.5q-44 0 -94 -4t-88 -10v-486q34 -12 85 -19t116 -7q72 0 128 20t94 54.5t58 83t20 106.5zM235 1245q-47 4 -92.5 11t-85.5 17v109h544v-109q-40 -10 -86 -17t-92 -11v-419q50 6 106 8.5t110 2.5q124 0 214.5 -29.5 t149.5 -81.5t87.5 -122.5t28.5 -152.5q0 -107 -38 -190.5t-107.5 -141.5t-168.5 -88.5t-221 -30.5h-527v109q40 10 85.5 17t92.5 10v1109z" />
<glyph unicode="&#x42d;" horiz-adv-x="1217" d="M128 1332q80 31 171.5 49t194.5 18q153 0 272 -47t200.5 -137.5t123.5 -221.5t42 -298q0 -166 -47.5 -298t-134.5 -224.5t-208.5 -142t-269.5 -49.5q-50 0 -99.5 5.5t-97 15t-91.5 23t-84 30.5l58 171q68 -32 150 -56t170 -24q107 0 189 36.5t138 99.5t85.5 148t33.5 184 h-671v151h672q-7 117 -41.5 206.5t-92.5 149.5t-138 90.5t-176 30.5q-32 0 -63.5 -3t-58 -7t-45 -8.5t-23.5 -7.5q-2 -18 -5 -39t-7 -44t-9 -47.5t-10 -47.5h-128v294v0z" />
<glyph unicode="&#x42e;" horiz-adv-x="2010" d="M1724 685q0 132 -29 235t-85 173.5t-137 107t-184 36.5q-87 0 -165.5 -34.5t-139 -102t-96 -167t-35.5 -229.5q0 -124 26.5 -226.5t80.5 -176t135.5 -113.5t190.5 -40q56 0 110.5 15t103 44.5t89.5 74.5t71.5 104.5t47 134t16.5 164.5v0zM423 137q43 -3 84.5 -9.5 t79.5 -16.5v-111h-530v109q40 11 85.5 18t92.5 10v1108q-47 4 -92.5 11t-85.5 17v109h530v-111q-39 -10 -80 -16t-84 -10v-457h244q14 147 69.5 261.5t140.5 193t195.5 119t235.5 40.5q140 0 254 -44.5t195 -132.5t124.5 -217.5t43.5 -299.5q0 -173 -51.5 -308t-141 -228.5 t-208.5 -142.5t-255 -49q-156 0 -268.5 50t-186.5 137.5t-111.5 208t-42.5 261.5h-237v-500z" />
<glyph unicode="&#x42f;" horiz-adv-x="1274" d="M852 1225q-34 3 -76 4.5t-86 1.5q-79 0 -136.5 -17t-94.5 -48.5t-54.5 -75t-17.5 -95.5q0 -120 77.5 -179.5t229.5 -59.5h158v469zM1217 1382v-110q-41 -9 -86.5 -16.5t-92.5 -10.5v-1108q47 -3 92.5 -10t86.5 -16v-111h-523v111q35 11 76.5 17t81.5 9v471h-213 l-326 -608h-274v111q32 9 68 15t65 9l287 512q-59 13 -108.5 39.5t-85 68t-55.5 98t-20 128.5q0 93 34.5 167.5t102 126t166.5 79.5t228 28h401h95z" />
<glyph unicode="&#x430;" horiz-adv-x="1094" d="M1055 14q-36 -5 -78 -8t-87.5 -5t-91.5 -3t-87 1q0 55 2 107.5t9 95.5l-3 1q-18 -46 -50.5 -87t-77.5 -71t-98.5 -46.5t-115.5 -16.5q-63 0 -117 18.5t-91.5 53.5t-58 86t-20.5 116q0 79 39 142.5t117.5 108t194.5 68t259 23.5v71q0 55 -10.5 97.5t-35.5 72t-66 44 t-101 14.5q-46 0 -96.5 -7.5t-93.5 -21.5q-3 -38 -10 -81t-15 -85h-114v279q76 25 167 40t183 15q110 0 183 -24t116.5 -70.5t61.5 -106.5t18 -145v-545q36 -6 82.5 -11.5t85.5 -8.5v-111zM700 471q-119 0 -202 -13.5t-134.5 -39.5t-72.5 -61.5t-21 -77.5q0 -33 9.5 -60.5 t30.5 -48.5t51.5 -32t65.5 -11q62 0 112 27.5t86 73t55.5 103.5t19.5 118v22z" />
<glyph unicode="&#x431;" horiz-adv-x="1143" d="M1059 544q0 -122 -33.5 -225.5t-96 -178.5t-153 -117t-204.5 -42q-102 0 -184 35.5t-140.5 109.5t-90 188.5t-31.5 272.5v16q0 124 12 235.5t35.5 205t59 166t81.5 118.5q51 52 110 81t120 44t121.5 20.5t116 9t103.5 10t83 23.5v-163q-36 -18 -80.5 -25t-92.5 -10.5 t-98 -6.5t-97.5 -12.5t-91 -28t-77.5 -52.5q-23 -23 -43 -54t-37.5 -78.5t-31.5 -115.5t-24 -166h2q19 46 50.5 86t75.5 71t100.5 48.5t124.5 17.5q85 0 159.5 -26.5t130.5 -84.5t88.5 -150t32.5 -222zM867 525q0 82 -15.5 147.5t-47.5 111t-81 69t-115 23.5t-119 -30 t-90 -79t-56.5 -110t-19.5 -124q0 -97 18.5 -171t53.5 -124t86 -75t116 -25q57 0 106 22.5t85.5 70t57.5 120.5t21 174z" />
<glyph unicode="&#x432;" horiz-adv-x="1108" d="M792 739q0 32 -11.5 60t-40.5 49t-77.5 33.5t-120.5 12.5q-44 0 -82 -2.5t-68 -6.5v-299h160q120 0 180 40t60 113zM825 298q0 45 -20 77t-56 51.5t-86 28t-109 8.5h-162v-325q19 -4 41 -7.5t45 -6t46 -4t43 -1.5q68 0 117 14t80.5 38.5t46 57t14.5 69.5zM42 1018h172 q42 0 82.5 1.5t82.5 4t88 4t98 1.5q120 0 199 -21.5t125.5 -57t65 -83t18.5 -98.5q0 -40 -10.5 -75t-32 -63.5t-54 -50t-76.5 -36.5v-2q54 -9 94 -29t67 -50t41 -68.5t14 -85.5q0 -65 -27.5 -124t-85 -104t-146 -71.5t-210.5 -26.5q-44 0 -89.5 2t-89 5.5t-83 9t-71.5 11.5 v870q-43 3 -88.5 10t-83.5 17v110z" />
<glyph unicode="&#x433;" horiz-adv-x="913" d="M856 1018v-336h-121q-10 59 -18 105.5t-11 85.5h-284v-736q47 -3 92.5 -10t85.5 -18v-109h-540v109q40 11 86 18t92 10v744q-46 3 -91.5 10t-86.5 18v109h796z" />
<glyph unicode="&#x434;" horiz-adv-x="1209" d="M152 145q42 58 65.5 122.5t37 134t17.5 141.5t4 144v194q-45 3 -89 10t-83 18v109h900v-873h135v-440h-168v295h-761v-295h-168v440h110zM452 873v-162q0 -74 -4 -151t-16 -152t-34 -141.5t-59 -121.5h481v728h-368z" />
<glyph unicode="&#x435;" horiz-adv-x="1039" d="M946 616q0 -22 -1 -43t-2 -37.5t-2 -26t-1 -13.5h-666q-2 -94 17 -163t58 -114t98.5 -67.5t140.5 -22.5q75 0 150.5 13.5t150.5 41.5l24 -141q-84 -30 -172 -45.5t-176 -15.5q-118 0 -207.5 31.5t-150.5 95.5t-92 162.5t-31 232.5q0 114 31 211t90.5 169.5t145.5 112 t192 39.5q103 0 180 -32.5t126.5 -90t73 -133t23.5 -164.5zM758 625q1 65 -14 116t-44.5 86t-72.5 52.5t-97 17.5q-50 0 -93 -18t-76.5 -52.5t-55 -85.5t-29.5 -116h482z" />
<glyph unicode="&#x436;" horiz-adv-x="1602" d="M893 516v-379q38 -3 75 -9t68 -17v-111h-471v111q31 11 68 17t76 9v379l-377 -516h-293v113q19 4 40.5 8t43.5 7.5t42.5 6t37.5 4.5l301 387l-305 355q-39 5 -76.5 11t-69.5 15v111h262l394 -481v344q-39 3 -76 9t-68 17v111h471v-111q-31 -11 -68 -17t-75 -9v-344 l395 481h258v-111q-31 -9 -69 -15t-76 -11l-301 -344l301 -398q35 -3 77.5 -10t86.5 -16v-113h-297z" />
<glyph unicode="&#x437;" horiz-adv-x="925" d="M105 991q34 11 73 20t79.5 14.5t80.5 8.5t75 3q109 0 181.5 -24t117 -62.5t63 -87t18.5 -97.5q0 -40 -11 -76t-33 -67t-55.5 -56t-79.5 -40v-2q49 -6 90.5 -24.5t70.5 -47.5t45.5 -69t16.5 -90q0 -66 -28.5 -123t-85.5 -99.5t-140.5 -66.5t-192.5 -24q-93 0 -170.5 15 t-139.5 38l40 150q64 -31 136 -48.5t149 -17.5q59 0 104 12t75.5 34.5t46 53t15.5 67.5q0 45 -20 75t-57 49t-89.5 27t-118.5 8h-140v126h140q127 0 189.5 45.5t62.5 122.5q0 31 -12 60.5t-39 52.5t-71 37t-106 14q-32 0 -71 -4.5t-71 -13.5q-4 -39 -10 -81t-14 -84h-114 v272z" />
<glyph unicode="&#x438;" horiz-adv-x="1276" d="M877 593q0 25 1 49t2 47t2 45.5t3 42.5q-6 -18 -13.5 -36.5t-19.5 -41.5t-29.5 -52.5t-44.5 -69.5l-372 -577h-192v874q-37 6 -83 11.5t-89 8.5v110q37 5 80.5 8t89.5 5t94 2.5t93 -0.5v-577q0 -48 -2 -95.5t-6 -91.5q7 18 15.5 37t21.5 42.5t31 52.5t44 68l364 563h194 v-881q44 -3 89 -10t83 -18v-109h-356v593z" />
<glyph unicode="&#x439;" horiz-adv-x="1276" d="M877 593q0 25 1 49t2 47t2 45.5t3 42.5q-6 -18 -13.5 -36.5t-19.5 -41.5t-29.5 -52.5t-44.5 -69.5l-372 -577h-192v874q-37 6 -83 11.5t-89 8.5v110q37 5 80.5 8t89.5 5t94 2.5t93 -0.5v-577q0 -48 -2 -95.5t-6 -91.5q7 18 15.5 37t21.5 42.5t31 52.5t44 68l364 563h194 v-881q44 -3 89 -10t83 -18v-109h-356v593zM969 1465q0 -57 -19.5 -106.5t-60.5 -86t-104 -57t-149 -20.5q-81 0 -142.5 19t-102.5 53.5t-62 84.5t-21 113h166q0 -76 40.5 -115.5t126.5 -39.5q81 0 120.5 41t39.5 114h168v0z" />
<glyph unicode="&#x43a;" horiz-adv-x="1147" d="M809 0l-387 516v-379q42 -3 80 -9.5t67 -16.5v-111h-510v111q43 9 88.5 16t90.5 10v735q-37 7 -85.5 12.5t-93.5 8.5v111q40 5 84.5 8.5t92.5 5.5t95.5 2t90.5 -2v-488l311 353q-41 5 -73 11t-54 15v109h484v-111q-28 -8 -65 -14.5t-81 -11.5l-315 -342l315 -400 q35 -3 78 -10t88 -16v-113h-301z" />
<glyph unicode="&#x43b;" horiz-adv-x="1195" d="M269 874q-37 6 -83 11t-89 9v110q38 5 82.5 8t91 4.5t93 2t89.5 -0.5h527v-881q45 -3 88.5 -10t83.5 -18v-109h-520v111q38 10 80 16.5t84 9.5v736h-352v-161q0 -120 -7.5 -219t-24.5 -178.5t-45.5 -139t-69.5 -101t-97 -64t-129 -27.5l-16 154q57 5 97.5 34t66.5 93 t38 170.5t12 266.5v173z" />
<glyph unicode="&#x43c;" horiz-adv-x="1621" d="M1351 843l109 -708q33 -4 66.5 -9.5t63.5 -14.5v-111h-297l-80 585q-6 35 -10.5 66.5t-8 60.5t-7.5 56.5t-7 56.5h-2q-9 -52 -20.5 -97.5t-24.5 -84.5l-228 -643h-194l-217 602q-18 54 -34.5 111t-28.5 112h-2q-4 -58 -11.5 -118.5t-19.5 -131.5l-75 -575h-288v111 q30 9 63.5 14.5t66.5 9.5l3 21l115 727q-34 4 -67 9.5t-63 14.5v111h386l226 -626q14 -42 26.5 -90.5t23.5 -99.5h2q11 51 24.5 99.5t32.5 102.5l223 614h378v-111q-30 -9 -63.5 -14.5t-66.5 -9.5z" />
<glyph unicode="&#x43d;" horiz-adv-x="1318" d="M238 874q-18 3 -40 6t-45.5 5.5t-47 4.5t-45.5 4v109q39 5 83.5 8.5t91 5.5t94.5 2.5t93 -0.5v-421h472v283q-37 3 -75.5 9.5t-76.5 15.5v112h516v-109q-40 -11 -86 -18t-92 -10v-744q46 -3 92 -10t86 -18v-109h-364v451h-472v-314q42 -3 84 -9.5t80 -16.5v-111h-526v109 q40 11 86 18t92 10v737z" />
<glyph unicode="&#x43e;" horiz-adv-x="1120" d="M1036 524q0 -115 -32 -214t-95 -172.5t-155.5 -114.5t-210.5 -41q-106 0 -190.5 31t-144.5 95t-92 160.5t-32 225.5q0 115 32 214t95 172.5t156 114.5t211 41q105 0 189.5 -31.5t144.5 -95t92 -160.5t32 -225zM846 510q0 88 -19.5 158t-56.5 118t-90 72.5t-119 24.5 q-65 0 -118 -24t-90.5 -71t-58 -118t-20.5 -162q0 -88 19.5 -157.5t56 -117t89 -72t118.5 -24.5q63 0 115.5 22.5t91.5 68.5t60.5 117t21.5 165z" />
<glyph unicode="&#x43f;" horiz-adv-x="1289" d="M868 0v873h-446v-736q40 -3 80 -10t75 -16v-111h-517v109q40 11 86 18t92 10v745q-46 3 -92 10.5t-86 17.5v108h1170v-108q-41 -10 -86.5 -17.5t-91.5 -10.5v-745q46 -3 91.5 -10t86.5 -18v-109h-362z" />
<glyph unicode="&#x440;" horiz-adv-x="1181" d="M1093 558q0 -136 -35.5 -242.5t-103 -179t-165 -110.5t-221.5 -38q-23 0 -44.5 0.5t-42.5 1.5t-41.5 3t-43.5 6v-367q46 -3 92 -10t86 -17v-110h-534v110q40 10 82.5 17t89.5 10v1242q-37 6 -82.5 11.5t-89.5 8.5v109q37 5 81.5 8.5t90.5 5.5t92 2.5t87 -0.5 q0 -23 -1 -49.5t-3 -54.5t-5 -55t-7 -49l4 -2q21 53 54.5 95t77 71.5t96 45t112.5 15.5q90 0 159.5 -31t117.5 -91.5t72.5 -150t24.5 -205.5zM899 540q0 82 -13.5 146.5t-41 108.5t-70 67t-99.5 23q-46 0 -85 -16.5t-70 -45.5t-54.5 -68t-38.5 -82.5t-23 -90t-8 -91.5v-335 q41 -13 85 -18.5t96 -5.5q72 0 131.5 23t102 72t65.5 126t23 187z" />
<glyph unicode="&#x441;" horiz-adv-x="914" d="M858 41q-27 -11 -63.5 -22t-76.5 -18.5t-83 -12t-89 -4.5q-65 0 -123.5 10.5t-109.5 34t-93 61t-72 92t-47 127t-17 170.5q0 118 31 221t92.5 177t157.5 115.5t223 41.5q66 0 131 -10t117 -27v-301h-115q-10 43 -17 88t-10 82q-27 7 -61 12t-71 5q-69 0 -122 -27.5 t-89.5 -77t-55.5 -119t-19 -150.5t14.5 -147.5t48 -115t92.5 -77t149 -28.5q61 0 128.5 14t120.5 38l29 -152v0z" />
<glyph unicode="&#x442;" horiz-adv-x="1001" d="M823 682q-10 59 -18.5 105.5t-11.5 85.5h-203v-736q47 -3 92.5 -10t85.5 -18v-109h-539v109q40 11 85.5 18t92.5 10v736h-200q-3 -39 -10.5 -85.5t-18.5 -105.5h-121v336h887v-336h-121z" />
<glyph unicode="&#x443;" horiz-adv-x="1149" d="M1135 907q-29 -9 -62 -15t-67 -9l-361 -992q-42 -119 -84.5 -197.5t-93 -126t-114 -68.5t-150.5 -21q-15 0 -32.5 1t-36.5 2.5t-37 3.5t-34 5l15 166q39 -11 70.5 -17t64.5 -6q43 0 76 12t62 40.5t55.5 77t54.5 122.5l43 115h-47l-314 883q-35 3 -69 9t-62 15v111h467 v-111q-29 -9 -62.5 -15t-70.5 -9l154 -441q37 -116 50 -157.5t28 -96.5h4q6 25 15.5 58.5t21.5 72t25 77t32 96.5l137 391q-37 3 -70.5 9t-62.5 15v111h455v-111z" />
<glyph unicode="&#x444;" horiz-adv-x="1570" d="M589 1032q23 0 52.5 -3.5t51.5 -9.5v332q-37 6 -85 11.5t-93 8.5v109q38 5 82.5 8.5t92 5.5t95 2.5t92.5 -0.5v-330q0 -61 -2.5 -124t-8.5 -120h2q37 52 101 83t150 31q81 0 147.5 -27.5t114.5 -85t74.5 -149t26.5 -220.5q0 -137 -32.5 -243t-95.5 -178.5t-156.5 -110 t-215.5 -37.5q-24 0 -52.5 2.5t-52.5 8.5v-364q46 -3 92 -10t86 -17v-110h-540v110q40 10 85.5 17t92.5 10v246q0 57 2 113.5t8 103.5h-2q-36 -53 -100 -84t-150 -31q-81 0 -148 27.5t-115 85.5t-74.5 149.5t-26.5 219.5q0 138 32.5 244t96 178.5t156.5 110t217 37.5v0z M281 505q0 -106 16 -178t45 -114.5t69 -61t87 -18.5q42 0 77.5 18t62 52t41.5 84.5t15 115.5v460q-21 7 -53 12.5t-69 5.5q-68 0 -122 -21.5t-91.5 -67t-57.5 -116.5t-20 -171v0zM1288 512q0 106 -16 177.5t-45 114.5t-68.5 61.5t-87.5 18.5q-41 0 -77 -18t-62.5 -52.5 t-41.5 -85t-15 -114.5v-460q22 -7 53.5 -12.5t68.5 -5.5q68 0 122 21.5t91.5 67t57.5 117t20 170.5v0z" />
<glyph unicode="&#x445;" horiz-adv-x="1083" d="M743 0l-208 385l-209 -385h-306v113q45 9 88.5 17t85.5 11l234 370l-220 366q-41 3 -84.5 11t-87.5 17v113h313l200 -376l204 376h297v-113q-44 -9 -87.5 -17t-84.5 -11l-216 -360l231 -376q42 -3 85 -11t88 -17v-113h-323z" />
<glyph unicode="&#x446;" horiz-adv-x="1263" d="M238 874q-18 3 -40.5 6t-46 5.5t-47 4.5t-44.5 4v109q39 5 82 8.5t89 5.5t94 2.5t97 -0.5v-874h448v729q-35 6 -79 11.5t-85 8.5v110q36 5 78 8t87 5t91.5 2.5t91.5 -0.5v-874h172v-440h-163v295h-1003v109q20 6 41.5 10t44.5 7.5t46.5 6t45.5 4.5v737z" />
<glyph unicode="&#x447;" horiz-adv-x="1222" d="M1008 137q46 -4 89 -10.5t83 -17.5v-109h-534v109q40 11 86 18t92 10v271q-60 -17 -127.5 -25t-136.5 -8q-107 0 -177.5 26.5t-112 73t-58 108.5t-16.5 132v159q-36 6 -77 11.5t-82 8.5v110q35 5 76.5 8t86.5 5t90.5 2.5t89.5 -0.5v-270q0 -56 9.5 -99t32.5 -72 t61.5 -43.5t96.5 -14.5q60 0 120.5 6t123.5 27v321q-35 6 -79 11t-86 8v112q37 4 80.5 7.5t88.5 5t91 2t89 -0.5v-882z" />
<glyph unicode="&#x448;" horiz-adv-x="1711" d="M1496 137q45 -3 89 -10t84 -18v-109h-1609v109q42 11 87.5 18t90.5 10v737q-18 3 -40 6t-45.5 5.5t-47 4.5t-45.5 4v109q39 5 83.5 8.5t91 5.5t94.5 2.5t93 -0.5v-874h357v729q-34 6 -78 11.5t-87 8.5v110q36 5 78.5 8t87 5t90.5 2.5t91 -0.5v-874h351v729 q-35 6 -78.5 11.5t-85.5 8.5v110q36 5 78.5 8t87.5 5t91.5 2.5t90.5 -0.5v-882z" />
<glyph unicode="&#x449;" horiz-adv-x="1705" d="M1379 0h-1319v109q20 6 41.5 10t44.5 7.5t46.5 6t45.5 4.5v737q-18 3 -40.5 6t-46 5.5t-47 4.5t-44.5 4v109q39 5 83.5 8.5t91 5.5t94.5 2.5t93 -0.5v-874h357v729q-37 6 -80 11.5t-85 8.5v110q36 5 78.5 8t87 5t90.5 2.5t91 -0.5v-874h351v729q-35 6 -78.5 11.5 t-85.5 8.5v110q36 5 78.5 8t87.5 5t91.5 2.5t90.5 -0.5v-874h173v-440h-163v295h-127z" />
<glyph unicode="&#x44a;" horiz-adv-x="1232" d="M1001 325q-1 40 -14 75t-43 61.5t-79.5 41.5t-122.5 15q-43 0 -84 -3.5t-68 -7.5v-356q34 -11 79 -16t90 -5q60 0 105 14.5t75 40.5t45.5 62t16.5 78zM590 1018v-365q41 5 91.5 8t96.5 3q105 0 183 -23t130 -64.5t77 -100.5t25 -131q0 -75 -29.5 -141t-88.5 -115 t-147 -77t-203 -28q-25 0 -53 2.5t-56.5 5.5t-55.5 5.5t-50 2.5h-282v109q40 11 86 18t92 10v736h-199q-3 -39 -11 -85.5t-18 -105.5h-121v336h533z" />
<glyph unicode="&#x44b;" horiz-adv-x="1624" d="M422 653q20 2 42.5 4.5t45.5 3.5l46 2t46 1q106 0 184 -23t129 -64.5t76 -100.5t25 -131q0 -75 -28 -141t-85.5 -115t-143.5 -77t-203 -28q-24 0 -51.5 2.5t-56 5.5t-56 5.5t-50.5 2.5h-282v109q40 11 86 18t92 10v736q-37 6 -85 11.5t-93 8.5v110q39 4 84 8t93 6t95 2 t90 -1v-365zM825 325q0 40 -13 75t-42.5 61.5t-78.5 41.5t-122 15q-22 0 -42 -1t-39 -2.5t-36 -3.5t-30 -4v-356q34 -11 76.5 -16t87.5 -5q59 0 103.5 14.5t74.5 40.5t45.5 62t15.5 78zM1410 137q45 -3 89.5 -10t82.5 -18v-109h-522v109q37 11 80 18t86 10v737 q-35 6 -81 11.5t-89 8.5v109q35 5 78.5 8.5t89.5 5.5t94 2.5t92 -0.5v-882z" />
<glyph unicode="&#x44c;" horiz-adv-x="1064" d="M422 653q20 2 43.5 4.5t48 3.5l49 2t47.5 1q106 0 184 -23t129 -64.5t76.5 -100.5t25.5 -131q0 -75 -30 -141t-88.5 -115t-146 -77t-204.5 -28q-24 0 -51.5 2.5t-56 5.5t-56 5.5t-50.5 2.5h-282v109q40 11 86 18t92 10v736q-37 6 -85 11.5t-93 8.5v110q39 4 84 8t93 6 t95 2t90 -1v-365zM833 325q0 40 -13 75t-43 61.5t-79.5 41.5t-122.5 15q-43 0 -84.5 -3.5t-68.5 -7.5v-356q34 -11 79.5 -16t90.5 -5q59 0 104 14.5t75.5 40.5t46 62t15.5 78z" />
<glyph unicode="&#x44d;" horiz-adv-x="964" d="M688 567q-2 86 -28 147t-67.5 100.5t-96.5 58.5t-116 19q-35 0 -72.5 -4.5t-69.5 -14.5q-4 -39 -10 -78.5t-14 -82.5h-113v275q28 11 63 20t74.5 15t80 9.5t78.5 3.5q115 0 205.5 -34t152.5 -100.5t95 -164.5t33 -226q0 -119 -35 -215.5t-99.5 -165.5t-154.5 -107 t-201 -38q-97 0 -173.5 20.5t-137.5 51.5l45 151q31 -17 62 -31.5t63.5 -25t67.5 -16.5t73 -6q70 0 124 23t91 64.5t58 98.5t24 125h-472v128h471h-1z" />
<glyph unicode="&#x44e;" horiz-adv-x="1694" d="M1419 516q0 87 -17.5 155t-53 115t-88.5 71.5t-124 24.5q-55 0 -107 -21.5t-92 -66t-64.5 -113.5t-24.5 -164q0 -92 19 -162.5t55.5 -119t90 -73t123.5 -24.5q57 0 108.5 22.5t90.5 69t61.5 117.5t22.5 169zM1610 526q0 -115 -35 -214.5t-100 -173t-156.5 -115.5 t-204.5 -42q-100 0 -180.5 28t-138.5 86t-91.5 146.5t-38.5 210.5h-243v-315q41 -3 83.5 -9t79.5 -16v-112h-525v109q40 11 86 18t92 10v737q-37 6 -85 11.5t-93 8.5v109q39 5 83.5 8.5t91.5 5.5t95 2.5t92 -0.5v-425h247q13 93 50.5 174.5t99.5 140.5t146 93t188 34 q97 0 180.5 -28t145 -89.5t96.5 -158t35 -234.5z" />
<glyph unicode="&#x44f;" horiz-adv-x="1128" d="M729 893q-35 3 -70 3.5t-67 0.5q-71 0 -120 -12.5t-79 -35t-43.5 -53t-13.5 -65.5q0 -32 11.5 -62.5t40 -54t75.5 -37.5t119 -14h147v330zM913 145q38 -6 84 -11.5t88 -8.5v-111q-36 -5 -81 -8.5t-92.5 -5.5t-94.5 -2t-88 2v428h-207l-205 -428h-278v111q28 8 65 15.5 t66 10.5l178 338q-46 11 -84 32.5t-65 53.5t-41.5 73t-14.5 91q0 70 28.5 127.5t86.5 97.5t147 62t209 22q62 0 140.5 -4.5t158.5 -13.5v-871z" />
<glyph unicode="&#x451;" horiz-adv-x="1039" d="M946 616q0 -22 -1 -43t-2 -37.5t-2 -26t-1 -13.5h-666q-2 -94 17 -163t58 -114t98.5 -67.5t140.5 -22.5q75 0 150.5 13.5t150.5 41.5l24 -141q-84 -30 -172 -45.5t-176 -15.5q-118 0 -207.5 31.5t-150.5 95.5t-92 162.5t-31 232.5q0 114 31 211t90.5 169.5t145.5 112 t192 39.5q103 0 180 -32.5t126.5 -90t73 -133t23.5 -164.5zM758 625q1 65 -14 116t-44.5 86t-72.5 52.5t-97 17.5q-50 0 -93 -18t-76.5 -52.5t-55 -85.5t-29.5 -116h482zM779 1339q0 -22 -8.5 -42.5t-23.5 -35.5t-35.5 -23.5t-42.5 -8.5q-23 0 -43 8.5t-35.5 23.5t-24 35.5 t-8.5 42.5q0 23 8.5 43t24 35.5t35.5 24t43 8.5q22 0 42.5 -8.5t35.5 -24t23.5 -35.5t8.5 -43zM386 1339q0 -22 -8.5 -42.5t-23.5 -35.5t-35.5 -23.5t-42.5 -8.5q-23 0 -43 8.5t-35.5 23.5t-24 35.5t-8.5 42.5q0 23 8.5 43t24 35.5t35.5 24t43 8.5q22 0 42.5 -8.5t35.5 -24 t23.5 -35.5t8.5 -43z" />
<glyph unicode="&#x452;" horiz-adv-x="1185" d="M1062 405q0 -121 -3.5 -213t-11.5 -162t-19.5 -120.5t-27.5 -88.5t-36 -66t-45 -53q-44 -44 -105 -72.5t-146 -49.5l-42 143q56 15 94.5 33.5t63.5 43.5t43 56.5t29 89.5t16.5 153t5.5 247v38q0 102 -5.5 178.5t-16 131.5t-27 91t-39 57.5t-50.5 30t-63 8.5 q-56 0 -105.5 -29.5t-87 -79.5t-58.5 -116.5t-21 -140.5v-378q40 -3 81 -9.5t77 -16.5v-111h-521v109q40 11 86 18t92 10v1040h-187v129h187v76q-37 6 -85 11.5t-93 8.5v97q39 5 84 8.5t92 5.5t94.5 2.5t92.5 -1.5v-208h276v-129h-276v-182q0 -26 -1.5 -51t-3 -48.5 t-4.5 -45t-7 -40.5h2q20 49 53 89.5t76.5 70t96 46t109.5 16.5q91 0 154.5 -30.5t104 -100t59 -183t18.5 -279.5v-34v0z" />
<glyph unicode="&#x453;" horiz-adv-x="913" d="M856 1018v-336h-121q-10 59 -18 105.5t-11 85.5h-284v-736q47 -3 92.5 -10t85.5 -18v-109h-540v109q40 11 86 18t92 10v744q-46 3 -91.5 10t-86.5 18v109h796zM399 1165l-90 88l264 285l113 -108z" />
<glyph unicode="&#x454;" horiz-adv-x="969" d="M275 567h474v-128h-469q5 -85 31.5 -144t68.5 -96t96.5 -53.5t116.5 -16.5t125.5 16t128.5 51l40 -137q-70 -35 -149 -55t-169 -20q-115 0 -205.5 34t-152.5 100.5t-95 164.5t-33 226q0 118 35 215t99 166t154.5 107t201.5 38q91 0 165 -17t127 -41v-265h-112 q-8 35 -14.5 73t-10.5 75q-34 14 -72.5 23t-85.5 9q-68 0 -122 -23.5t-92 -66t-59 -102.5t-22 -133v0z" />
<glyph unicode="&#x455;" horiz-adv-x="893" d="M803 279q0 -67 -26.5 -122t-79 -94t-128.5 -60t-174 -21q-54 0 -105 3.5t-89.5 8.5t-60 8.5t-29.5 5.5v289h112q5 -18 13.5 -61.5t13.5 -96.5q18 -4 62 -11t100 -7q48 0 85.5 9t63.5 27t39.5 45t13.5 62q0 40 -21 69.5t-55.5 50.5t-86 42t-101.5 41t-93.5 43.5t-79 57 t-56.5 81t-21 109.5q0 63 26.5 114.5t78.5 88t127.5 56t171.5 19.5q76 0 143.5 -9t97.5 -15v-281h-112q-4 19 -12 62.5t-13 97.5q-14 3 -48 7.5t-75 4.5q-95 0 -146.5 -33.5t-51.5 -97.5q0 -39 21 -68t55.5 -50t85.5 -41.5t102 -40.5t94.5 -43.5t79.5 -57.5t57 -81.5 t21 -110.5z" />
<glyph unicode="&#x456;" horiz-adv-x="631" d="M447 1340q0 -25 -9.5 -46.5t-26 -38t-39 -26t-47.5 -9.5t-47.5 9.5t-39 25.5t-26.5 38t-10 47t10 47t26.5 38t39 25.5t47.5 9.5t47.5 -9t39 -25t26 -38t9.5 -48zM59 0v111q40 9 83.5 16t89.5 10v737q-37 6 -82.5 11.5t-90.5 8.5v109q39 5 81 8.5t89 5.5t95 2.5t92 -0.5 v-882q45 -3 89.5 -10t80.5 -16v-111h-527z" />
<glyph unicode="&#x457;" horiz-adv-x="631" d="M58 0v111q35 9 81 16t92 10v736q-37 6 -82.5 12t-90.5 9v109q39 5 81 8.5t89 5.5t95.5 2.5t92.5 -0.5v-882q45 -3 89 -10t81 -16v-111h-528zM617 1340q0 -22 -8.5 -42.5t-24 -35.5t-35.5 -23.5t-43 -8.5q-22 0 -42.5 8.5t-35.5 23.5t-23.5 35.5t-8.5 42.5q0 23 8.5 43 t23.5 35.5t35.5 24t42.5 8.5q23 0 43.5 -8t35.5 -23.5t23.5 -35.5t8.5 -44zM259 1340q0 -22 -8.5 -42.5t-24 -35.5t-36 -23.5t-42.5 -8.5q-23 0 -43 8.5t-35.5 23.5t-24 35.5t-8.5 42.5q0 23 8.5 43t24 35.5t35.5 24t43 8.5t43 -8t35.5 -23.5t24 -35.5t8.5 -44z" />
<glyph unicode="&#x458;" horiz-adv-x="568" d="M424 1339q0 -24 -9 -45.5t-26 -38t-39 -25.5t-47 -9t-47.5 9t-39.5 25t-26.5 37.5t-9.5 46.5t9.5 47t26.5 39t39.5 26t47.5 9t47 -9t39 -26t26 -39t9 -47zM393 -113q0 -105 -18.5 -180.5t-59.5 -126t-109 -75.5t-167 -25q-32 0 -70.5 4t-66.5 10l14 162q30 -9 64.5 -15 t62.5 -6q50 0 81.5 11.5t50.5 38t27.5 71.5t8.5 115v1001q-36 7 -83 12.5t-89 8.5v111q39 5 82.5 8.5t89.5 5.5t93 2t89 -2v-1131z" />
<glyph unicode="&#x459;" horiz-adv-x="1593" d="M603 0v111q37 10 79.5 16.5t84.5 9.5v19v717h-353v-161q0 -120 -7 -219t-24 -178.5t-45.5 -139t-69.5 -101t-97 -64t-129 -27.5l-17 154q58 5 98.5 34t66.5 93t38 170.5t12 266.5v173q-37 6 -83 11t-90 9v110q39 5 83.5 8t91 4.5t93 2t88.5 -0.5h528v-365q20 2 43.5 4.5 t48 3.5l49 2t47.5 1q106 0 183.5 -23t129 -64.5t76.5 -100.5t25 -131q0 -75 -29.5 -141t-88 -115t-146 -77t-204.5 -28q-24 0 -52 2.5t-56 5.5t-55.5 5.5t-50.5 2.5h-268zM1362 325q0 40 -13 75t-43.5 61.5t-80 41.5t-122.5 15q-42 0 -83.5 -3.5t-68.5 -7.5v-356 q34 -11 79 -16t91 -5q59 0 104 14.5t75.5 40.5t46 62t15.5 78v0z" />
<glyph unicode="&#x45a;" horiz-adv-x="1719" d="M1078 1018v-365q20 2 43.5 4.5t48 3.5l49 2t47.5 1q106 0 184 -23t129 -64.5t76 -100.5t25 -131q0 -75 -29.5 -141t-88 -115t-146.5 -77t-204 -28q-24 0 -51.5 2.5t-56 5.5t-56 5.5t-50.5 2.5h-104v451h-472v-314q42 -3 84 -9.5t80 -16.5v-111h-526v109q40 11 86 18 t92 10v737q-18 3 -40 6t-45.5 5.5t-47 4.5t-45.5 4v109q39 5 83.5 8.5t91 5.5t94.5 2.5t93 -0.5v-421h472v283q-37 3 -75.5 9.5t-76.5 15.5v112h336zM1488 325q0 40 -13 75t-43 61.5t-79.5 41.5t-122.5 15q-42 0 -83.5 -3.5t-68.5 -7.5v-356q34 -11 79.5 -16t90.5 -5 q59 0 104 14.5t75 40.5t45.5 62t15.5 78z" />
<glyph unicode="&#x45b;" horiz-adv-x="1263" d="M405 1259h276v-129h-276v-138q0 -47 -4 -97t-14 -91l4 -1q22 51 56.5 94t79 72.5t100 46t119.5 16.5q87 0 146 -25.5t94 -70t50.5 -103.5t15.5 -127v-569q43 -3 88 -10t84 -18v-109h-356v655q0 54 -8.5 96t-28.5 71.5t-53 44.5t-83 15q-64 0 -117 -30t-91.5 -83.5 t-60 -125.5t-21.5 -157v-349q41 -3 83.5 -9.5t80.5 -16.5v-111h-527v109q40 11 86 18t92 10v993h-187v129h187v123q-37 6 -85 11.5t-93 8.5v97q39 5 84 8.5t92 5.5t94.5 2.5t92.5 -1.5v-255z" />
<glyph unicode="&#x45c;" horiz-adv-x="1147" d="M809 0l-387 516v-379q42 -3 80 -9.5t67 -16.5v-111h-510v111q43 9 88.5 16t90.5 10v735q-37 7 -85.5 12.5t-93.5 8.5v111q40 5 84.5 8.5t92.5 5.5t95.5 2t90.5 -2v-488l311 353q-41 5 -73 11t-54 15v109h484v-111q-28 -8 -65 -14.5t-81 -11.5l-315 -342l315 -400 q35 -3 78 -10t88 -16v-113h-301zM537 1165l-90 88l264 285l113 -108z" />
<glyph unicode="&#x45e;" horiz-adv-x="1149" d="M1135 907q-29 -9 -62 -15t-67 -9l-361 -992q-42 -119 -84.5 -197.5t-93 -126t-114 -68.5t-150.5 -21q-15 0 -32.5 1t-36.5 2.5t-37 3.5t-34 5l15 166q39 -11 70.5 -17t64.5 -6q43 0 76 12t62 40.5t55.5 77t54.5 122.5l43 115h-47l-314 883q-35 3 -69 9t-62 15v111h467 v-111q-29 -9 -62.5 -15t-70.5 -9l154 -441q37 -116 50 -157.5t28 -96.5h4q6 25 15.5 58.5t21.5 72t25 77t32 96.5l137 391q-37 3 -70.5 9t-62.5 15v111h455v-111zM907 1465q0 -57 -19.5 -106.5t-60.5 -86t-104 -57t-149 -20.5q-81 0 -142.5 19t-102.5 53.5t-62 84.5t-21 113 h166q0 -76 40.5 -115.5t126.5 -39.5q81 0 120.5 41t39.5 114h168v0z" />
<glyph unicode="&#x45f;" horiz-adv-x="1276" d="M729 0v-295h-162v295h-507v109q42 11 87.5 18t90.5 10v737q-18 3 -40 6t-45.5 5.5t-47 4.5t-45.5 4v109q39 5 83.5 8.5t91 5.5t94.5 2.5t93 -0.5v-874h456v729q-36 7 -76 12t-80 8v110q33 5 76.5 8t84.5 5t87.5 2.5t91.5 -0.5v-882q44 -3 88.5 -10t83.5 -18v-109h-505z " />
<glyph unicode="&#x490;" horiz-adv-x="1020" d="M235 1382h565v249h169v-406h-546v-1088q46 -3 92 -10t86 -18v-109h-544v109q40 11 85.5 18t92.5 10v1108q-47 4 -92.5 11t-85.5 17v109h178z" />
<glyph unicode="&#x491;" horiz-adv-x="913" d="M422 137q47 -3 92.5 -10t85.5 -18v-109h-540v109q40 11 86 18t92 10v745q-46 3 -92 10.5t-86 17.5v108h631v228h165v-373h-434v-736z" />
<glyph unicode="&#x2013;" d="M0 530v160h1126v-160h-1126z" />
<glyph unicode="&#x2014;" horiz-adv-x="2048" d="M242 530v160h1564v-160h-1564z" />
<glyph unicode="&#x2018;" horiz-adv-x="500" d="M415 1466q-49 -54 -75 -98t-35 -80.5t-2 -65.5t24 -51q22 -28 24.5 -60t-10.5 -60t-39.5 -46t-63.5 -18t-66.5 20.5t-45.5 57.5t-14.5 87.5t24.5 111.5t71.5 130t128.5 142l79 -70v0z" />
<glyph unicode="&#x2019;" horiz-adv-x="500" d="M258 1521q37 0 66.5 -20.5t45 -57t14.5 -87.5t-24.5 -112t-72.5 -129.5t-127 -141.5l-80 70q49 53 75.5 97.5t35.5 81t2 65.5t-25 51q-14 18 -20 38.5t-4.5 41t10.5 39t23.5 33t34.5 23t46 8.5z" />
<glyph unicode="&#x201a;" horiz-adv-x="500" d="M258 233q37 0 66.5 -20.5t45 -57.5t14.5 -88t-24.5 -112t-72 -130t-127.5 -141l-80 71q50 53 76.5 97t35 80.5t1.5 65t-25 51.5q-14 18 -20 38.5t-4.5 41t10.5 39.5t23.5 33.5t35 23t45.5 8.5z" />
<glyph unicode="&#x201c;" horiz-adv-x="887" d="M804 1466q-49 -54 -75.5 -98t-35 -80.5t-2 -65.5t24.5 -51q15 -19 21 -39t4 -40.5t-10.5 -39.5t-23 -33.5t-35 -23t-44.5 -8.5q-38 0 -67.5 20.5t-45 57.5t-14.5 87.5t24 111.5t71.5 130t128.5 142zM415 1466q-49 -54 -75 -98t-35 -80.5t-2 -65.5t24 -51q22 -28 24.5 -60 t-10.5 -60t-39.5 -46t-63.5 -18t-66.5 20.5t-45.5 57.5t-14.5 87.5t24.5 111.5t71.5 130t128.5 142z" />
<glyph unicode="&#x201d;" horiz-adv-x="887" d="M646 1521q38 0 67.5 -20.5t45 -57t14.5 -87.5t-24.5 -112t-72.5 -129.5t-127 -141.5l-79 70q49 53 75.5 97.5t35 81t2 65.5t-24.5 51q-15 18 -21 38.5t-4.5 41t10.5 39t23.5 33t35 23t44.5 8.5zM258 1521q37 0 66.5 -20.5t45 -57t14.5 -87.5t-24.5 -112t-72.5 -129.5 t-127 -141.5l-80 70q49 53 75.5 97.5t35.5 81t2 65.5t-25 51q-14 18 -20 38.5t-4.5 41t10.5 39t23.5 33t34.5 23t46 8.5z" />
<glyph unicode="&#x201e;" horiz-adv-x="887" d="M646 233q38 0 67.5 -20.5t45 -57.5t14.5 -88t-24.5 -112t-72.5 -130t-127 -141l-79 71q49 53 75.5 97t35 80.5t2 65t-24.5 51.5q-15 18 -21 38.5t-4.5 41t10.5 39.5t23.5 33.5t35 23t44.5 8.5zM258 233q37 0 66.5 -20.5t45 -57.5t14.5 -88t-24.5 -112t-72.5 -130 t-127 -141l-80 71q49 53 75.5 97t35.5 80.5t2 65t-25 51.5q-14 18 -20 38.5t-4.5 41t10.5 39.5t23.5 33.5t34.5 23t46 8.5z" />
<glyph unicode="&#x2020;" horiz-adv-x="920" d="M533 1141l34 -200l-38 -514h-138l-39 514l34 200h-286v143h286l-34 280h215l-34 -280h286v-143h-286z" />
<glyph unicode="&#x2021;" horiz-adv-x="920" d="M534 605l34 -266h-217l34 266h-285v144h285l-33 203l33 203h-285v144h285l-33 265h215l-33 -265h285v-144h-285l33 -203l-33 -203h285v-144h-285z" />
<glyph unicode="&#x2022;" horiz-adv-x="860" d="M678 608q0 -50 -19 -95.5t-53.5 -80t-80 -53.5t-95.5 -19t-95.5 19t-80 53.5t-53.5 80t-19 95.5t19 95.5t53.5 80t80 53.5t95.5 19t95.5 -19t80 -53.5t53.5 -80t19 -95.5z" />
<glyph unicode="&#x2026;" horiz-adv-x="1362" d="M1235 105q0 -25 -10 -47.5t-27 -39.5t-39 -26.5t-48 -9.5q-25 0 -47.5 9.5t-39.5 26.5t-26.5 39.5t-9.5 47.5q0 26 9.5 48.5t26.5 39t39.5 26.5t47.5 10q26 0 48 -10t39 -26.5t27 -39t10 -48.5zM794 105q0 -25 -10 -47.5t-26.5 -39.5t-39 -26.5t-48.5 -9.5 q-25 0 -47.5 9.5t-39.5 26.5t-26.5 39.5t-9.5 47.5q0 26 9.5 48.5t26.5 39t39.5 26.5t47.5 10q26 0 48.5 -10t39 -26.5t26.5 -39t10 -48.5zM354 105q0 -25 -9.5 -47.5t-26.5 -39.5t-39.5 -26.5t-47.5 -9.5q-26 0 -48.5 9.5t-39 26.5t-26.5 39.5t-10 47.5q0 26 10 48.5 t26.5 39t39 26.5t48.5 10q25 0 47.5 -10t39.5 -26.5t26.5 -39t9.5 -48.5z" />
<glyph unicode="&#x2030;" horiz-adv-x="2150" d="M686 1092q0 -81 -24 -146.5t-67.5 -112t-100 -70.5t-121.5 -24t-117.5 19.5t-90 59t-57.5 101t-20 144.5q0 80 24 145.5t67 111t98 69.5t116 24q66 0 119 -18t92 -56.5t60.5 -100t21.5 -146.5zM526 1079q0 54 -7 91.5t-23 62t-43 36t-66 11.5q-33 0 -59 -14.5t-44.5 -41 t-28 -64t-9.5 -83.5q0 -52 7.5 -90t23.5 -63.5t42.5 -38.5t63.5 -13q35 0 62 14t45 41t27 65.5t9 86.5zM1358 324q0 -81 -24 -147t-67.5 -112.5t-100.5 -71t-122 -24.5t-117.5 19.5t-89.5 59t-57 101t-20 144.5q0 80 24 145.5t66.5 111t97.5 69.5t117 24q66 0 119 -18 t92 -56t60.5 -99.5t21.5 -145.5zM1198 309q0 55 -7.5 92.5t-23.5 61.5t-43 35.5t-67 11.5q-32 0 -58 -14.5t-44 -41t-27.5 -64t-9.5 -83.5q0 -52 7.5 -90t23.5 -63.5t41.5 -38.5t62.5 -13q36 0 63 14.5t45.5 41.5t27.5 65t9 86zM2040 324q0 -81 -24 -147t-66.5 -112.5 t-99.5 -71t-121 -24.5q-66 0 -118.5 19.5t-90.5 59t-58 101t-20 144.5q0 80 24 145.5t67 111t98.5 69.5t117.5 24q65 0 118 -18t91.5 -56t60 -99.5t21.5 -145.5zM1882 309q0 54 -7.5 92t-24 62t-43.5 35.5t-66 11.5q-33 0 -58.5 -14t-43.5 -41t-27.5 -64.5t-9.5 -83.5 q0 -52 7.5 -90t23.5 -63.5t41.5 -38.5t62.5 -13q36 0 63 14.5t45.5 41.5t27.5 65t9 86zM305 -47l-131 94l963 1383l131 -95z" />
<glyph unicode="&#x2039;" horiz-adv-x="641" d="M352 236l-243 364l247 371l136 -74l-199 -295l201 -291z" />
<glyph unicode="&#x203a;" horiz-adv-x="641" d="M285 236l-135 73l200 295l-200 291l141 76l241 -365z" />
<glyph unicode="&#x2044;" horiz-adv-x="424" d="M-360 -289l-119 84l1308 1852l119 -84z" />
<glyph unicode="&#x2070;" horiz-adv-x="929" d="M841 1184q0 -109 -28 -194t-78.5 -142.5t-122.5 -87.5t-161 -30q-85 0 -152.5 26t-114.5 79.5t-72 135t-25 192.5q0 109 28 193.5t79 142.5t123 88t161 30q85 0 152.5 -26.5t114 -79.5t71.5 -134.5t25 -192.5zM662 1170q0 79 -14 138.5t-39.5 98.5t-61.5 59t-80 20 q-46 0 -83.5 -20t-63 -58t-39.5 -95t-14 -132q0 -81 14 -141t39.5 -100t61.5 -59.5t80 -19.5q46 0 83.5 19.5t63 58.5t39.5 97t14 134z" />
<glyph unicode="&#x2074;" horiz-adv-x="803" d="M615 955v-100q37 -3 71.5 -9.5t65.5 -15.5v-84h-460v84q34 9 73.5 15.5t79.5 9.5v100h-388l-14 126l343 519h229v-513h138v-132h-138zM447 1475l-255 -393q25 1 60.5 2t71.5 1.5t69 0.5h54v389z" />
<glyph unicode="&#x20ac;" horiz-adv-x="1198" d="M414 768q-1 -22 -1.5 -43.5t-0.5 -52.5q0 -30 0.5 -49.5t1.5 -38.5h475v-113h-457q14 -79 42 -140.5t73.5 -106t112 -68t153.5 -23.5q35 0 76 4t82.5 12.5t79.5 20t67 25.5l43 -146q-36 -16 -83 -28.5t-99 -22t-104 -14t-97 -4.5q-246 0 -382.5 124t-170.5 367h-182v113 h172q-1 16 -1.5 33.5t-0.5 44.5q0 23 1 47.5t3 58.5h-174v113h186q21 123 66 219t118 163.5t175.5 103.5t234.5 36q72 0 150 -12t153 -33v-295h-114q-9 35 -15.5 75.5t-9.5 80.5q-39 18 -86 26t-106 8q-85 0 -149 -25t-108.5 -73t-71.5 -116.5t-40 -157.5h463v-113h-475z " />
<glyph unicode="&#x2116;" horiz-adv-x="2191" d="M1448 1271q-32 -8 -68 -15.5t-73 -11.5v-1244h-246l-499 857q-47 76 -85.5 146.5t-70.5 139.5q4 -90 6.5 -202t4 -241t1.5 -271v-291q42 -3 84 -10t80 -17v-111h-525v109q40 11 85.5 18.5t92.5 10.5v1107q-47 4 -92.5 11t-85.5 17v109h425l494 -848q22 -37 42.5 -72 t40.5 -70.5t39.5 -71t39.5 -73.5q-5 87 -8 197t-4.5 237t-1.5 269v294q-42 3 -82.5 10t-76.5 17v111h483v-111zM2088 859q0 -73 -21.5 -134.5t-62 -105.5t-97 -68.5t-126.5 -24.5q-74 0 -128 21t-89 61.5t-52.5 99t-17.5 131.5q0 71 22 131t62 103.5t96.5 68.5t126.5 25 q71 0 125.5 -20t90 -59t53.5 -97t18 -132zM1938 844q0 51 -8.5 88.5t-26.5 62.5t-46.5 36.5t-67.5 11.5q-31 0 -57.5 -13.5t-46 -38.5t-30 -60.5t-10.5 -78.5q0 -52 9 -90t27.5 -63t46.5 -37t68 -12q31 0 57 14t45 39t29.5 61t10.5 80zM1500 171v131h583v-131h-583z" />
<glyph unicode="&#x2122;" horiz-adv-x="1698" d="M1304 784v82q17 5 37 9t41 8l-37 232l-15 101l-23 -86l-104 -346h-146l-101 349l-22 83l-6 -68l-44 -265q21 -4 41.5 -8t39.5 -9v-82h-300v83q21 5 44 9t44 7l70 400q-26 3 -51 7.5t-47 9.5v82h296l93 -324l21 -93l20 84l101 333h294v-82q-21 -5 -46 -9.5t-50 -7.5 l70 -400q23 -3 44 -6.5t41 -8.5v-84h-305zM561 1146q-7 34 -11.5 68t-7.5 61h-102v-388q30 -3 60 -8.5t55 -12.5v-82h-369v82q26 7 55 12.5t58 8.5v388h-101q-3 -28 -8 -61.5t-12 -67.5h-87v236h559v-236h-89z" />
<glyph unicode="&#x2202;" horiz-adv-x="1305" d="M1155 837q0 -90 -10 -180t-33 -175.5t-59 -163.5t-87 -143q-34 -42 -77 -77t-93 -60.5t-107.5 -39t-119.5 -13.5q-102 0 -180 30t-130.5 85t-79.5 133.5t-27 175.5q0 106 36 195.5t100.5 155t155 103t200.5 37.5q58 0 109 -14t91 -39.5t70.5 -61t48.5 -78.5q0 51 -1 91.5 t-1 79.5q-6 121 -42.5 210.5t-97.5 148.5t-141 88t-173 28l21 153q143 -2 258.5 -48.5t197.5 -132.5t126.5 -209t44.5 -279zM901 487q0 55 -17 102t-50.5 82t-84 54.5t-117.5 19.5q-65 0 -119 -24.5t-93.5 -67.5t-60 -101.5t-20.5 -125.5q0 -72 17.5 -124.5t51.5 -88 t81.5 -53t104.5 -17.5q65 0 121.5 26.5t98 72.5t64.5 109t23 136z" />
<glyph unicode="&#x220f;" horiz-adv-x="1606" d="M1298 1337v-1843h-178v1843h-633v-1843h-178v1843h-217v158h1421v-158h-215z" />
<glyph unicode="&#x2211;" horiz-adv-x="1247" d="M74 -506v144l633 874l-594 840v143h989v-158h-760l582 -817l-629 -862h838v-164h-1059z" />
<glyph unicode="&#x2212;" d="M86 530v160h954v-160h-954z" />
<glyph unicode="&#x221a;" horiz-adv-x="1245" d="M707 0h-213l-304 877h-188v141h338l195 -592q26 -83 41 -132t28 -101h4q13 61 27 114.5t29 102.5l323 1142h199z" />
<glyph unicode="&#x221e;" horiz-adv-x="1997" d="M1880 621q0 -71 -25.5 -135t-74 -112.5t-119 -77t-161.5 -28.5q-62 0 -124 18t-125.5 49.5t-128 73.5t-130.5 92q-59 -43 -121 -85t-126 -75t-130.5 -53t-134.5 -20q-91 0 -159.5 27t-114 72.5t-67.5 106.5t-22 129q0 74 26 138t75 111.5t118.5 75t155.5 27.5 q64 0 127.5 -18.5t127.5 -50t128 -74.5t129 -92q58 44 120 86t126.5 75t130.5 53.5t132 20.5q91 0 159.5 -26t114.5 -71.5t69.5 -106.5t23.5 -130zM1696 611q0 40 -12.5 73.5t-37 57.5t-60.5 38t-83 14q-39 0 -82 -14t-88 -38.5t-93 -57t-97 -69.5q52 -40 100.5 -73.5 t94 -58.5t88.5 -39t84 -14q45 0 79.5 14.5t58.5 39.5t36 58t12 69zM853 607q-52 39 -100 73.5t-94 59.5t-88.5 39.5t-83.5 14.5q-45 0 -80 -15t-58.5 -39.5t-36 -57.5t-12.5 -69q0 -40 12.5 -73.5t37 -58t61 -38t83.5 -13.5q40 0 82 13.5t87 38t92.5 56.5t97.5 69z" />
<glyph unicode="&#x222b;" horiz-adv-x="694" d="M655 1333q-20 8 -47.5 12.5t-54.5 4.5q-39 0 -66.5 -12.5t-45.5 -49.5t-26.5 -102.5t-8.5 -170.5q0 -81 2 -157.5t4 -152.5t5.5 -153.5t6 -162.5t4 -179t1.5 -201q0 -146 -19 -247.5t-58 -164.5t-98.5 -91.5t-138.5 -28.5q-27 0 -55 2.5t-53 8.5v162q20 -6 47.5 -10 t51.5 -4q39 0 67.5 12.5t46.5 48t26.5 100t8.5 167.5q0 116 -4 227t-8 231t-8 255t-4 298q0 147 20.5 248.5t61 164.5t100.5 91t138 28q25 0 52.5 -3.5t51.5 -9.5v-161v0z" />
<glyph unicode="&#x2248;" d="M1032 763q-24 -23 -52.5 -44.5t-61 -37.5t-70.5 -25.5t-80 -9.5q-47 0 -85 9t-70 22.5t-60.5 29.5t-58.5 29t-64 22.5t-76 9.5q-31 0 -59.5 -8t-54 -20.5t-47.5 -27.5t-39 -30l-60 127q24 23 54 43.5t63.5 37t71.5 26t79 9.5q47 0 85.5 -9t72 -23t63.5 -30t60 -30 t62 -23.5t69 -9.5q54 0 101.5 24.5t94.5 66.5zM1033 396q-24 -20 -54 -39.5t-63.5 -34.5t-71 -24t-76.5 -9q-50 0 -88.5 9.5t-71 22.5t-61.5 29t-58 29.5t-62 22.5t-73 9q-31 0 -59.5 -8t-53.5 -20.5t-46.5 -28t-39.5 -29.5l-61 128q23 20 51 40.5t61 37t70.5 27t79.5 10.5 q47 0 85 -9.5t71 -23t63 -30t60.5 -30t65 -23t75.5 -9.5q53 0 100.5 21t95.5 61z" />
<glyph unicode="&#x2260;" d="M544 358l-114 -284h-164l114 284h-273v152h333l78 198h-411v151h471l116 290h164l-116 -290h278v-151h-337l-80 -198h417v-152h-476z" />
<glyph unicode="&#x2264;" d="M857 260l-739 507l736 510l110 -128l-586 -380l586 -374zM139 0v154h848v-154h-848z" />
<glyph unicode="&#x2265;" d="M272 260l-109 128l585 380l-585 374l107 135l739 -507zM139 0v154h848v-154h-848z" />
<glyph unicode="&#x25ca;" horiz-adv-x="1268" d="M698 -17h-116l-513 714l504 703h112l513 -714zM623 1199l-351 -496l372 -517l354 490z" />
<glyph unicode="&#xe000;" horiz-adv-x="1020" d="M0 1020h1020v-1020h-1020v1020z" />
<glyph unicode="&#xf6c9;" horiz-adv-x="764" d="M205 1485l-35 106l373 152l51 -144z" />
<glyph unicode="&#xf6ca;" horiz-adv-x="989" d="M492 1483l-322 168l51 104l275 -123l276 123l49 -102z" />
<glyph unicode="&#xf6cb;" horiz-adv-x="997" d="M827 1602q0 -23 -8.5 -43t-23.5 -35.5t-35.5 -24t-42.5 -8.5q-23 0 -43 8.5t-35 23.5t-23 35.5t-8 43.5t8 43t23 35t35 23.5t43 8.5q22 0 42.5 -8.5t35.5 -23.5t23.5 -35.5t8.5 -42.5zM391 1602q0 -23 -8.5 -43t-23.5 -35.5t-35.5 -24t-42.5 -8.5q-23 0 -43 8.5t-35.5 24 t-24 35.5t-8.5 43q0 22 8.5 42.5t24 35.5t35.5 23.5t43 8.5q22 0 42.5 -8.5t35.5 -23.5t23.5 -35.5t8.5 -42.5z" />
<glyph unicode="&#xf6ce;" horiz-adv-x="764" d="M559 1485l-389 114l53 144l371 -152z" />
<glyph unicode="&#xf6cf;" horiz-adv-x="1077" d="M618 1483l-86 82l269 260l106 -109zM260 1483l-90 82l231 266l113 -102z" />
<glyph unicode="&#xf6d0;" horiz-adv-x="905" d="M170 1532v127h565v-127h-565z" />
<glyph unicode="&#xf8ff;" horiz-adv-x="2133" d="M1627 1236q-7 8 -14.5 16.5t-15.5 17t-16 16t-16 14.5l168 191q24 -20 46 -41.5t41 -45.5zM1829 694q1 20 1 44t-1 44l258 18q2 -32 2 -63t-2 -62zM1113 1470q-24 2 -46.5 1.5t-43.5 -1.5l-18 254q31 3 62.5 2.5t61.5 -2.5zM570 1298q-9 -7 -17 -14.5t-16 -15.5 t-15.5 -16t-14.5 -15l-195 169q21 24 42 46t46 41zM1562 736q0 -52 -10.5 -101.5t-29.5 -93t-44 -81t-54 -66.5v-159l-33 -9l64 -153l-61 -15l61 -147l-62 -16l21 -51l-61 -138h-105q-2 -19 -17.5 -35.5t-39.5 -29t-56 -19.5t-68 -7q-37 0 -69 7t-56.5 19.5t-39 29 t-16.5 35.5h-106l-102 248l63 17l-63 152l69 18l-39 94v160q-29 30 -54 68.5t-43.5 82t-29 92t-10.5 98.5q0 103 39 193.5t106 158t157.5 106.5t193.5 39q102 0 192 -39t157.5 -106.5t106.5 -158t39 -193.5zM46 675q-3 31 -3 63t3 62l260 -18q-1 -22 -1 -45t1 -44zM1087 772 q5 0 5 10.5t-5 10.5q8 -11 0 -21zM1085 786q-5 0 -4.5 -1.5t1.5 -3t1.5 -2.5t-2.5 -1v-2q5 0 5.5 1t-0.5 2.5l-2 3t1 1.5v2zM1077 782q0 3 -2.5 4t-5.5 -2q2 0 3 0.5t3 -2.5q-2 0 -4 -1.5t-2 -3t1 -1.5t5 2v-2h2v6zM1069 772q-6 10 0 21q-5 0 -5 -10.5t5 -10.5zM1459 736 q0 82 -31 154t-84 125t-124.5 84t-152.5 31t-152.5 -31t-125 -84t-84.5 -125t-31 -154q0 -86 35.5 -164t102.5 -135h121l-31 281q-24 -5 -43.5 -11t-35.5 -11q-8 -3 -14.5 2t-10.5 14.5t-6 21.5t-0.5 23t4.5 19t9 10q61 20 128 32t134 12q69 0 135.5 -12t127.5 -32 q6 -2 9.5 -9.5t4 -18.5t-1.5 -23t-5.5 -21.5t-10 -14.5t-15.5 -3q-16 5 -36 11t-44 11l-29 -281h120q28 24 52.5 56t43.5 70t30 81.5t11 91.5zM1061 778q-3 -2 -3 3t3 3v2q-5 2 -5.5 -5t5.5 -5v2zM1053 786h-2v-6q0 -3 -1 -2.5t-1 2.5v6h-2v-6q0 -5 3 -4t3 4v6zM1044 778h-4 v13h-2v-15h6v2zM1156 731q-19 4 -41 6t-48 2q-25 0 -47.5 -2t-41.5 -6l28 -294h122zM1324 355h-514v-112l32 -78l482 123v67zM1296 203l-494 -128l33 -79l495 124zM1297 33l-494 -126l52 -127h425l28 67l-13 28l-152 -38l-26 67l213 53z" />
<glyph unicode="&#xfb00;" horiz-adv-x="1384" />
<glyph unicode="&#xfb01;" horiz-adv-x="1300" />
<glyph unicode="&#xfb02;" horiz-adv-x="1300" />
<glyph unicode="&#xfb03;" horiz-adv-x="1944" />
<glyph unicode="&#xfb04;" horiz-adv-x="1944" />
<glyph horiz-adv-x="1966" d="M1802 1169q0 -8 -4 -8q-22 3 -43 0.5t-43 -4.5q-35 -2 -61 -3t-47.5 -2.5t-39.5 -3.5t-36 -5q-8 -7 -10.5 -15.5t-3.5 -17t-2 -17.5t-5 -18q0 -9 3.5 -16t5.5 -15q5 -6 12.5 -9t15.5 -5q14 2 27.5 8t19.5 19q0 8 -4 13.5t-10 10.5q-5 4 -10.5 5t-11 1t-10.5 1.5t-9 7.5 q6 10 19.5 8t25.5 -2q11 -3 18.5 -12t12.5 -21q-2 -17 -12 -30.5t-25 -24.5q-11 -3 -21.5 -5t-21.5 -5q-25 6 -51 16t-41 33q-4 12 -3.5 23t2 22t4 22t3.5 23q-5 9 -13.5 7.5t-17.5 0.5l-67 -2q0 3 -2.5 4t-2.5 4q7 5 15 4.5t14 1.5q19 -3 39 -1.5t39 1.5q8 6 9 16t1 19 q6 14 7 32.5t12 29.5q5 3 9 2t7 -4t6 -7t6 -6q6 -8 6.5 -16.5t0.5 -18.5v-20t4 -19q4 -6 9.5 -7.5t11.5 -1l12 1t12 -0.5q24 1 48 1.5t52 1.5t60 3t71 7q3 -2 4.5 -2.5t3.5 -4.5zM1327 1028q-25 0 -52.5 -1t-51.5 -9q-8 3 -15 5t-12 11q5 28 7.5 57.5t-5.5 57.5 q-5 6 -13.5 0.5t-15.5 -8.5q-14 -9 -28 -19t-26 -22t-20 -26.5t-10 -31.5q-8 -8 -18.5 -11.5t-19.5 1.5q-6 7 -6.5 15t0 16t1.5 16.5t-2 16.5l-2 63q-6 6 -16 3.5t-21 0.5q-2 1 -6 1.5t-7.5 1t-6 2t-2.5 6.5q26 -2 52.5 2.5t53.5 -0.5q6 -6 6.5 -14t0 -16.5t1.5 -15.5 t11 -10q28 13 53.5 30t52.5 28q6 -4 14 -4h15t12.5 -2.5t8.5 -12.5q5 -22 3.5 -43.5t0.5 -44.5q3 -6 2.5 -12.5t5.5 -11.5q8 -2 14 -3t12 3q8 0 16 -2.5t19 -2.5q2 -2 2.5 -4.5t-2.5 -5.5zM915 1145q8 -38 -14 -64q-11 -7 -21 -15.5t-20 -16.5t-21 -14t-24 -7q-6 2 -9 -0.5 t-5 -6t-4.5 -5.5t-8.5 2q-11 8 -24.5 4t-26.5 -2q-12 0 -22 0.5t-21 5.5q-8 7 -16 14.5t-14.5 16.5t-9 20t2.5 23q7 18 18.5 34t31.5 27q21 11 44.5 22t51.5 5q16 -1 33 -2.5t32 -6t27 -12.5t20 -22zM926 1360q-11 -13 -27.5 -17.5t-32.5 0.5q-9 13 -17.5 24.5t-10.5 25.5 q-13 21 -31.5 32.5t-40 18.5t-44.5 11.5t-44 10.5l-64 4q-5 -5 -12.5 -3t-13.5 -1q-35 -11 -61.5 -20.5t-51.5 -22.5q-6 -8 -15 -14t-17 -12.5t-15 -14.5t-8 -20q-13 -31 -17 -69.5t-6 -73.5q10 -8 22 -5.5t23 0.5q44 5 87 5h89q4 -2 4.5 -7t-1.5 -8q-9 -6 -16.5 -5t-15.5 4 t-15.5 5.5t-16.5 -0.5q-20 2 -42 -1t-42 -1q-18 -3 -38 -4t-36 -10l-6 -8q-2 -19 -2 -34v-29.5t1 -30t3 -35.5q1 -7 0.5 -14.5t-0.5 -14.5t1.5 -14.5t6.5 -14.5q26 -2 41.5 -1.5t29 2t29.5 3.5t42 3q6 5 13 2t13 -5q2 -2 1 -4t1 -4l-8 -4q-24 4 -42.5 3.5t-37.5 -3t-41 -4.5 t-53 0q-22 -2 -46.5 -4t-47.5 0q-32 -2 -67 -2t-64 8l-4 6q3 3 8 6t10 5q16 -8 37 -10t43 -5q14 2 28 1t25 7q-1 26 2 49t6.5 45t8 45.5t6.5 51.5q-2 4 -6 8q-31 1 -59 -0.5t-56 10.5q-2 5 0.5 8t5.5 3q28 -8 57.5 -8.5t57.5 1.5l4 7q5 34 11.5 70.5t19.5 64.5v6 q46 54 107 86.5t136 40.5q38 5 75 -4t69 -23q9 -3 20 -3t21 -5q35 -8 69.5 -24.5t57.5 -47.5q3 -3 2.5 -8t-2.5 -10zM1571 -127q-23 1 -48.5 -1t-52 -4.5t-51.5 -4t-47 1.5q-57 2 -112.5 -1t-110.5 -7t-110 -5t-111 5q-51 -8 -99 -3.5t-98 9.5q-60 5 -122.5 3.5t-125.5 -1.5 q-21 0 -47.5 -0.5t-54.5 -2.5t-54.5 -5t-47.5 -9q-8 -2 -17 -1.5t-14 10.5q0 32 -2.5 66.5t8.5 66.5q3 40 1.5 81.5t4.5 82.5q-4 23 -3.5 45.5t2 45t2.5 45.5t-3 46q0 66 5.5 132.5t8.5 135.5q5 74 2 146.5t0 146.5q4 9 10.5 11t13.5 2t15 -0.5t15 1.5q8 -5 18 -5.5 t19.5 0.5t19.5 2.5t18 0.5q7 7 16 11.5t11 -9.5q3 -5 0.5 -12t5.5 -12q-4 -29 -3 -78.5t4 -107t7 -117t7 -109.5q32 10 61.5 25t58 31.5t57 32t60.5 26.5q11 5 20 12t23 12q3 2 8 7t13 0q10 -5 8 -15.5t-2 -19.5q-10 -28 -12.5 -61t2.5 -64q5 -9 13.5 -5.5t14.5 3.5 q17 14 35 23t35 22q20 12 41 23.5t43 19.5q25 17 48.5 33.5t49.5 25.5l41 33q3 8 12 14q7 0 12 -3.5t11 -8.5q0 -29 6 -58.5t6 -58.5q2 -6 6 -4.5t6 -3.5q8 -11 3.5 -21.5t-7.5 -19.5l4 -4q35 8 65 26.5t59.5 39t59 39t64.5 26.5q10 9 22 12.5t23 14.5q10 1 19 8.5t18 14 t19 8.5t22 -7q3 0 7.5 -1.5t6.5 -6.5q-2 -8 2 -13t7 -11q-2 -8 -1.5 -15.5t1 -14t0.5 -13.5t-4 -13q1 -13 0 -26t-1 -25.5t2.5 -24t8.5 -22.5q-2 -7 0.5 -13t4.5 -12t2.5 -11.5t-3.5 -10.5q2 -16 0.5 -29.5t7.5 -25.5q2 -10 3 -19.5t-5 -17.5q5 -23 5.5 -47.5t8.5 -47.5 q-5 -8 -2.5 -16t2.5 -16q0 -39 3.5 -76t8 -74t8.5 -74.5t5 -76.5q0 -3 2.5 -8.5t-0.5 -10.5zM870 1104q-5 22 -16 43.5t-37 26.5q-3 -11 -12.5 -8.5t-16.5 1.5q-14 7 -28.5 3t-24.5 -15q-11 -15 -11.5 -30t5 -29.5t14 -28.5t17.5 -27q3 -8 9.5 -6t14.5 0q14 -5 26.5 2.5 t25.5 12.5q6 6 13.5 11.5t13.5 11.5t8.5 13.5t-1.5 18.5zM1513 -20l-16 34t-20 31q-13 22 -27.5 42t-17.5 46q-5 9 -10.5 17.5t-2.5 17.5q14 17 34 27.5t34 25.5l-19 35q-18 -2 -33 -8.5t-30 -11.5q-4 -3 -8.5 -7t-9.5 -6.5t-10.5 -2.5t-10.5 5q2 41 3 81.5t-1 78.5l-4 6 q-16 0 -28.5 5t-26.5 10q-3 -23 -6.5 -48.5t0.5 -50.5q-3 -8 -3 -18.5t1 -21t1 -21t-4 -19.5q2 -32 0.5 -57t-3 -49t-2 -49t2.5 -56l-2 -14h49q7 2 13.5 -2t11.5 2v28t-2 29q1 8 -1.5 17t-3.5 17t1.5 14.5t13.5 9.5q11 -5 11.5 -14t7.5 -17q-1 -7 1.5 -13t6 -11.5l7 -11 t5.5 -11.5q10 -6 17 -14.5t13.5 -18t13.5 -19t16 -16.5q6 2 11.5 -2.5t14.5 -1.5q5 0 8.5 4t3.5 9zM1245 367q-3 9 -8 17t-16 13q-5 5 -11.5 6t-9.5 -6q-9 -12 -13 -30.5t5 -30.5q3 -11 15.5 -12t23.5 4q9 6 12.5 17t1.5 22zM1249 31q0 40 -2 79t-2 76q0 14 1.5 27.5 t-1.5 26.5q-7 5 -14 5.5t-14 -1t-14.5 -3.5t-14.5 -1q-7 -12 -9 -24.5t-1.5 -25.5t1 -26.5t-0.5 -26.5q-5 -11 -5 -25t-2 -28q3 -10 2.5 -21.5t-0.5 -23.5t2 -23.5t9 -21.5q15 0 31 2.5t30 7.5q3 6 3.5 13.5t0.5 13.5zM1147 252q-16 -2 -33.5 -5t-28.5 -22q-4 -4 -5.5 -10.5 t-4 -13t-7 -10t-13.5 -1.5q-5 16 -4.5 29.5t0.5 30.5q-4 2 -8 1.5t-8 -1.5t-7.5 -1.5t-7.5 1.5q-9 -5 -14.5 -12t-8.5 -15q0 -60 1 -114t8 -113l6 -8q5 -4 11.5 -4t13 1t12 2t10.5 -1q-3 11 -2.5 21.5t1.5 21t1 20.5t-4 21q5 23 11 46.5t21 43.5q13 9 27 12t27 14 q2 17 6.5 33t-0.5 33zM938 61q9 18 12 36t1.5 37t-5.5 38t-8 39q1 6 -5.5 11.5t-15.5 11t-18 9.5t-12 7t-9 3.5t-8 -5.5q-22 3 -39 -8q-11 -7 -15.5 -16.5t-12.5 -14.5q-5 -3 -10.5 -1t-8.5 7q8 37 4 75t-10 77l-4 14h-16q-9 -3 -12.5 -9t-4 -13.5t-0.5 -15t-2 -13.5 q-6 -34 -4 -69.5t-4 -70.5q3 -34 0 -67t0 -64q0 -18 -3 -35.5t-1 -37.5q14 -8 32 -2t32 12q10 4 16.5 1.5t11.5 -8t10 -12t11 -10.5h13t13 2q11 6 24 17t24 23.5t18 26t6 25.5zM682 70q-7 22 -6.5 45t1 45t-1.5 43.5t-13 40.5q-26 15 -48 24l-16 11q-9 -2 -17.5 -1.5 t-17 0.5t-17 -2t-16.5 -8q-14 -8 -14 -22.5t-2 -30.5q11 -5 24 -3.5t25.5 2.5t23.5 -1.5t19 -15.5q-1 -4 0.5 -7l3 -6t1.5 -5.5t-3 -6.5q-2 -3 -2.5 -8t4.5 -8q3 -5 1.5 -11t-7.5 -8q-14 -5 -28 -4t-29 -2q-23 -9 -34.5 -31.5t-16.5 -44.5q-3 -5 -3 -10.5t1 -11t1.5 -11 t-3.5 -10.5q0 -14 9.5 -22t20.5 -13q3 4 7.5 7t9.5 -2q8 -3 15.5 0t14.5 8.5t14 12t15 11.5q11 2 13 -2t1.5 -11t-1 -15t4.5 -13q10 -5 17 -0.5t16 4.5q8 4 16.5 5.5t14.5 7.5zM508 371q-25 5 -53 3.5t-54 -3.5q-15 -2 -29.5 -5.5t-25.5 -11.5q-2 -32 -6.5 -66.5t-7.5 -66.5 q5 -54 3 -111.5t1 -113.5q8 0 15 2.5t14 -0.5q12 3 23 -1.5t24 1.5q2 32 2 64.5t2 64.5q5 11 14 15.5l19 9.5q4 2 8 1.5l8 -1t7.5 0t6.5 5.5l-2 57q-8 9 -19 8.5t-24 -0.5q-3 -3 -6 -5.5t-8 -2.5q-8 1 -11 6.5t-4 12t-1 14t-3 12.5q-3 6 0.5 11t8.5 10q20 6 39.5 9.5 t39.5 6.5l13 8q-3 19 1.5 34t4.5 32zM881 158q14 -29 7.5 -60t-26.5 -53q-5 -8 -11.5 -9.5t-12.5 -4.5q-13 1 -19.5 8.5t-9.5 17.5t-4.5 21t-3.5 20q5 16 6 34t10 32q7 4 11.5 10l9 12t9.5 10.5t13 4.5l6 -6q-2 -7 -0.5 -12t5 -8.5t6.5 -7.5t4 -9zM604 86q0 -15 -9 -26.5 t-20 -20.5q-8 -2 -15.5 -8t-18.5 0q-7 1 -9 5.5t-1 9.5t3 11t3 11q0 6 5 11.5t13 8.5q12 0 20 8q7 -2 15.5 -1.5t13.5 -8.5z" />
<glyph horiz-adv-x="2339" d="M1895 -70q-9 -12 -22.5 -16.5t-28 -6t-28.5 -4t-25 -9.5q-17 -2 -33.5 -4.5t-31.5 -8.5t-27 -16.5t-19 -28.5q-8 -21 -19.5 -40.5t-21.5 -39.5t-15.5 -41.5t-0.5 -46.5q2 -9 8.5 -12.5t14.5 -4t16 1t14 3.5q4 0 7 3l6 6t7 4.5t9 -1.5q9 -6 1 -12.5t-11 -13.5 q-17 -11 -37.5 -15.5t-40.5 4.5q-16 16 -24.5 34t-2.5 40q1 8 5 19.5t12.5 29.5t21.5 43t33 60q-16 7 -32 6t-32.5 -4.5t-32.5 -5.5t-32 4q9 12 25 17.5t30 10.5q13 3 28 3t29 1.5t26 6.5t20 18q7 11 8.5 22.5t1.5 23t-1 24t1 24.5q-11 3 -10.5 11.5t0.5 13.5 q-12 23 -30 34.5t-40 17t-44.5 6t-43.5 1.5q-23 -2 -45 -11t-41 -23.5t-34 -33t-23 -38.5q-14 -32 -11 -65.5t17 -67.5q-4 -25 5.5 -47t20 -44.5t16 -46t-6.5 -51.5q-11 -9 -26 -8t-28 6q-14 7 -21 19t-10.5 26.5t-6 29t-7.5 27.5q9 6 11.5 15.5t3.5 19.5t2.5 19.5t7.5 17.5 q3 11 1.5 27t-15.5 22q-18 -2 -38 -2.5t-39.5 -2t-37.5 -6.5t-33 -17q2 -22 5 -45.5t2 -46t-9.5 -42t-28.5 -34.5q-12 -3 -24 -0.5t-25 8.5q-11 9 -14.5 20t-4 23.5t1 25.5t1.5 25q7 15 14.5 32t16.5 32.5t21 28t30 18.5q15 -10 33.5 -6.5t33.5 8.5l101 2q4 4 6 11t2.5 14 t1 14.5t2.5 13.5q9 29 26 56.5t39.5 48.5t50.5 35t60 16q34 3 67 1t64 -18q1 -11 8 -16.5t15 -10t15 -10t9 -16.5q9 -15 12 -32.5t2 -35.5t-5 -36.5t-7 -34.5q47 0 91.5 8t86.5 16zM1064 -111q-9 -6 -17 -3t-16.5 7.5t-17 7.5t-17.5 -3q-14 -9 -19.5 -22t-9 -26.5 t-7.5 -26.5t-13 -24q-3 -28 -9.5 -54t-6.5 -52q-6 -3 -12.5 -7t-16.5 -1q-6 7 -7 17t0.5 19.5t3.5 19t1 17.5q8 9 10 21t2 24t0.5 23.5t6.5 21.5q-7 11 -6 26.5t-3 25.5q-5 1 -8.5 -0.5t-6.5 -3.5t-7 -2.5t-8 4.5q3 12 10 20t18 16q17 0 25 -12t14 -24q8 3 15 12t15 16 t16.5 9t19.5 -9zM792 -18q-1 -51 1.5 -103t4 -103.5t-1 -101.5t-14 -97t-34 -90t-61.5 -81q-65 -40 -143.5 -49.5t-153.5 10.5q-8 5 -16 12.5t-8 16.5q5 20 12.5 40.5t32.5 28.5q-6 -17 -14 -33t-11 -34q26 -17 59.5 -23t68.5 -3.5t69 12t61 24.5q29 10 46 28.5t28 41 t18.5 47t18.5 45.5q6 36 9 75.5t4.5 79t0.5 76.5t-2 68q4 11 3.5 23.5t-2 25.5t-2.5 25.5t1 23.5q-3 11 -12 7.5t-13 -5.5q-8 -8 -13 -17t-9.5 -18t-9.5 -17.5t-13 -14.5q3 -15 -4 -24t-16 -16.5t-17 -15.5t-8 -22q-42 -47 -77.5 -95t-69.5 -98q-8 -12 -14.5 -24t-22.5 -10 q-10 13 -11.5 28.5t0.5 31t4 32t-1 32.5q10 34 18.5 72t34.5 72q19 49 52.5 97t82.5 79q14 4 26.5 2t24 -7.5t22 -13t21.5 -14.5q10 11 16 24t9 25q25 -9 25 -41q-6 -5 -6 -8.5t2 -7.5t3.5 -8.5t0.5 -9.5zM1453 428q-36 -5 -71 -16t-69.5 -21t-69.5 -16.5t-72 -3.5 q-7 -6 -10.5 -23t-1.5 -33.5t11 -26.5t27 -3q6 8 9 23t16 20q9 -19 2.5 -36.5t-19.5 -31.5q-6 -4 -21 -4.5t-29.5 8.5t-23.5 31.5t-4 64.5q-5 7 -10 13.5t0 15.5q12 9 17.5 20t7.5 23t3 25t3 26q-3 2 -4 4.5t-4 4.5q-18 -12 -30.5 -27.5t-23 -32t-21 -33.5t-24.5 -32 q0 -15 -8 -26.5t-17.5 -22.5t-16 -23.5t-3.5 -28.5q-6 -6 -6.5 -15.5t-1.5 -19.5t-5.5 -17.5t-18.5 -8.5q-18 4 -24 15t-6.5 24.5t1.5 28t0 26.5q-3 19 -1.5 36.5t3.5 34.5t3.5 33.5t-1.5 34.5q-9 -5 -14 -13t-9 -16.5t-8.5 -17.5t-11.5 -16q-10 -12 -19 -28.5t-20 -30.5 t-25.5 -22t-35.5 -3q-12 17 -13 35.5t4.5 38t15 38t19.5 35.5q9 10 19 23.5t22 24t25.5 15.5t30.5 -1q10 -5 20 0q19 43 28.5 90.5t12.5 93.5l21 16q13 -4 14.5 -10.5t-1 -14t-6 -16t-1.5 -16.5q-8 -57 -19 -113t-16 -112q-1 -15 -3.5 -30t-4 -29.5t-1.5 -29.5t5 -30 q16 21 31 45t30.5 49t33.5 49t40 45q25 36 65 62q16 -13 31 -29.5t31 -27.5q0 -19 -2.5 -41.5t2.5 -40.5q56 12 106 20.5t103 24.5q8 -5 12 -10.5t2 -16.5zM2135 1190q-2 29 -10 60t-23 59t-37 51t-53 37q12 18 25.5 16.5t25.5 -12t22.5 -25.5t18.5 -24q32 -39 46.5 -85.5 t15.5 -95.5t-10 -98t-29 -94q-15 -35 -36 -68t-48 -62t-59.5 -52.5t-69.5 -38.5q28 20 54 43.5t44 54.5q16 16 32 34t29.5 38t23.5 43t14 49q24 40 26.5 83.5t-2.5 86.5zM1951 983q-6 -15 -18.5 -30.5t-30.5 -20.5q-16 5 -24 13.5t-17 21.5l4 28q5 -2 6.5 -6t3 -9t3.5 -10 t9 -7q11 -4 19.5 6t13.5 16q8 47 1 92.5t-32 85.5l-12 -6q-25 -23 -46.5 -42t-35.5 -50l-16 -8q-28 -28 -49 -60t-45 -55q-12 -2 -18 3.5t-8.5 13.5t-3.5 17.5t-5 16.5q3 8 1.5 18.5t-7.5 16.5q-6 1 -9 -1.5t-4.5 -6t-3 -7.5t-4.5 -5q-15 -16 -29.5 -23.5t-35.5 -9.5 q-23 6 -28.5 18t-3.5 28t8 34t5 35q8 30 26.5 53.5t41.5 48.5q10 2 21.5 6.5t23 6t22 -1.5t19.5 -15l8 -12q-12 -35 -15 -73t-8 -75q2 -6 5.5 -13t11.5 -7q12 0 18 5.5t10 13t8 16t11 14.5q45 38 83.5 78.5t76.5 81.5q13 -5 17 -16t5.5 -24t2.5 -25.5t7 -21.5q11 -5 7 -16 q15 -31 15 -64t-5 -67zM1672 1384q-6 -11 -19.5 -20.5t-29.5 -7.5q-3 6 -8 13.5t-16 -1.5q-29 -23 -58.5 -47.5t-55 -51.5t-45.5 -57.5t-32 -64.5q-7 -42 -10.5 -86.5t2 -87.5t23 -80.5t53.5 -65.5q10 -8 21 -10.5t23 -2.5t25 1t25 0q12 8 21 17.5t22 17.5q1 -9 -3 -15.5 t-11 -11.5t-15 -9.5t-14 -10.5q-31 -13 -66.5 -5t-60.5 29q-22 20 -36 43.5t-19 51.5q-10 4 -10.5 9.5t1.5 12t3 12.5t-7 11q4 7 2.5 14t-4.5 14.5t-4 15.5t4 17q-2 61 17.5 114t52.5 98.5t76 85.5t88 75q7 1 18 3.5t20.5 2.5t17 -4.5t9.5 -18.5zM1297 1020q-14 -34 -45 -60 t-71 -26q-41 0 -77 15.5t-54 49.5q-16 23 -16 49t5 54q2 9 6.5 16.5t9 14t8.5 14t5 16.5q28 23 62 30t69 -5q7 -6 15.5 -9t7.5 -16q-3 -4 -6.5 -3t-7.5 3.5t-9 5t-10 2.5q-28 8 -54.5 -1.5t-47.5 -30.5q-16 -25 -24.5 -54.5t3.5 -58.5q44 -60 111 -70q9 4 19.5 5.5t20.5 3 t19.5 6t17.5 14.5q6 4 10.5 11.5t9 14t10 10t13.5 -0.5zM982 963q-11 -25 -18.5 -50.5t-26.5 -48.5q-14 -6 -25.5 1t-17.5 20q-15 35 -21 75t1 78q-3 2 -2 17t2.5 33.5t1 36t-6.5 26.5q-13 -31 -14 -63.5t-1.5 -64t-7.5 -62t-32 -56.5q-3 -3 -14 -6t-24.5 2.5t-26.5 23.5 t-19 58q6 38 8 74t9 73q1 7 -1 14.5t-3.5 15t-0.5 15t9 13.5q6 3 13.5 0.5t12.5 -8.5q1 -32 -2 -65.5t-5.5 -65t-1 -59.5t12.5 -48q15 -10 21.5 -4t10 18t5 25t6.5 18q4 21 5 43t1.5 43.5t2.5 43t8 42.5q5 6 9 15.5t9 17t12 10t19 -5.5q14 -40 15 -78.5t-0.5 -76.5t-1 -77 t13.5 -79q2 -6 9 -8t13 6q1 1 4.5 11.5t9 23t13 23t16.5 10.5zM663 901q-4 -3 -8.5 -7t-20.5 -8.5t-49 -9.5t-94 -10q-70 -6 -133 -17.5t-128 -33.5q-5 -11 -12.5 -14t-15 -2t-15.5 5l-14 7q-2 9 2.5 15t11 11t12 10t7.5 13q12 25 21.5 49.5t17.5 48.5q-3 13 4.5 27t13.5 27 q45 103 86 208.5t66 217.5q-3 12 -2.5 23.5t8.5 19.5q12 4 16 -4.5t11 -14.5q-14 -79 -41 -153.5t-57.5 -147t-60.5 -146t-50 -151.5l4 -4q76 13 148.5 27t154.5 16q25 -5 55.5 -4t54.5 10zM1402 -315q12 26 3.5 56.5t-24.5 53.5q-9 -12 -11.5 -26.5t-4.5 -28.5 q3 -17 9 -34.5t28 -20.5zM1127 -188q-5 -23 -7.5 -48t5.5 -47q6 -6 17 -5.5t20 7t13.5 18t-2.5 27.5q2 9 4.5 23t2 27t-5.5 23.5t-18 12.5zM718 -12q-3 11 -11.5 17.5t-19 8.5t-22.5 1t-21 -5q-22 -18 -43.5 -38.5t-38.5 -43.5q-10 -32 -24 -62t-26.5 -60.5t-19.5 -62.5 t-3 -67q6 -2 7.5 2t4.5 7q28 37 59.5 72t61.5 71.5t55.5 75.5t40.5 84zM1183 426q2 5 5 13t3.5 15.5t-2 13t-10.5 7.5l-11 -59q11 2 11.5 4.5t3.5 5.5zM900 471q-14 3 -26.5 -6.5t-20.5 -22.5q-11 -14 -21.5 -29.5t-17.5 -32t-9 -33.5t5 -34q11 -5 15 1.5t8 13.5 q21 23 39 47t32 55zM1652 1178q-5 4 -8.5 2.5t-6 -4l-5 -5t-5.5 -0.5q-23 -11 -38 -29.5t-23.5 -40.5t-12 -46t-2.5 -47q7 -2 13 1t12 7t12 6.5t13 1.5q5 14 17 29t21 31.5t11.5 33t-11.5 33.5q6 0 9 3t4 7.5t0.5 9t-0.5 7.5z" />
<glyph horiz-adv-x="989" d="M768 1483l-272 123l-277 -123l-49 102l328 170l323 -166z" />
<glyph horiz-adv-x="1063" d="M893 1655q-42 -73 -100 -111.5t-129 -38.5q-47 0 -82.5 14t-76.5 42t-62 39.5t-50 11.5q-36 0 -68.5 -23.5t-60.5 -68.5l-94 67q40 73 99 112.5t130 39.5q47 0 82.5 -14t76.5 -42t62 -39.5t50 -11.5q36 0 68.5 22.5t60.5 67.5z" />
<glyph horiz-adv-x="870" d="M700 1745q0 -53 -18 -98.5t-52.5 -79.5t-85 -53t-112.5 -19q-63 0 -112.5 19t-83 53.5t-50 80t-16.5 97.5h119q0 -26 10.5 -49t30 -40t46 -26.5t58.5 -9.5q33 0 60 9.5t46.5 26.5t29.5 40t10 49h120z" />
<glyph horiz-adv-x="578" d="M408 1608q0 -24 -9.5 -46t-26 -38.5t-38 -25.5t-45.5 -9t-46 9t-38.5 25.5t-25.5 38.5t-9 46t9 45.5t25.5 38t38.5 25.5t46 9t45.5 -9t38 -25t26 -37.5t9.5 -46.5z" />
<glyph horiz-adv-x="819" d="M649 1681q0 -48 -17.5 -89.5t-50.5 -72t-79.5 -47t-102.5 -16.5q-53 0 -95.5 13.5t-72.5 40t-45.5 66.5t-15.5 93q0 47 17.5 88t50.5 71.5t79 47t101 16.5q54 0 96.5 -13t72.5 -39t46 -66t16 -93zM512 1673q0 29 -6.5 51t-20 36.5t-32.5 22t-43 7.5q-21 0 -40 -7 t-33.5 -21.5t-23 -36.5t-8.5 -50t7 -50t20 -36.5t33 -22t45 -7.5q21 0 39.5 7t32.5 21t22 36t8 50z" />
<glyph horiz-adv-x="688" d="M276 1241l-106 66l213 321l135 -80z" />
<glyph horiz-adv-x="608" d="M594 1339q0 -22 -8.5 -42.5t-24 -35.5t-35.5 -23.5t-43 -8.5q-22 0 -42.5 8.5t-35.5 23.5t-23.5 35.5t-8.5 42.5q0 23 8.5 43t23.5 35.5t35.5 24t42.5 8.5q23 0 43.5 -8t35.5 -23.5t23.5 -35.5t8.5 -44zM236 1339q0 -22 -8.5 -42.5t-24 -35.5t-36 -23.5t-42.5 -8.5 q-23 0 -43 8.5t-35.5 23.5t-24 35.5t-8.5 42.5q0 23 8.5 43t24 35.5t35.5 24t43 8.5t43 -8t35.5 -23.5t24 -35.5t8.5 -44z" />
<glyph horiz-adv-x="1868" d="M428 137q40 -3 84.5 -10t85.5 -16v-111h-532v111q42 9 87.5 16t90.5 10v737h-224v144h224v104q0 96 29 167.5t89.5 120t154 73t222.5 24.5q78 0 167 -7.5t175 -20.5v-478q0 -22 -1 -47.5t-3 -51t-5 -49t-7 -42.5l4 -2q20 53 53.5 95.5t77 71.5t95.5 44.5t110 15.5 q90 0 160 -31t118 -92t72.5 -150.5t24.5 -205.5q0 -132 -36.5 -238.5t-106 -180.5t-168 -113t-220.5 -39q-55 0 -101.5 2.5t-87.5 7t-80 12.5t-81 19v1316q-23 4 -47.5 7t-49 5.5t-48 3.5t-45.5 1q-147 0 -214 -59t-67 -191v-92h277v-144h-277v-737zM1585 541 q0 83 -13.5 147t-40.5 108t-69.5 66.5t-99.5 22.5q-45 0 -84 -16t-70.5 -45t-55 -67.5t-39.5 -82t-24 -89.5t-8 -91v-338q41 -13 85 -19t98 -6q74 0 132.5 23.5t101 73t65 127.5t22.5 186z" />
<glyph horiz-adv-x="1944" d="M1548 0v658q0 53 -8 95.5t-28.5 71.5t-53.5 44.5t-83 15.5q-64 0 -117 -30t-91.5 -83.5t-60 -126t-21.5 -156.5v-352q42 -3 84 -9.5t81 -16.5v-111h-511v109q37 11 78.5 18t83.5 10v1207q-48 8 -95 11.5t-90 3.5q-75 0 -129.5 -15t-90 -46t-52 -78t-16.5 -112v-90h285 v-143h-285v-738q42 -3 83.5 -10t79.5 -18v-109h-525v109q40 11 86 18t92 10v738h-224v143h224v105q0 94 29 166t89.5 120t154.5 73t223 25q83 0 172 -7.5t173 -20.5v-465q0 -25 -1 -52t-3 -54t-5.5 -52.5t-7.5 -45.5l3 -1q22 51 57 94t79.5 72.5t100 46t118.5 16.5 q88 0 146.5 -25.5t93.5 -70t50.5 -103.5t15.5 -127v-575q44 -3 89 -10t83 -18v-109h-356z" />
</font>
</defs>
</svg>
